<?xml version="1.0" standalone="no"?>
<!DOCTYPE svg PUBLIC "-//W3C//DTD SVG 1.1//EN" "http://www.w3.org/Graphics/SVG/1.1/DTD/svg11.dtd" >
<svg xmlns="http://www.w3.org/2000/svg" xmlns:xlink="http://www.w3.org/1999/xlink" version="1.1">
<metadata>
Created by FontForge 20170731 at Wed Nov  1 01:45:39 2023
 By Aleksey,,,
Copyright (c) Volker Busse Berlin, 2004. All rights reserved.
</metadata>
<defs>
<font id="Cella" horiz-adv-x="1433" >
  <font-face 
    font-family="Cella"
    font-weight="400"
    font-stretch="normal"
    units-per-em="2048"
    panose-1="2 0 0 9 0 0 0 0 0 0"
    ascent="1638"
    descent="-410"
    x-height="1053"
    cap-height="1485"
    bbox="-430 -550 1495.16 1950.59"
    underline-thickness="81"
    underline-position="-649"
    unicode-range="U+000D-25FC"
  />
<missing-glyph horiz-adv-x="748" 
d="M68 0v1365h544v-1365h-544zM136 68h408v1229h-408v-1229z" />
    <glyph glyph-name=".notdef" horiz-adv-x="748" 
d="M68 0v1365h544v-1365h-544zM136 68h408v1229h-408v-1229z" />
    <glyph glyph-name="glyph1" horiz-adv-x="0" 
 />
    <glyph glyph-name="uni000D" unicode="&#xd;" horiz-adv-x="682" 
 />
    <glyph glyph-name="space" unicode=" " 
 />
    <glyph glyph-name="exclam" unicode="!" 
d="M526 145q0 -39 19 -75q42 -72 131 -84h8h8q86 0 148 77q26 33 26 78q0 24 -8 43q-40 125 -121 125q-64 0 -135 -47q-76 -52 -76 -117zM571 737q0 -64 27 -190q21 -98 88 -98q59 6 96 55q22 36 25 149l2 275q-6 56 -6 94q0 35 2 43l14 72q2 8 2 30q0 43 -12 80l-51 135
q-22 42 -66 48h-6h-6q-6 0 -31 -5q-78 -28 -78 -155q0 -13 5.5 -62t5.5 -65q0 -15 -5.5 -69t-5.5 -70q0 -39 7 -97q2 -10 2 -39q0 -31 -7 -110v-8q-2 -6 -2 -13z" />
    <glyph glyph-name="quotedbl" unicode="&#x22;" 
d="M403 1106q0 -151 115 -154q50 3 84 33q26 26 29 66l2 59l35 113q0 -6 -6 0q-7 11 -13 75l2 99q-30 108 -96 108q-27 0 -49 -14q-103 -62 -103 -170v-215zM834 1284q0 -100 12 -176q15 -125 84 -150q30 -10 61 -10q13 0 37 4q46 15 55 78l21 133l2 111l12 63q2 8 2 25
q0 48 -35 72q-50 36 -106 57q-20 4 -27 4q-35 0 -65 -27q-35 -41 -41 -96q-12 -83 -12 -88z" />
    <glyph glyph-name="numbersign" unicode="#" 
d="M164 -35q-3 -31 2 -55q0 -2 4 -6l2 -6q15 -43 57 -74q54 -34 109 -43h18q55 -3 70 61q10 96 8 138l4 83l17 91l51 125l18 96l195 2l61 2l-10 -37l-53 -102l-37 -72q-23 -37 -31 -100q-9 -63 -20 -82q-36 -67 -39 -84q-6 -28 0 -56l6 -6v-6q15 -43 57 -74q58 -36 109 -45
h20q53 0 68 62q13 91 10 139l4 84l17 90l49 125l31 156q2 3 6 10t6 10q41 8 74 8q18 0 26 -2l41 -8q41 0 66 14q56 36 102 82q10 10 10 23q0 6 -2 8q-12 12 -35 25l-120 45l-86 20q9 29 12 41q13 90 20 105l31 55l139 18q27 9 31 27q0 15 -20 35l-78 84q-6 6 -10 8l28 45
l29 88l29 78l32 65l19 76q22 81 30 94q53 77 35 154q-12 37 -32 66t-41 30q-6 2 -25 -2q-30 -20 -33 -63q0 -27 -55 -88q-15 -18 -12 -142q0 -31 -25 -53l-45 -29q-24 -20 -21 -55q3 -119 -8 -133q-58 -73 -61 -82l-2 -55l-82 28q-17 0 -72 -13t-71 -13q-15 0 -33 2l-37 4
l6 27l49 79l29 89l29 77l32 66l19 76q19 73 33 96q52 76 32 151q-8 34 -29.5 64.5t-43.5 34.5q-6 2 -23 -2q-30 -20 -33 -66q0 -27 -55 -88q-17 -17 -14 -141q3 -31 -25 -53l-43 -27q-23 -20 -20 -55q3 -118 -9 -133q-58 -70 -63 -84l-4 -101l-182 -4q-108 31 -121 31
q-63 -20 -107 -80q-12 -15 -12 -37q0 -28 18 -55q38 -47 95 -62l135 -20q15 -2 36.5 -4.5t26.5 -3.5l-10 -29l-29 -76l-18 -35l-43 -2q-86 -3 -121 -18q-38 -24 -47 -70q0 -6 -2 -12v-12q0 -31 12 -58q24 -52 111 -67l-37 -72l-39 -69q-21 -39 -29 -103q-9 -61 -20 -84
q-36 -60 -41 -84zM606 606l4 17q22 68 27 90q2 37 10 71q33 0 76 -14h16q36 0 115 31q12 6 29 6q18 0 45 -12l2 -2q-6 -23 -12 -62l-27 -69l-21 -54l-57 -4l-125 4z" />
    <glyph glyph-name="dollar" unicode="$" 
d="M137 293q3 -21 43 -76l60 -76q36 -31 69 -49l76 -45q0 -10 -2 -16q-12 -75 -25 -97q-40 -84 -43 -104q-5 -27 -2 -55q0 -2 4 -6v-7q15 -41 54 -55q50 -17 104 -8l12 4l9 2q49 17 71 90q15 92 15 148l4 59l90 -10l186 6q88 3 205 57q39 18 96 68q76 66 90 108l33 144
q17 53 17 86q0 61 -31 106l-68 92q-34 75 -63 101l-62 53l-41 39q-22 16 -51 16q-6 0 -8 -2h-8q-47 -6 -80 -6q-36 0 -51 6q-1 1 -3 2t-3 2q2 7 10 31l51 109l29 118l53 103l8 29q27 -17 66 -76q40 -64 135 -64q4 0 8 2h6q36 9 39 49q0 45 -22 97q-8 18 -60 67
q-55 55 -63 66q-18 27 -45 39l28 65l23 86q22 80 35 111q57 99 41 172q-6 34 -26 57t-42 19q-15 -5 -23 -11q-28 -28 -34 -81q-3 -24 -60 -109q-17 -27 -20 -154q-3 -36 -27 -63l-45 -45q-10 -14 -16 -25l-17 2l-114 2l-129 21q-7 0 -9 2h-10q-22 0 -84 -16l-119 -33
q-97 -64 -151 -115q-77 -47 -92 -203l2 -63q18 -150 92 -215l65 -58q49 -43 99 -57l209 -41l8 -2l-12 -35l-56 -116l-49 -173l-55 -120l-99 28q-27 15 -30 47l6 35q0 27 -27 45q-62 40 -104 56h-12q-27 0 -39 -37q-19 -49 -19 -123zM340 1051q0 20 16 39q1 1 58 34
q32 16 35 58q9 83 53 106l49 19q24 6 45 6h18l52 -15h12q22 0 53 17q50 33 90 33q23 0 47 -17l2 -2q-3 -41 -10 -51q-60 -93 -65 -111l-9 -106l-73 -105q-6 -12 -23 -90l-135 -4q-25 3 -55 21l-45 43q-2 5 -62 49q-38 25 -51 55q-2 6 -2 21zM639 213l29 72l37 176
q51 103 57 127l22 80l90 -19l105 6q58 -15 84 -63q10 -23 10 -57q0 -27 -2 -37q-20 -114 -49 -160q-27 -44 -129 -111q-22 -16 -129 -16q-25 0 -43 2h-43h-39z" />
    <glyph glyph-name="percent" unicode="%" 
d="M285 1153q0 -15 4 -23q1 -3 7.5 -35t9 -39.5t10 -32.5t14 -36.5t17.5 -27t24 -25.5l61 -47q46 -37 96 -37q17 0 45 4l101 23q97 34 100 127q0 62 6 77q19 46 19 58q-3 33 -39 39q-49 0 -66 -43q-2 -6 -2 -23l4 -51q0 -32 -22 -51l-58 -49q-24 -21 -45 -21h-6q-2 2 -6 2
q-41 10 -78 29l-53 39l-47 43q-14 38 -14 63l-5 98q0 17 37 78q21 34 21 70q0 20 -8 37.5t-21 21.5q-16 0 -29 -8q-29 -22 -43 -51q-6 -9 -18 -86q-16 -91 -16 -123zM305 78q0 -82 53 -82q38 0 78 61l51 76l54 148l86 96q16 29 22 86q1 1 7.5 6.5t21.5 17.5t31 25l45 127
l57 90l37 94l80 74q15 15 33 117q5 10 45 61l55 88q6 9 6 21q0 13 -15 21.5t-30 8.5q-10 0 -16 -2q-22 -9 -27 -28l-14 -45q-9 -21 -29 -31l-41 -23q-18 -18 -23 -36q-18 -74 -32 -88q-63 -82 -105 -142q0 -1 -31 -58.5t-57 -80.5q-4 -4 -31 -84l-53 -70q-9 -15 -26 -49
l-39 -76l-52 -77l-26 -45l-10 -23q-27 -55 -50 -82q-50 -53 -53 -80q0 -4 -2 -8v-8zM635 1434q0 -5 4 -17q12 -24 53 -59q26 -19 23 -58v-20q-2 -8 -2 -18q0 -68 30 -68q23 3 35 39q13 29 13 53q0 53 -60 113l-24.5 24.5t-26 24.5t-12.5 4q-8 -2 -17 -2q-16 0 -16 -16z
M684 356q0 -11 13.5 -51.5t13.5 -54.5q-2 -10 -2 -31q0 -30 10 -47l49 -61l51 -48l47 -43q20 -20 58 -26l131 2q68 3 133 80q50 58 63 88q15 33 23 110l10 74v6l2 8q0 44 -18 78l-49 72l-35 70q-21 41 -103 71q-29 11 -94 11q-87 0 -131 -23l-59 -35q-32 -13 -41 -43
l-37 -102l-21 -55l-12 -41v-5q-2 -2 -2 -4zM815 281q0 20 6 47l10 121q10 30 72 69q65 44 96 49q26 0 60 -43l53 -71q12 -27 12 -58v-90v-12q2 -6 2 -12q0 -36 -12 -60l-39 -59q-27 -37 -65 -43h-6q-2 -2 -7 -2q-40 0 -79 28l-54 56q-49 52 -49 80zM1020 1255q1 -1 14 -4
q41 -6 58 -6q4 0 8 2h4q23 3 35 37q2 11 32 62q23 44 25 63q-4 38 -8 57q-3 15 -12 15q-15 -5 -21 -11l-55 -49q-13 -17 -21 -65q-9 -51 -47 -86q-12 -9 -12 -15z" />
    <glyph glyph-name="ampersand" unicode="&#x26;" 
d="M195 520q-3 -70 12 -135l37 -98l30 -78q16 -39 60 -68l74 -51q64 -43 81 -49q32 -3 117 -8l107 -6q71 3 129 30l86 58q58 30 112 30q11 0 31 -4l98 -78q59 -39 146 -36q45 3 78 32q17 20 22 39v8v9q0 22 -12 43q-17 23 -72 59q-41 27 -71 57l-76 88q-2 2 -2 9q0 16 51 61
q52 46 61 139q0 55 -34 82q-34 21 -76 21q-32 -3 -60 -31l-53 -84q-9 -18 -22 -18q-7 2 -17 16l-26 51q-7 12 -54 41l-67 39q-75 60 -84 152q0 44 33 47h38q32 3 41 49l39 151q15 37 15 68q0 17 -4 29q-41 129 -146 182l-129 51q-33 8 -67 8q-91 0 -166 -63q-36 -28 -66 -90
q-29 -66 -29 -107q0 -23 9 -47l77 -231q0 -45 -30 -66l-86 -45q-24 -12 -62 -74l-51 -92q-22 -39 -22 -90zM395 391l4 139q8 43 43 78l99 72q17 14 39 14q39 0 90 -51l129 -127l82 -108q8 -19 8 -43q0 -63 -76 -97l-102 -45q-67 -28 -103 -28q-15 0 -35 4l-92 59
q-86 59 -86 133zM528 1137q0 55 25 100q27 53 80 53q46 -6 80 -55q28 -42 37 -94q0 -53 -42 -81t-96 -28h-8h-8q-68 12 -68 105z" />
    <glyph glyph-name="quotesingle" unicode="'" 
d="M481 1026q0 -148 99 -213l104 -68q27 -12 53 -12q59 0 119 51q38 38 47 103q8 36 8 80q0 83 -55 104l-82 31q-24 21 -24 55q3 32 26 74l55 65q39 44 48 80v6v7q0 40 -52 49h-14q-6 2 -16 2q-100 0 -179 -97l-55 -69q-82 -101 -82 -248z" />
    <glyph glyph-name="parenleft" unicode="(" 
d="M547 573q0 -33 2 -43l31 -120l12 -93q12 -89 26 -120l62 -117l33 -127q18 -41 59 -82l64 -84q43 -58 59 -72q64 -55 109 -55q23 0 49 16q45 39 51 95q0 40 -37 67l-35 27q-24 21 -39 55l-45 103l-69 96q-33 65 -56 129l-30 131q-42 176 -39 260l8 233l29 205q9 73 30 111
l43 84l105 225q16 20 47 51q45 42 45 105q0 27 -17 69q-16 32 -47 35q-35 0 -57 -16q-16 -21 -40.5 -58t-31.5 -47l-71 -94l-43 -119l-70 -96l-41 -117l-43 -112l-20 -137l-25 -119l-6 -178q-1 -23 -1 -42t-0.5 -36t-0.5 -13z" />
    <glyph glyph-name="parenright" unicode=")" 
d="M336 -203q-6 -98 63 -125q12 -4 25 -4q27 0 57 23l80 84q35 35 76 100l57 90l43 101l68 141l45 143q22 50 24.5 92t-2.5 86l-10 134q-6 82 -6 116t4 70q14 77 14 108l-26 131l-31 101l-41 106l-53 99l-41 108q-16 28 -59 82l-58 90q-42 67 -69 82q-44 27 -84 27
q-11 0 -31 -4q-43 -15 -43 -54q0 -6 4 -22q7 -26 45 -80l29 -53q37 -72 49 -84q75 -87 82 -111l49 -145l55 -148l21 -188q2 -14 2 -45q0 -32 -6 -53l-19 -82l-4 -97l-18 -186q-9 -45 -35 -96l-33 -66q-21 -40 -29 -88q-24 -128 -32 -141l-107 -94q-49 -52 -55 -148z" />
    <glyph glyph-name="asterisk" unicode="*" 
d="M342 1018l55 -111l275 156v-305h119v303l266 -160l59 105l-266 155l268 146l-51 116l-274 -153v303h-121v-299l-269 156l-57 -109q166 -96 268 -154z" />
    <glyph glyph-name="plus" unicode="+" 
d="M190 553q0 -5 3 -8q9 -33 45 -58l231 -26q139 -15 156 -41q10 -13 10 -72q0 -66 -12 -186v-17q0 -95 71 -116q24 -4 33 -4q41 0 74 26q37 27 37 142v223q6 59 57 59l119 -22l102 4q99 3 121 14q36 14 39 59q-3 61 -49 101q-23 16 -74 22l-78 11q-25 0 -80 -19
q-53 -16 -80 -16q-33 0 -59 16q-33 20 -39 139q-9 254 -43 281q-37 29 -67 29h-9q-2 -2 -8 -2q-65 -18 -59 -181l4 -112q3 -60 -12 -119q-6 -27 -50 -27h-12q-9 0 -108 -18l-109 6q-79 3 -131 -35q-23 -23 -23 -45v-8z" />
    <glyph glyph-name="comma" unicode="," horiz-adv-x="1437" 
d="M446 145q0 -83 56 -104l82 -31q24 -21 24 -55q-3 -32 -26 -74l-56 -65q-37 -43 -47 -80v-6v-6q0 -41 51 -50h15q6 -2 16 -2q99 0 178 97l56 69q82 101 82 248q0 148 -99 213l-104 68q-27 12 -53 12q-59 0 -119 -51q-38 -38 -47 -103q-9 -41 -9 -80z" />
    <glyph glyph-name="hyphen" unicode="-" 
d="M184 582q3 -62 43 -111q32 -32 101 -29l135 7l110 -3q46 -4 62 -4q31 0 90 15q62 16 90 16q13 0 60 -4t61 -4q42 0 78 4l110 14l78 19q57 15 60 71q3 76 -50 117q-13 8 -32 8q-28 0 -68 -34q-2 -1 -5 -2t-4.5 -2t-2.5 -1q-6 0 -10 7q-14 19 -35 30q-12 4 -39 4
q-2 0 -68 -4q-67 -3 -100 -6l-113 -6l-164 -14q-43 0 -122 18q-81 19 -121 19q-147 0 -144 -125z" />
    <glyph glyph-name="period" unicode="." 
d="M459 164q0 -73 22.5 -106t91.5 -62q49 -19 91 -19q85 0 131 70q36 56 36 111v24q-6 32 -18 60q-19 41 -61.5 69.5t-83.5 28.5q-51 -3 -123 -47q-89 -49 -86 -129z" />
    <glyph glyph-name="slash" unicode="/" 
d="M90 -111q0 -4 2 -6v-6q6 -41 41 -65q50 -29 100 -29q9 0 13 2h8q53 9 88 74q31 79 45 141l27 90l41 94l86 133l71 166q71 90 82 113l45 88q14 26 31.5 57t20.5 37q37 95 47 109l71 94l52 111l73 90l53 94l50 82l51 72l39 79q50 94 57 103q76 85 76 160q0 34 -14.5 61
t-36.5 27q-7 0 -25 -7q-36 -22 -51 -71q-8 -24 -80 -96q-21 -21 -51 -146q-9 -33 -39 -57l-53 -35q-28 -22 -37 -59q-28 -123 -43 -138q-82 -82 -86 -94l-31 -102l-92 -88q-3 -4 -57 -125l-48 -74l-49 -82l-78 -102l-81 -160l-82 -111l-58 -77q-33 -45 -57 -109
q-22 -58 -45 -90q-57 -75 -64 -92q-12 -27 -12 -56z" />
    <glyph glyph-name="zero" unicode="0" 
d="M100 784l2 -301q0 -89 76 -202l49 -72l68 -78l51 -59q34 -31 84 -45q124 -42 172 -45l115 4l88 -9q57 0 121 27l147 59q90 47 133 134l58 192l45 123l26 143q2 18 2 56q0 25 -4 71l-57 224q-12 105 -27 131l-65 100l-39 74q-19 36 -66 51q-127 48 -166 51q-97 9 -108 12
l-29 11q-52 15 -149 18l-226 -74q-52 -9 -77 -47l-86 -76q-20 -18 -35 -51l-17 -76l-45 -96q-29 -63 -32 -131zM346 1024v10v2q9 26 33 47l39 25q28 16 31 51l2 45q6 24 36 33l76 12q90 19 99 19l174 -17q53 15 86 15q26 0 41 -9q34 -31 59 -96q9 -22 31 -22h4h4q6 0 10 2
h19q4 -2 8 -2q23 -9 32 -47q17 -107 44 -146q28 -48 28 -112v-15q0 -14 -2 -16l-8 -193q-41 -59 -41 -86q0 -8 2 -12l31 -70q0 -14 -51 -77l-80 -146l-103 -51q-67 -42 -131 -39q-11 2 -98 21l-109 26q-137 35 -166 135q-7 23 -14.5 48t-10 34t-3.5 10l-60 76q-4 12 -4 19
q0 11 13 24l34 21q5 15 5 16q0 8 -9 23q-22 28 -31.5 43t-9.5 16.5v9.5q0 13 9 37l14 35q2 6 2 31l-21 67l-4 86q-1 18 -3.5 45t-4.5 47.5t-2 24.5z" />
    <glyph glyph-name="one" unicode="1" 
d="M315 86q0 -11 11 -37q33 -45 127 -45q33 0 51 2l190 -4q52 10 84 10q17 0 60.5 -10t56.5 -10q32 0 88 16l219 19q31 22 31 57q-3 24 -35 47l-108 43l-142 -6q-71 21 -71 133q0 29 2 39l12 88l4 88v109l-8 114l-6 119v98l-4 109l24 147v11q2 4 2 12q0 44 -10 82l-31 102
q-18 37 -55 37q-43 0 -113 -49l-82 -57l-94 -56l-90 -49l-76 -53q-35 -27 -35 -70q0 -4 2 -6v-8q11 -61 48 -107q15 -12 32 -12q21 0 39 12l66 43l65 43q81 49 107 52q24 0 33 -15q4 -12 4 -18q0 -15 -2 -21l-27 -90v-6q-2 -4 -2 -10q0 -11 4 -31l14 -53q7 -25 7 -41
q0 -9 -5 -29l-28 -96q0 -41 18 -135q19 -97 19 -145v-17v-16l-17 -94q-3 -64 -10 -89q-16 -29 -49 -38l-92 -5l-92 -22q-78 -18 -113 -39q-23 -20 -23 -43z" />
    <glyph glyph-name="two" unicode="2" 
d="M180 125q0 -104 178 -113l131 6l113 -8l80 -2l100 2l97 -14q31 -8 65 -8q32 0 51 8q65 27 92 27h5h2q78 -19 82 -19q65 6 65 100q0 21 -6 39q-15 35 -66 35h-112l-96 -4h-23q-49 0 -104 19q-12 6 -27 6q-21 0 -55 -15q-47 -18 -95 -18q-21 0 -72 13.5t-63 13.5h-6h-8
q-15 -3 -29 -3q-27 0 -53 11q-12 9 -12 22q0 7 4 19l51 51l45 76q24 33 98 82l84 53l125 49l78 27q26 12 81 53.5t103 66.5q67 34 91 58q75 75 116 268q8 36 8 72q0 77 -67 153l-76 84l-53 49q-119 82 -379 103l-127 -8l-139 -23q-25 -10 -90 -76q-14 -8 -44 -25t-43.5 -26
t-29 -27t-21.5 -40q-23 -61 -26 -119q0 -37 20 -70q17 -20 45 -29h6h9q25 0 47 19l53 82l59 53q54 66 80 72q79 18 146 49q20 10 45 10q46 0 108 -41q33 -23 86 -26q91 -6 127 -37l31 -95q22 -74 22 -98q0 -2 -2 -4v-6q-5 -22 -22 -45l-47 -41l-127 -127l-201 -78
q-55 -36 -86 -55l-82 -55l-82 -60l-86 -63q-19 -14 -61 -68l-53 -72q-28 -43 -37 -90z" />
    <glyph glyph-name="three" unicode="3" 
d="M190 291q0 -51 50 -92q67 -64 125 -127q30 -26 108 -47q119 -38 191 -35l139 8l160 45q78 10 102 23q35 18 80 57q51 45 67 74q26 46 45 133l23 90q6 27 6 47q0 33 -12 57q-31 66 -37 84l-14 86q-8 25 -41 41l-52 17q-12 6 -67 61l-131 78q-23 16 -23 45q0 15 2 25l23 81
q18 41 45 62l86 70q31 34 53 94l45 112v6q2 2 2 7q0 38 -53 53l-141 37q-12 4 -37 4q-3 0 -58 -3t-83 -3h-287q-65 12 -103 12q-18 0 -30 -4q-42 -12 -66 -47q-16 -29 -16 -51q0 -47 59 -91q12 -4 86 -4h47h76l127 -8l154 37q33 -9 49 -37q4 -12 4 -20q0 -35 -80 -127
l-119 -142l-86 -51q-41 -50 -41 -100q0 -26 8 -45q13 -31 138 -78q53 -18 129 -18q42 0 88 6q53 0 92 -39l57 -53q45 -42 45 -162q0 -32 -4 -60q-7 -38 -45 -82l-65 -75q-36 -51 -86 -60l-176 -10h-19q-8 -2 -18 -2q-128 0 -197 57q-100 78 -104 82l-131 45q-12 4 -25 4
q-44 0 -59 -43q-1 -4 -2 -9t-2 -8.5t-1 -6.5z" />
    <glyph glyph-name="four" unicode="4" 
d="M145 369q0 -59 74 -80q23 -8 121 -17l49 -2h2q19 0 84 5.5t84 5.5q16 0 66 -5.5t65 -5.5q14 0 59 5.5t58 5.5q21 0 45 -7q53 -21 53 -92q0 -15 -4 -51v-8v-8q0 -53 43 -90t100 -37q71 0 86 75l7 136q3 62 51 82l127 55q18 12 18 31q-3 11 -24 32l-66 62q-97 90 -108 129
q-31 105 -31 201q0 27 6 79q8 47 8 80q0 27 -6 45q-27 77 -27 129q16 99 13 127l-6 90q-3 68 -41 89q-47 18 -84 18q-33 0 -57.5 -14t-41.5 -54l-16 -41q-7 -16 -27 -32l-47 -41q-24 -24 -57 -80q-38 -61 -59 -82l-68 -84l-68 -68q-17 -14 -30 -51l-27 -47q-20 -26 -37 -35
l-51 -35q-26 -20 -39 -57q-30 -88 -72 -113l-34 -22q-34 -21 -50 -70l-36 -125q-5 -20 -5 -28zM426 489v13q9 35 59 82q72 69 76 75l68 86l63 74l60 82q30 41 45 78q26 79 51 108q12 9 24 9q9 0 13 -2q11 -9 22 -35q13 -38 21 -162q2 -23 2 -53q0 -35 -2 -45l-27 -82v-6
q-2 -2 -2 -6q0 -13 11.5 -61t11.5 -62q0 -55 -48 -86q-31 -17 -122 -17h-144q-23 0 -76 -18.5t-67 -18.5q-23 3 -35 21q-4 16 -4 26z" />
    <glyph glyph-name="five" unicode="5" 
d="M168 215q0 -23 16 -49q14 -11 82 -55l84 -52l99 -43q49 -22 98 -22l188 -4h96q41 0 84 12l76 39l127 47q20 14 27 39l6 29q5 17 29 34l51 19q22 13 22 55q0 7 -2 15v16q0 74 37 192q15 52 15 91q0 25 -9 40l-59 103l-64 72q-37 61 -49 86q-14 26 -53 26h-10h-8
q-51 0 -72 21q-49 43 -76 43l-98 4l-82 -8h-8h-10q-16 0 -66.5 7t-63.5 7t-57.5 -8t-58.5 -8q-13 0 -33 4q-23 13 -23 49q0 15 7 43l-7 155q3 33 37 54l68 39q14 14 33 14q13 0 22 -6q43 -25 55 -29h5q2 -2 6 -2q18 0 30 6l48 23q6 2 22 2q23 0 39 -8q88 -31 129 -31
q15 0 27 4q62 22 114 25q66 3 107 47q6 9 6 20q0 18 -27 39l-57 59q-15 15 -37 15q-12 0 -18 -2l-54 -21h-2h-4q-23 0 -90 25q-16 8 -43 8q-50 0 -110 -31q-25 -14 -60 -14q-1 0 -37 4l-88 16l-86 17q-10 2 -37 2q-142 0 -192 -195l-10 -313l-17 -113q-8 -31 -8 -71
q9 -54 53 -74q12 -4 29 -4q40 0 156 29h155l123 59q8 2 27 2q33 0 61 -14l105 -54q27 -15 73 -55q71 -62 86 -80q7 -14 7 -24q0 -9 -7 -23l-20 -31q0 -2 1.5 -18t3 -39t1.5 -41q3 -70 -53 -149q-22 -31 -90 -66q-98 -51 -103 -53q-17 -10 -37 -10q-25 0 -59 12l-172 45
l-113 10l-98 68q-19 8 -43 8q-14 0 -20 -2q-47 -15 -68 -55q-4 -16 -4 -23z" />
    <glyph glyph-name="six" unicode="6" 
d="M172 565l23 -131l36 -186q9 -52 56 -90l67 -43l90 -66q34 -24 97 -39l125 -28q38 -9 96 -9q45 0 102 11l123 28q94 22 121 41q125 77 170 164q49 88 49 236q0 74 -22 145l-78 113l-49 88q-22 28 -80 49l-219 80q-109 20 -148 20h-6h-4l-59 -26l-103 8q-18 3 -160 -74
q-9 -6 -16 -6t-10 6v4v6q0 19 2 29q39 136 39 152q0 88 22 116q19 21 90 66l90 55q72 44 113 47q34 0 57 -10l70 -27l133 -8l146 -29q27 3 43 19q8 13 8 41q-9 59 -51 90q-20 10 -39 10h-6q-2 -2 -9 -2l-28 -4q-34 0 -54 10l-67 35q-34 12 -62 12l-65 -2h-107
q-57 -9 -147 -55l-98 -51l-76 -78l-76 -88q-25 -44 -41 -119l-24 -114q-13 -60 -13 -173q0 -54 -18 -100q-33 -85 -33 -123zM373 516q0 80 57 146q38 44 88 67l109 33q41 8 82 8q45 0 86 -12q6 -2 43 -2h45q23 2 55 2q90 0 139 -135l39 -205q6 -35 6 -45q0 -71 -73 -111
l-138 -112l-98 -7q-61 -22 -100 -22q-48 0 -78 24l-107 91q-49 30 -79 73l-58 107q-18 52 -18 100z" />
    <glyph glyph-name="seven" unicode="7" 
d="M147 1348q0 -21 19 -43q57 -60 192 -60q14 0 61 4t60 4q27 0 80 -6t82 -6q7 0 53 4q58 4 60 4l102 4q44 3 84 -6q42 -16 39 -57q-3 -60 -41 -109l-55 -73l-45 -90l-84 -82l-35 -140l-76 -92l-70 -158q-76 -94 -86 -120l-43 -115q-14 -31 -47 -57q-39 -30 -50 -46.5
t-11 -35.5q0 -14 10 -37q45 -61 119 -58q69 3 125 50l80 133q50 62 53 86q6 61 14 82q7 13 29 32l55 37q30 21 45 68q27 82 52 110l90 101l75 180l74 123l66 131q22 55 41 74l71 69q11 18 11 31q0 21 -17 41l-51 57q-43 49 -82 58l-182 6q-47 6 -94 6q-62 0 -109 -8h-268
l-107 6l-84 2q-63 0 -112 -14q-93 -27 -93 -90z" />
    <glyph glyph-name="eight" unicode="8" 
d="M193 461q0 -43 8 -90q12 -106 14 -109q27 -55 72 -100l73 -70q48 -37 111 -55l172 -53q70 -13 121 -13q70 0 141 23l123 53q85 27 117 59l96 117q27 44 27 119q0 15 -2 25v22l-2 103q0 51 -31 108l-62 78q-67 85 -67 117q0 30 55 106t55 133q0 34 -14 86l-39 156
q-20 58 -90 100q-139 80 -252 80q-55 0 -123 -22l-278 -35q-137 -82 -172 -195q-15 -46 -15 -104q0 -63 19 -125q10 -33 55 -84q43 -49 53 -90q0 -37 -24 -64l-58 -45q-29 -29 -67 -125q-16 -46 -16 -106zM365 432q0 30 45 90q53 70 63 94q16 31 64 37q14 1 41 2t40 2
q36 9 64 17q45 10 63 10q7 0 35 -4l84 -14q29 -5 78.5 -39t56.5 -37q84 -27 84 -141q0 -138 -151 -271q-72 -63 -107 -63q-15 0 -30 6l-54 31q-12 6 -30 6q-7 0 -27 -4l-43 -17h-6h-8q-31 0 -60 19l-110 67q-40 37 -54 82zM391 1102q0 18 10 41l84 106q49 64 148 70l227 16
l105 -78q43 -22 59 -38q19 -19 29 -56v-6q0 -8 2 -12q0 -29 -8 -84q-15 -117 -37 -146l-197 -69q-19 -8 -43 -8q-55 0 -115 32l-170 31q-31 13 -55 94l-35 82q-4 12 -4 25z" />
    <glyph glyph-name="nine" unicode="9" 
d="M139 1030l25 -115q6 -89 12 -104q13 -30 76 -96l63 -82q52 -70 201 -105q47 -9 223 -12q97 0 127 10l52 19l47 8l39 4l22 8q7 1 36 19t34 18l2 -2h2q18 -18 18 -98q0 -55 -14 -96l-60 -74l-59 -96q-18 -15 -43 -15h-20q-24 -3 -39 -16l-62 -66q-18 -12 -43 -12
q-16 0 -22 2l-99 39l-96 -23q-17 0 -131 60q-21 12 -45 12q-22 0 -43 -12q-38 -21 -47 -60v-6q-2 -2 -2 -6q0 -23 16 -49q25 -32 80 -51l121 -39l270 4q99 3 172 51l127 62q35 15 78 73q62 80 80 142l23 166l45 149q2 8 2 29q0 18 -10.5 80t-10.5 79q0 12 4 50.5t4 46.5
q0 45 -22 100l-39 135q-10 45 -41 88l-55 70q-20 20 -99 65l-88 76q-29 26 -73 23l-117 -4h-10h-11q-74 0 -141 -31q-2 -2 -41 -8l-133 -21q-34 -6 -66 -35l-43 -57l-88 -76q-28 -28 -69 -118q-19 -49 -19 -84v-9v-10zM334 1008q0 63 35 104q49 64 51 64l20 65q10 10 172 53
l82 29h11h12q26 0 61 -6l86 -19q81 -15 117 -43q34 -47 57 -92l54 -102q16 -37 16 -78q0 -6 -2 -10v-10q-17 -147 -96 -193l-70 -41l-51 -18l-105 -13q-50 -4 -65 -4q-23 0 -51 4l-172 39q-37 8 -74 45l-31 43l-41 90q-16 56 -16 93z" />
    <glyph glyph-name="colon" unicode=":" 
d="M479 188q0 -34 25 -73q83 -121 170 -121q65 0 135 49q76 54 84 109v8v6q0 54 -39 102l-61 56l-64 51q-13 8 -35 8q-39 0 -88 -37q-92 -71 -110 -98q-17 -31 -17 -60zM504 815q18 -130 119 -170q30 -12 67 -12q69 0 123.5 52.5t54.5 119.5q0 34 -12 61q-52 122 -176 119
q-74 -3 -121 -39q-55 -43 -55 -110v-11v-10z" />
    <glyph glyph-name="semicolon" unicode=";" 
d="M455 137l2 -6v-6q9 -51 51 -96l67 -52q42 -33 52 -75v-6q0 -41 -33 -64q-76 -62 -80 -65q-12 -18 -12 -41q0 -15 2 -21q21 -61 102 -61q52 0 98.5 26t75.5 82l27 68l33 98l24 191q0 104 -137 198q-38 23 -63 23q-55 0 -166 -105q-43 -40 -43 -88zM479 766
q15 -127 119 -168q32 -14 68 -14q69 0 122.5 53t53.5 121q0 28 -11 61q-23 54 -72 87t-104 32q-75 -3 -120 -39q-56 -44 -56 -111v-10v-12z" />
    <glyph glyph-name="less" unicode="&#x3c;" 
d="M195 455l1040 -471v139l-870 395l870 395v140l-1040 -471v-127z" />
    <glyph glyph-name="equal" unicode="=" 
d="M166 901q0 -28 18 -55q38 -47 95 -62l135 -20q52 -8 80 -8q66 0 124 24q12 4 27 4q35 0 78 -14h6h10q36 0 115 31q12 6 29 6q18 0 45 -12q26 -11 43 -17l98 23l182 24q27 9 31 27q0 15 -20 35l-78 84q-23 26 -56 26q-6 0 -18 -4l-78 -24l-98 32q-17 0 -72 -13t-71 -13
q-15 0 -33 2l-60 8l-102 6l-190 -4q-108 31 -121 31q-63 -20 -107 -80q-12 -15 -12 -37zM207 502q0 -31 12 -58q35 -74 187 -71l313 4l133 6h43q16 0 75 8t77 8t26 -2l41 -8q41 0 66 14q56 36 102 82q10 10 10 23q0 6 -2 8q-12 12 -35 25l-120 45l-97 24q-46 6 -82 6h-20
q-6 -2 -16 -2l-107 -10l-125 4l-96 -2l-113 15l-102 -7q-86 -3 -121 -18q-38 -24 -47 -70q0 -6 -2 -12v-12z" />
    <glyph glyph-name="greater" unicode="&#x3e;" 
d="M248 25l1040 471v127l-1040 471v-140l870 -395l-870 -395v-139z" />
    <glyph glyph-name="question" unicode="?" 
d="M164 1145q0 -37 29.5 -70t64.5 -33q23 0 47 15l76 55l104 107l203 43q30 10 55 10q21 0 37 -8l62 -23l86 -12q56 -23 92 -96q14 -25 14 -86q1 -50 -2.5 -74.5t-13 -35t-29.5 -13.5l-49 -2q-26 -11 -39 -29l-31 -55q-9 -9 -20 -9q-8 0 -36.5 8.5t-29.5 8.5q-28 -3 -49 -27
l-47 -69l-61 -68q-34 -52 -43 -100q0 -35 37 -72q83 -86 114 -86q24 0 45 27q38 102 41 112q16 45 56 72l96 53l119 84q34 27 96 141q36 67 39 101l2 69q3 34 -8 74q-41 141 -134 205l-90 61q-45 32 -94 41q-6 0 -12 2h-17q-16 0 -64.5 -8t-61.5 -8q-16 0 -66 10t-66 10
q-34 0 -77 -14l-107 -39l-113 -67q-46 -28 -73 -58l-62 -88q-20 -26 -20 -59zM522 123q0 -68 142 -148q24 -12 49 -12q33 0 57 21q59 48 100 125q15 24 15 53q0 34 -23 67q-55 68 -133 82h-10h-10q-57 0 -113 -53q-55 -55 -72 -111q-2 -8 -2 -24z" />
    <glyph glyph-name="at" unicode="@" 
d="M90 741q0 -322 193 -546q101 -117 201 -167.5t235 -50.5q210 0 352 91q134 87 172 122l-65 78q-118 -75 -183 -110q-117 -60 -233 -60q-248 0 -402 195q-143 180 -143 436q0 253 135 440q151 207 396 207q223 0 354 -149q133 -148 133 -373q0 -135 -68 -274
q-76 -162 -180 -162q-37 0 -37 57q0 32 31 162l127 498h-121l-35 -125q-62 157 -200 157q-187 0 -303 -192q-99 -163 -99 -365q0 -125 64 -219q72 -106 192 -106q111 0 213 129q0 -57 29 -93t82 -36q181 0 307 211q111 182 111 374q0 262 -170 447q-169 184 -430 184
q-292 0 -482 -239q-176 -226 -176 -521zM494 627q0 131 65 252q76 143 197 143q66 0 106 -64q37 -55 37 -122q0 -122 -68 -252q-81 -152 -192 -152q-73 0 -113 64q-32 49 -32 131z" />
    <glyph glyph-name="A" unicode="A" 
d="M72 72q0 -16 6 -25q34 -52 78 -72q6 -2 20 -2q27 0 51 17l78 67q55 49 68 84q53 144 63 158q39 51 129 51q9 0 13 -2h10l213 8q10 0 18 -2h17q16 0 70 10.5t71 10.5q58 0 98 -43l53 -90l54 -133q42 -105 127 -144q12 -4 20 -4q9 0 21 4q11 18 16 39q0 8 2 14v17
q0 44 -8 104q-6 46 -78 133l-45 207l-66 107l-26 127l-60 100l-30 113l-64 104q-7 39 -14.5 81t-10 57.5t-3.5 17.5l-84 94q-6 20 -18 55t-15 47q-19 25 -41 25h-6q-2 -2 -6 -2q-23 -10 -50 -37l-112 -125q-38 -45 -47 -100q-15 -107 -60 -152q-72 -78 -84 -108l-41 -117
l-32 -86q-19 -53 -45 -90q-63 -84 -68 -103q-26 -120 -45 -139q-69 -72 -74 -88q-30 -128 -45 -143q-18 -24 -18 -45zM532 608q0 10 3 19l43 110l40 97l54 86q26 44 41 98q27 89 49 117q18 18 49 18q28 -6 43 -37l41 -229q75 -75 78 -125l20 -100q0 -5 2 -7v-8
q0 -83 -137 -104l-3 1q-3 0 -8.5 0.5t-13.5 1.5t-18 2t-20.5 2t-23 2t-23.5 1l-177 6q-39 12 -39 49z" />
    <glyph glyph-name="B" unicode="B" 
d="M168 670q18 -92 18 -140v-14q-2 -6 -2 -10q-4 -58 -4 -72q0 -17 6.5 -72.5t6.5 -70.5q0 -27 -9 -86q-8 -49 -8 -84q0 -104 80 -125q80 -23 141 -23q9 0 13 2l569 23q139 24 166 65l39 60l86 80q10 23 22 182q6 79 6 96q0 9 -2 13v6q-15 69 -71 110q-56 44 -56 90v13
q0 79 35 139q60 105 60 166v12q-2 4 -2 10q-41 211 -144 271l-153 71q-57 45 -84 45q-9 0 -25 -4l-37 -18q-7 0 -98 31l-180 -35l-115 33l-115 -4q-44 -3 -69 -35l-54 -103q-14 -25 -14 -65q0 -9 4 -37l2 -193l13 -141zM338 184v103l6 131q6 132 22 175.5t60 43.5
q15 0 61 -16q30 -5 115 -5l189 2h73q115 0 121 -2q54 -17 90 -77l53 -101q15 -24 15 -57q0 -79 -76 -158q-63 -69 -166 -69q-9 0 -43 5t-43 5q-32 0 -55 -10q-52 -21 -98 -21q-34 0 -80 14q-53 17 -70 17q-22 0 -37 -6q-58 -25 -94 -25q-37 9 -43 51zM371 866l14 160l-2 102
l4 117q3 23 12 29q4 0 49.5 -11.5t65.5 -11.5q34 0 78 13h127l84 20q38 0 61 -20l72 -78l100 -53q25 -42 25 -93q0 -44 -23 -108q-14 -37 -58.5 -71t-82.5 -34q-28 4 -35 4q-28 0 -41 -10l-55 -45q-12 -6 -27 -6q-14 0 -32 6q-71 35 -106 35h-5l-100 -4l-80 6q-39 9 -45 53z
" />
    <glyph glyph-name="C" unicode="C" 
d="M139 698q0 -2 6 -90l9 -155l59 -144q26 -62 51 -98l82 -80l100 -76q72 -37 168 -51l138 -12l137 12l100 19l70 16q25 11 67 47l84 80q97 91 97 231l-2 9v6q-6 43 -45 57q-16 4 -27 4q-23 0 -43 -10q-16 -8 -70 -74l-88 -88l-84 -65l-88 -52q-29 -16 -65 -16h-11h-8
l-117 39h-81q-62 19 -103 69q-23 30 -47 103l-37 102l-18 111l-17 158l19 127l28 235q21 52 132 141q83 65 135 68l73 -8l72 16q63 0 152 -59l57 -37l29 -19q29 -16 49 -55l41 -72q34 -34 71 -34q23 0 52 16q41 38 41 86q0 53 -35 100l-111 152q-52 55 -174 70l-135 16
q-41 6 -66 6q-60 0 -122 -16l-154 -29l-123 -70q-73 -27 -86 -43l-65 -114q-34 -54 -43 -105l-37 -153l-9 -140q-8 -96 -8 -131z" />
    <glyph glyph-name="D" unicode="D" 
d="M164 223q2 -8 2 -18q9 -61 39 -107q59 -92 166 -92q15 0 55 4q31 0 149 -14q71 -6 156 -6q149 0 219 30q180 76 205 97q59 62 94 162l31 141l31 98l32 115q3 15 3 31q0 2 -1.5 12t-5 36t-6.5 50l-20 158l-8 118l-19 144q-8 43 -57 92l-66 61q-86 80 -184 103l-315 10
l-142 10l-166 -6q-91 -3 -118 -33q-30 -30 -45 -125q-7 -44 -7 -86v-10v-12l4 -94l-8 -129l-10 -478l-6 -190q-2 -23 -2 -49v-23zM352 414q0 54 15 125l14 114q0 15 2 23v20q0 17 -10.5 78.5t-10.5 79.5v6v4l29 111l-24 112v82q-1 12 -1 23q0 47 11 70q15 41 74 47l262 -2
q20 4 35 4q40 0 137 -23t137 -41q30 -20 51 -102q30 -106 37 -125q12 -53 16 -107l17 -170l-8 -114q-9 -114 -15 -129q-26 -65 -26 -86q-3 -49 -9 -64q-9 -27 -36 -39l-39 -16l-60 -29l-106 -26l-88 -45h-6q-6 -2 -13 -2q-26 0 -121 10q-16 0 -66 -5t-63 -5q-32 0 -59 10
q-42 22 -57 73z" />
    <glyph glyph-name="E" unicode="E" 
d="M236 264l16 -172q9 -50 70 -72q64 -18 121 -18h16l104 4l256 -2l215 -22q157 9 187 24q43 34 43 94q-15 101 -121 101q-23 0 -76 -15q-53 -12 -80 -12q-28 0 -43 6q-62 21 -121 21q-37 0 -108 -15q-71 -12 -107 -12q-137 0 -164 90l-22 98q-4 20 -4 39q0 9 6 58l20 176
q3 39 43 39h78l90 -10h45h33q19 1 35 1q42 0 61 -6q64 -22 86 -22q5 0 7 2l102 27l92 6q57 21 82 65q6 9 6 23q0 23 -24 41l-103 57h-2q-4 2 -10 2q-35 0 -109 -14h-266h-20q-10 -2 -19 -2q-28 0 -86 10q-55 10 -69 10h-9h-8l-33 -6q-32 0 -38 43l2 121l-9 86v22
q0 64 27 105q13 16 31 16q10 0 14 -2l25 -10h6q20 0 35 18l39 39q16 13 45 13q4 0 24 -4l172 -25q20 -4 47 -4q12 0 48 4t44 4q26 0 54 -11t46 -21.5t19 -10.5q9 1 20.5 17t27.5 28.5t38 9.5q10 0 19 -0.5t15.5 -1t12.5 -1t10 -0.5t6.5 -0.5t3.5 -0.5h1q28 9 39 35q2 8 2 23
q0 31 -20 53t-78 47q-27 12 -82 12q-12 0 -62 -4l-108 4l-174 4q-32 0 -64 -14q-38 -15 -59 -20q-32 0 -45 8l-54 37q-12 6 -24 6q-18 0 -35 -10q-86 -47 -102 -50q-75 -6 -93 -69q-6 -24 -6 -133l-20 -131l14 -185q-12 -37 -12 -69q0 -18 14 -76t14 -76q0 -45 -16 -111
q-8 -27 -8 -69q0 -21 2 -41v-14v-17q0 -20 -9 -79.5t-9 -76.5v-12z" />
    <glyph glyph-name="F" unicode="F" 
d="M223 352l4 -127l-2 -41v-2q0 -57 8 -84q29 -118 150 -118h10h10q84 21 84 180q0 24 -4 78l6 194q-6 58 -6 103q0 61 17 88q17 32 78 32q16 0 70 -10t71 -10q37 0 86 6l188 -6h10q112 0 193 63q25 22 25 52q0 12 -2 18q-15 41 -56 68q-9 6 -37 6q-56 0 -188 -27l-86 33
l-188 8q-38 10 -62 10q-7 0 -31.5 -4t-31.5 -4q-19 0 -37 6q-30 17 -39 54v6v8q0 26 16 82q17 62 19 82l-6 127q6 37 43 49l77 6l88 -4h10q44 0 121 22q23 0 78 -12l201 -8q43 -21 72 -21q17 0 32 11q74 68 74 127q0 47 -67 71q-56 17 -109 17h-12l-197 -23q-143 10 -194 10
q-46 0 -66 -4q-41 -14 -74 -14q-12 0 -56 8t-60 8q-25 0 -33 -2l-68 -12l-30 -8q-45 -15 -58 -64l-16 -174q-6 -79 -6 -84q0 -16 6 -68t6 -67q0 -17 -8 -73t-8 -72v-13v-10q10 -78 10 -108q0 -27 -2 -33q-16 -70 -19 -156z" />
    <glyph glyph-name="G" unicode="G" 
d="M154 805l6 -197l8 -133q6 -96 37 -156l110 -167q30 -37 76 -58l107 -49q115 -68 209 -68q51 0 122 11l127 24l127 25q34 15 74 90l74 90q23 38 26 68l3 39q4 28 26 90q25 64 25 127v7q0 53 -45 79q-64 30 -136 30l-104 -12q-54 3 -145 33q-20 4 -29 4q-23 0 -39 -16
q-28 -31 -37 -62v-2v-6q0 -26 29 -49q60 -31 137 -31h8h11l92 6q42 -9 45 -55q0 -65 -23 -119q-6 -16 -67 -59q-62 -44 -88 -86q-20 -33 -74 -33q-6 0 -8 2h-9l-262 14q-120 20 -155 86l-29 80l-49 107q-17 49 -17 114q0 11 2 19v20l-10 138l21 149l6 74q9 101 35 137
l106 94q70 60 137 66l172 26q62 -3 175 -45q46 -18 83 -67l68 -115q27 -37 59 -43q35 0 57.5 28.5t22.5 65.5q0 42 -28 90l-74 101q-33 45 -84 65l-117 49l-219 7q-17 0 -56.5 3t-45.5 3q-29 0 -35 -2l-152 -47q-72 -15 -106 -52l-43 -67l-94 -111l-21 -207z" />
    <glyph glyph-name="H" unicode="H" 
d="M164 449q0 -40 8 -95q10 -68 10 -92q0 -16 -6 -66t-6 -63q0 -103 70 -143q30 -10 51 -10q26 0 45 8q33 17 45 59l-12 199v190v58q0 33 4 61q13 36 51 59q24 9 55 9q12 0 56.5 -7.5t56.5 -7.5q9 0 29 4l69 19h2l4 2q10 0 90 -17q6 -2 33 -2q37 0 105 9q6 0 10 2h12
q80 0 121 -68q9 -108 12 -203l6 -108l-16 -137q0 -7 -2 -9v-10q0 -84 147 -84q44 10 58 51q12 38 12 142l-18 100q-6 30 -6 61q0 12 4 58.5t4 60.5q0 13 -4 61t-4 62q0 89 14 195l-10 227v82l-7 94q-6 100 -40 152q-20 26 -46 26q-16 0 -38 -16q-46 -43 -52 -102l27 -101
q0 -2 -3 -18t-10.5 -55.5t-15.5 -81.5l-16 -89q-35 -80 -80 -92q-9 0 -45 8q-23 0 -43 -10l-59 -35q-16 -4 -23 -4q-18 0 -39 9l-84 47q-2 0 -119 -19l-143 -6q-46 3 -59 64l-7 155l-4 113q-6 225 -77 252q-6 2 -17 2q-29 0 -53 -35q-23 -40 -23 -115v-18l2 -113v-190
q9 -58 9 -97q0 -20 -2 -30l-21 -125l-6 -131q0 -4 -0.5 -10t-1.5 -17.5t-2 -21.5q-2 -18 -2 -47z" />
    <glyph glyph-name="I" unicode="I" 
d="M231 139q0 -14 2 -20q15 -49 35 -82q19 -22 74 -31l94 -12h6h9q39 0 112 12q28 4 55 4q58 0 121 -8l152 8q220 9 239 15q48 30 66 59q4 16 4 22q0 25 -18 46q-43 40 -97 49q-23 0 -108 -21q-10 -2 -35 -2q-46 0 -90 29q-16 16 -16 29q0 11 6.5 18t46.5 37q8 5 8 14
q-6 3 -21.5 7.5t-19.5 7.5t-12 10t-10 19.5t-3 31.5l-4 137l-8 109l-16 139q0 35 22 63l23 29q6 15 6 33q0 14 -2 20l-31 76q0 19 27 107l-19 149q0 64 76 70q262 21 269 26q22 31 22 62q0 14 -2 20q-12 39 -57 39l-74 -12q-26 0 -92 29q-19 8 -47 8q-36 0 -80 -21
q-42 12 -68 17l-104 -15l-88 19l-164 -15q-46 15 -76 15q-28 0 -43 -12q-49 -46 -49 -101q0 -27 12 -51q34 -49 80 -49l125 22q63 -12 135 -47q35 -15 35 -96q0 -11 -4 -57l-4 -256l-6 -119v-19v-18q0 -56 12 -117q2 -6 2 -24q0 -43 -14 -109v-6v-8q0 -43 20 -137v-7
q0 -2 2 -4q0 -32 -43 -41l-127 2q-21 0 -94 -20l-127 -31q-25 -16 -25 -41z" />
    <glyph glyph-name="J" unicode="J" 
d="M127 410q0 -13 4 -33l29 -86q31 -86 67 -119l123 -115q29 -19 127 -43l123 -34l207 10l139 47l197 47l37 63l61 52l47 180q19 71 23 119l10 229l-4 199l-6 186v6q2 6 2 12q0 49 -2 82q-6 106 -8 113q-9 66 -54 94q-36 19 -65 19q-17 0 -63.5 -16.5t-61.5 -16.5
q-17 0 -29 6q-71 39 -106 39q-8 -2 -27 -2q-46 0 -119 25l-149 -23q-38 0 -68 10q-81 23 -121 23q-14 0 -34 -4q-43 -8 -83.5 -37.5t-50.5 -63.5q-4 -28 -4 -37q0 -69 62 -81h110q35 -5 47 -5q1 0 68 5l86 2l117 14l110 -14l158 28q80 -9 98 -98l23 -301l2 -236l20 -137v-10
q2 -4 2 -10q0 -36 -24 -66q-43 -55 -49 -98v-60q-3 -37 -35 -47q-7 -3 -65 -11.5t-91 -22.5q-63 -29 -116 -29l-115 14q-122 3 -166 29q-86 57 -109 102l-28 146q-8 44 -74 53q-46 4 -68 4h-14h-10q-37 -7 -58.5 -35.5t-21.5 -66.5z" />
    <glyph glyph-name="K" unicode="K" 
d="M172 109q3 -41 29 -74q57 -51 114 -51q41 0 68 41q28 61 31 145l-15 111q-2 12 -2 43q0 59 13 176q9 88 59 88q25 0 84 -47q76 -61 86 -68q69 -48 86 -61l72 -58q70 -58 84 -75q46 -64 73 -82l164 -91l103 -96q53 -32 86 -35q39 0 63 37q14 25 14 60q0 10 -4 34
q-12 38 -61 56l-39 22q-10 6 -27 23l-34 63q-20 39 -58 60l-84 53l-143 123q-14 7 -40 18.5t-38.5 18t-31 18t-32.5 26t-28 34.5q-30 46 -64 65q-90 44 -90 80q0 40 82 82q104 90 139 127l82 65q18 16 93 54q59 27 81 49l72 71l82 66q48 48 51 96q-3 35 -30 56
q-21 12 -43 12h-7h-6q-29 -7 -47 -27l-33 -31q-23 -23 -49 -34l-67 -29q-18 -11 -70 -63q-10 -10 -90 -54q-25 -14 -47 -39q-47 -53 -68 -65q-47 -17 -57 -37q-24 -53 -53 -72l-168 -84q-12 -4 -19 -4q-8 0 -10 2q-11 11 -14 25v6q-2 4 -2 10q0 3 6 72l2 70l16 71
q0 22 -10 49q-24 64 -27 93q-3 66 -34 94q-39 26 -80 26q-17 0 -35 -6q-41 -15 -47 -61q0 -12 7 -55t7 -56q0 -30 -8 -57q-29 -95 -29 -139l15 -111q-7 -96 -7 -115q0 -8 2 -10v-4q17 -87 17 -117q-10 -62 -10 -106q0 -46 8 -82q0 -18 -25 -137q0 -12 10 -117q0 -39 -2 -49z
" />
    <glyph glyph-name="L" unicode="L" 
d="M229 274q0 -97 13 -151q23 -80 92 -115q53 -23 149 -26l160 -2q22 0 145 30q24 8 60 8q6 0 12 -2h10l95 -12l129 14l180 5q27 9 33 24q0 48 -49 84.5t-134 36.5q-54 0 -106 -8h-8q-8 -2 -21 -2q-2 0 -10.5 0.5t-24.5 1.5l-32 2q-45 5 -79 5q-15 0 -28 -1l-258 -2
q-50 6 -59 69l-31 111q-2 6 -2 27q0 12 4 78q0 13 -7 60t-7 60q0 33 8 80q10 58 10 82q0 1 -0.5 6.5t-1.5 17t-2 25.5l-10 117l-4 123l14 127l-27 223q-18 85 -92 88h-6q-42 0 -80 -37q-25 -28 -28 -114l-7 -205l17 -96q8 -49 8 -88v-15v-10l-23 -148l5 -198q6 -38 6 -76
q0 -31 -6 -96q-7 -75 -7 -101z" />
    <glyph glyph-name="M" unicode="M" 
d="M90 612q0 -30 12 -92q15 -62 15 -94v-12v-11l-23 -122l2 -125q0 -94 64 -164q26 -23 76 -23q56 9 100 25q31 14 31 55v8l-7 119q-3 35 -20 90q-4 20 -4 27q0 41 33 80q9 12 12 18q0 3 -10 10q-25 16 -31 41l-4 228q6 59 6 86v12v6q-10 55 -10 84q9 42 55 45q52 -3 86 -57
q10 -18 53 -96l60 -78q34 -68 47 -80q48 -42 100 -45q42 3 82 35l66 63q24 35 30 64l17 88q16 29 39 49l59 39q28 25 31 57l10 78q9 22 33 22q6 0 22 -4q26 -15 41 -41q2 -6 2 -30q0 -25 -6 -78l15 -217q-15 -59 -15 -94q0 -8 4 -39.5t4 -40.5q0 -12 -7 -51t-7 -50
q0 -17 10.5 -75t10.5 -76q0 -17 -7.5 -73t-7.5 -71v-12v-10q9 -45 35 -78q17 -14 39 -14q18 0 31 8q42 23 73 65q2 4 2 17q0 26 -12 88q0 6 -2 8v12q0 43 18 131q7 25 7 52q0 22 -4 34l-25 109v10v13q0 31 12 86q13 63 13 88t-13 82q-12 52 -12 81v181l20 121q0 78 -26 129
q-12 29 -62 75q-45 45 -75 54h-7q-2 2 -4 2q-27 0 -43 -29l-34 -84q-13 -19 -46 -35l-32 -14q-19 -14 -33 -41l-23 -88q-7 -15 -44 -53t-56 -72q-31 -54 -49 -72l-68 -57q-11 -10 -20 -10q-9 9 -17 34q-36 98 -65 111q-43 9 -53 25l-47 112q-7 19 -18.5 45t-14.5 33l-64 80
l-61 72q-58 67 -92 67q-31 0 -51 -20l-72 -62q-40 -34 -49 -78l-11 -131l9 -125l-9 -299l-8 -71q-6 -52 -6 -60zM328 1022q3 20 14 27q11 -5 14 -27q-3 -22 -14 -27q-11 7 -14 27z" />
    <glyph glyph-name="N" unicode="N" 
d="M195 174v-17q0 -102 34 -130q50 -44 99 -56h8h4q84 0 84 230v22q-1 9 -1.5 19.5t-0.5 7.5l-35 297v12q-2 4 -2 12q0 34 10 86l19 148l-4 117q-2 10 -2 32q0 47 14 72q11 14 20 14h2q12 -12 15 -28l24 -101q7 -12 54 -53l6 -6q37 -30 55 -100q11 -29 53 -82q77 -93 82 -97
q53 -41 64 -73q13 -47 57 -113q41 -58 51 -88l19 -63q18 -32 24 -39l45 -45l56 -105q37 -43 96 -43q26 0 47 6q84 21 90 121l-33 197l21 135l-2 133v115l4 114l-6 107l4 137l-2 184v13q2 4 2 12q0 93 -47 143q-17 17 -37 17h-2h-2q-22 -9 -37 -37q-27 -53 -27 -117v-10v-10
q10 -105 10 -123q-12 -91 -12 -135v-11v-6q4 -40 4 -55q0 -33 -8 -57l-16 -72q0 -38 8 -62q22 -74 22 -135l23 -147q8 -41 8 -88q0 -77 -33 -86q-24 3 -43 20q-45 39 -45 125q0 60 -32 92l-60 47q-23 23 -43 88q-53 104 -57 111l-45 90l-76 94l-66 146l-135 143
q-24 65 -33 94q-31 84 -108 84q-39 0 -82 -24q-71 -41 -74 -111l8 -135q-20 -111 -20 -172v-18q2 -8 2 -17q0 -33 -8 -80t-8 -80q0 -32 6 -59q6 -18 6 -51q0 -56 -12 -150z" />
    <glyph glyph-name="O" unicode="O" 
d="M100 801l2 -301q0 -88 76 -201l51 -76l66 -73l51 -60q38 -27 86 -43q134 -44 172 -47l115 6l88 -8q57 0 121 25l149 59q92 48 133 135l58 195l45 120l26 144q4 28 4 59q0 33 -6 68l-30 119l-27 102q-15 104 -27 133l-65 98l-37 76q-20 34 -68 49q-131 50 -165 52
q-88 6 -109 12l-29 10q-40 13 -149 16l-225 -71q-51 -9 -78 -47l-88 -78q-24 -24 -35 -51l-17 -74l-45 -98q-26 -61 -32 -129zM348 1044q0 5 2 9v4q9 26 31 45l39 24q28 15 31 52l2 45q6 23 36 32l76 13q88 18 99 18l176 -16q56 16 84 16q24 0 41 -10q34 -31 59 -96
q10 -23 29 -23q2 0 4 2h6q6 2 20 2q11 0 17 -2q27 -9 33 -47q6 -36 41 -131q30 -83 30 -127v-14v-17l-10 -194q-41 -56 -41 -86q0 -9 2 -13l33 -69q0 -15 -51 -78l-82 -145l-103 -52q-63 -39 -122 -39h-9q-11 2 -98 21l-111 27q-137 35 -166 135l-28 94l-58 74q-4 12 -4 18
q0 15 13 25l32 22q9 6 9 15q0 7 -11 22q-10 13 -17 22t-11.5 16t-7.5 10.5t-4 8t-1 5.5v5v5q0 14 9 35l14 34q2 6 2 31l-18 68l-7 86q-3 31 -6 73q-1 9 -2 20l-1.5 16.5t-0.5 8.5z" />
    <glyph glyph-name="P" unicode="P" 
d="M207 131q0 -50 43 -102q45 -54 92 -54q4 0 6 2h6q62 16 62 123q0 32 -8 84l-15 125q-6 41 -6 84q0 186 107 207h6h10q29 0 162 -10q1 1 96 20h6h12q38 0 101 -8q42 0 74 19l83 51q56 24 74 45l80 88q84 93 84 199q0 39 -10 69l-45 111q-25 61 -45 90q-79 107 -328 110
q-36 0 -154 31q-40 12 -84 12q-59 0 -127 -22q-38 -10 -63 -10q-12 0 -53 9t-54 9h-8q-4 -2 -8 -2q-88 -20 -88 -201v-12l4 -803q14 -88 14 -143q0 -30 -6 -45l-16 -41q-4 -24 -4 -35zM371 1085q0 18 24 27l74 16q11 3 14 9q0 7 -12 16q-43 40 -55 61q-2 4 -2 11q0 15 20 24
l62 13q120 24 194 24l123 19q21 0 68 -13q55 -16 71 -18q98 -15 125 -74l49 -110q29 -50 29 -84q0 -24 -16 -50l-74 -86q-16 -43 -29 -69q-20 -45 -53 -45q-6 0 -18 4l-33 14q-20 4 -31 4q-14 0 -22 -2q-106 -28 -117 -28l-90 12q-31 0 -99 -10h-10q-4 -2 -10 -2
q-35 0 -70 12q-100 34 -100 96q0 13 4 25l25 86q0 29 -6 47l-33 57q-2 4 -2 14z" />
    <glyph glyph-name="Q" unicode="Q" 
d="M141 842q0 -12 11 -76q12 -50 12 -76q-14 -126 -14 -190q0 -25 2 -29l57 -178q37 -113 53 -139q20 -33 74 -84l74 -56q38 -16 67 -24q69 -16 88 -27q43 -22 60 -67l16 -54l23 -59q52 -98 124 -107l103 -6q72 -10 98 -10q6 0 10 2h9l188 2q72 3 72 74q0 21 -11 47
q-19 25 -53 25l-51 -7q-26 3 -35 31l-26 -24q-2 6 -7 16h-2q-3 0 -9 -12.5t-11 -12.5q-33 3 -33 19q0 7 6 16q-5 -8 -20 -8q-19 0 -47 14q-20 10 -99 13q-28 3 -28 41q12 73 61 88q2 0 6.5 -1t14 -2.5t18.5 -3.5q8 0 45 15l115 49q14 6 59 72q50 74 70 94q25 25 45 106
q33 121 33 129q6 12 6 37q0 29 -6 72l6 149v136l-47 143l-15 86q-8 41 -41 100q-46 52 -73 76l-74 64q-85 76 -188 94q-16 0 -23.5 -3.5t-8.5 -7t-1 -12.5q0 -4 2 -6v-6q12 -96 69 -111q106 -26 117 -34q25 -18 60 -78l65 -88q19 -29 19 -90v-117l8 -111l-2 -135l-15 -111
q-9 -83 -41 -120q-61 -73 -65 -84l-37 -105q-7 -11 -74 -14l-82 -49q-8 -2 -22 -2q-7 0 -27 4l-53 26l-111 -16q-81 0 -188 55q-79 42 -100 117l-31 102q-37 91 -39 107v8v10q0 54 27 148q18 62 18 115l-14 122q0 7 -2 11v10q0 28 22 80l49 114q14 31 52 48l69 32l70 41
q24 10 104 19q64 7 87.5 30t23.5 58q-9 39 -47 47q-10 -1 -34 -2t-36 -2h-31l-98 20q-31 -6 -98 -76q-23 -23 -74 -32q-88 -12 -115 -68l-45 -113q-46 -73 -55 -112l-20 -113q-9 -35 -9 -63z" />
    <glyph glyph-name="R" unicode="R" 
d="M195 231l4 -86l12 -86q8 -29 33 -51q36 -22 78 -22q44 9 47 53l12 106l-12 131v66q0 159 16 231q9 26 113 41q6 0 12 2h14q72 0 119 -30l68 -43q68 -44 77 -84q27 -107 37 -121l144 -160q36 -52 86 -125q53 -71 123 -71q88 0 88 86q0 47 -41 88q-41 40 -105 135l-84 125
l-32 67q-17 46 -17 80q6 46 47 55l51 7q34 10 50 41l43 110l84 92q26 39 26 99q0 49 -14 104q-27 109 -47 129l-166 152q-53 47 -119 47h-6h-6q-75 -10 -103 -10l-71 18q-12 4 -35 4l-78 -4l-215 -8l-96 -29l-45 -4q-38 -9 -47 -59l-15 -156v-107q4 -62 4 -86q0 -16 -5 -70
t-5 -71q0 -8 2 -16v-17l2 -112l2 -92l-14 -258zM367 854q0 13 4 45l6 201q3 43 33 90l55 70q22 22 67 22q29 0 60 -8h10q28 0 170 29q12 4 31 4q26 0 55 -13l98 -51q23 -5 46.5 -10.5t36 -8t16.5 -3.5q75 -69 75 -136q0 -20 -6 -38l-22 -86q-12 -47 -51 -80
q-96 -84 -150 -84q-9 0 -44 6t-44 6q-13 0 -29 -4q-49 -14 -77 -14h-7h-4q-56 12 -69 12l-92 -33q-19 -8 -56 -8q-112 0 -112 92z" />
    <glyph glyph-name="S" unicode="S" 
d="M137 293q3 -21 43 -76l60 -76q36 -31 69 -49l94 -55q39 -22 111 -25l162 -20l186 6q88 3 205 57q39 18 96 68q76 66 90 108l33 144q17 53 17 86q0 61 -31 106l-68 92q-34 75 -63 101l-62 53l-41 39q-22 16 -51 16q-6 0 -8 -2h-8q-47 -6 -80 -6q-23 0 -50 7t-50 7
q-41 0 -93 -8l-143 -4q-25 3 -55 21l-45 43q-2 5 -62 49q-38 25 -51 55q-2 6 -2 21q0 20 16 39q1 1 58 34q32 16 35 58q9 83 53 106l49 19q24 6 45 6h10h8l52 -15h4h8q22 0 53 17q50 33 90 33q23 0 47 -17q44 -35 117 -69q28 -18 66 -78q40 -64 135 -64q4 0 8 2h6
q36 9 39 49q0 45 -22 97q-8 18 -60 67q-55 55 -63 66q-27 44 -74 47l-154 16l-114 2l-129 21q-7 0 -9 2h-10q-22 0 -84 -16l-119 -33q-97 -64 -151 -115q-77 -47 -92 -203l2 -63q18 -150 92 -215l65 -58q49 -43 99 -57l209 -41l139 -16l110 -23l105 6q58 -15 84 -63
q10 -23 10 -57q0 -27 -2 -37q-20 -114 -49 -160q-27 -44 -129 -111q-22 -16 -129 -16q-25 0 -43 2h-43q-120 3 -146 10l-170 47q-27 15 -30 47l6 35q0 27 -27 45q-62 40 -104 56h-6h-6q-27 0 -39 -37q-19 -49 -19 -123z" />
    <glyph glyph-name="T" unicode="T" 
d="M117 1368q0 -11 4 -35q12 -40 69 -43q54 -4 115 -22q71 -21 98 -21q13 0 64.5 8.5t67.5 8.5q18 0 38 -4q50 -20 50 -107v-10l-19 -568q-28 -74 -31 -92q0 -31 9 -55l26 -63q4 -12 4 -31q0 -18 -8 -79t-8 -79q0 -69 31 -145q15 -45 55 -45q60 0 119 65q30 39 33 115
l-13 213l-2 168l15 151l-3 125l3 125v115q3 98 6 119q14 67 70 67h5h27q10 -2 23 -2q17 0 58 7.5t52 7.5q16 0 64 -7.5t61 -7.5q71 0 131 60q17 24 17 43q0 21 -17 45q-44 50 -110 53l-123 -10l-219 6l-205 29q-20 4 -31 4q-51 0 -121 -27q-30 -10 -59 -10q-19 0 -29 2
q-83 22 -92 22l-86 -14l-74 18q-32 0 -48.5 -31.5t-16.5 -68.5z" />
    <glyph glyph-name="U" unicode="U" 
d="M158 485v-15q0 -87 32 -163q14 -41 68 -104q107 -128 127 -137q152 -62 248 -70h168l186 55q16 0 62 55q17 8 57 29t61 31q34 15 52 80l53 180l-12 184l6 234l2 170q-8 39 -8 86q0 14 5 61t5 60q0 16 -2 30q-3 23 0 39l2 96q-6 35 -33 56q-27 12 -51 12h-6h-6
q-36 -11 -39 -59l-9 -172q-6 -35 -6 -76q0 -9 2 -17v-20q0 -51 -22 -137v-6v-13q0 -36 12 -106l-25 -201l17 -106l-8 -39q-2 -6 -2 -47q0 -15 2 -23v-31q0 -64 -56 -141q-42 -57 -88 -72q-24 -8 -112 -8h-25h-29q-20 0 -98 -16q-28 -4 -47 -4q-42 0 -70 14q-13 8 -65 82
l-88 84q-8 5 -8 29q0 20 10 65v6q2 2 2 6q0 36 -27 103q-6 18 -6 45q0 33 14 88q17 66 17 90q0 33 -12 51q-52 52 -52 68q0 18 2 20v4q4 36 4 56q0 54 -14 114l14 164q-3 139 -67 191q-20 14 -43 14q-21 0 -39 -12q-34 -24 -37 -72l-14 -205l16 -127l-16 -131l8 -119z" />
    <glyph glyph-name="V" unicode="V" 
d="M129 1374q0 -14 10 -37l58 -84q3 -8 12 -102q9 -72 43 -129q49 -86 51 -100l29 -131l47 -95l37 -86l35 -84l43 -116l49 -105l28 -141q9 -34 50 -84l61 -76q27 -27 59 -27q3 0 23 5q114 34 141 129l37 120l47 109l41 129l62 129l32 78l25 74q27 128 39 151l63 129l33 105
l19 65l14 103q6 21 6 38q0 31 -23 54q-41 30 -83 39q-42 0 -54 -41q-27 -87 -37 -101q-30 -30 -36 -78q-3 -32 -43 -102q-20 -38 -25 -72q-15 -81 -21 -98q-36 -85 -36 -96l-15 -119q-13 -25 -32 -39l-29 -18q-27 -21 -33 -54l-10 -122q-11 -32 -43 -52q-65 -65 -78 -80
q-8 0 -18 17l-39 82l-23 82q-9 31 -43 100q-32 65 -37 100l-26 136l-58 96l-75 201l-27 131q-5 19 -33 65l-39 47q-36 31 -78 31q-53 -9 -88 -41q-12 -15 -12 -35z" />
    <glyph glyph-name="W" unicode="W" 
d="M80 1335q2 -8 2 -16l8 -94l21 -160l-5 -88l7 -125q3 -69 18 -90q50 -80 53 -96l-12 -121l21 -131l4 -107q3 -66 30 -137q62 -158 144 -158q57 0 78 90l43 189l18 123l31 133l30 106l27 115q4 12 4 33q0 11 -6 49t-6 51q0 60 49 84l47 12v4q0 3 -7 27t-7 33q0 30 18 45
q8 8 21 8q2 0 4 -2h4q12 -6 18 -25v-4q2 -6 2 -18q0 -39 -2 -72l11 -260v-8q-3 -3 -3 -6q0 -30 17 -47q41 -41 45 -47l29 -195q16 -50 16 -94q0 -11 -2 -17v-18q0 -23 41 -172q27 -101 47 -109q17 -7 154 -26q8 0 12 -2h10q58 0 70 51l-13 123q3 35 17 67l24 54l25 112
q31 149 31 179q-4 46 -4 59q0 33 8 49l31 47q8 13 8 29q0 18 -8 31l-15 36q0 5 -2 9v8q0 27 8 43l39 88l6 43l-2 63q0 29 19 91q18 61 18 98q0 106 -47 162q-19 16 -37 16q-28 0 -39.5 -20t-31.5 -92q-4 -16 -7 -25l-34 -82l-29 -107q-12 -52 -12 -77q0 -5 2 -11v-24v-13
q0 -88 -43 -122q-43 -30 -43 -68v-4q2 -2 2 -8q8 -33 8 -68q0 -37 -23 -88q-20 -44 -20 -68v-6l14 -88q0 -16 -12 -16q-5 2 -16 20q-19 67 -27 107l-16 82l-9 59q-2 36 -20 76q-42 83 -49 121v129l-47 143l-15 66l-12 65q-30 82 -119 82q-3 0 -12 -2t-12 -2q-56 -12 -84 -78
q-17 -41 -25 -119l-12 -88l-35 -123l-12 -90q-12 -97 -51 -133q-29 -29 -29 -65q4 -46 4 -62q0 -41 -10 -71q-24 -65 -27 -84q-9 -138 -53 -138q-13 9 -19.5 35.5t-7.5 106.5l-33 118l-24 207l-25 162l-20 334q-2 37 -24.5 69.5t-53.5 32.5q-22 0 -34.5 -20t-12.5 -51v-17z
" />
    <glyph glyph-name="X" unicode="X" 
d="M160 84q0 -22 12 -37q36 -48 76 -72q12 -4 16 -4q23 0 45 31l56 115q20 44 49 73l51 50q20 28 27 49l18 51q10 23 31 41l61 37q28 16 45 59q34 82 78 82q20 0 37 -14q33 -38 49 -62l49 -67l49 -88q20 -38 54 -62q63 -40 88 -94q30 -62 51 -80l74 -65q22 -19 47 -19
q31 0 59 25t39 59v4q2 2 2 4q0 28 -29 47l-51 37q-18 15 -31 52l-18 51q-9 14 -31 32l-63 37q-26 17 -47 64l-90 145q-15 85 -39 99q-44 20 -68 51q-10 23 -10 53q3 23 45 78q39 51 55 90l17 49q37 40 69 72q28 28 62 129q11 17 31.5 45.5t31.5 44t20 38t9 42.5q0 25 -13 46
t-32 21q-10 0 -27 -10q-4 -2 -55 -65l-92 -54l-52 -100l-20 -23l-33 -28q-34 -29 -43 -84q-12 -97 -74 -121q-6 -2 -18 -2q-43 0 -86 61l-76 90l-57 93q-9 10 -86 65q-33 23 -62 74q-50 81 -69 100q-21 21 -41 21q-25 -4 -42.5 -29.5t-17.5 -56.5q0 -2 3 -8v-7q3 -14 16 -34
l35 -41q36 -43 47 -76q20 -50 69 -96q51 -46 66 -82q21 -55 61 -107q47 -56 54 -76q31 -74 34 -118q0 -41 -34 -56q-73 -39 -92 -75l-21 -60q-9 -27 -47 -74l-53 -92l-82 -86l-72 -137q-14 -22 -14 -45z" />
    <glyph glyph-name="Y" unicode="Y" 
d="M156 1350q0 -40 24 -74q63 -78 66 -88l24 -47q12 -18 29 -35l49 -37q20 -14 35 -41q3 -3 33 -67q18 -39 39 -64l80 -94l69 -84q15 -15 21 -53q7 -39 7 -71q0 -10 -1 -20l-17 -225l7 -127l-19 -92q0 -63 40 -106.5t103 -44.5q58 6 76 65q8 19 8 84v27q-2 14 -2 30l-6 113
l-2 53l6 101l-18 149q3 36 29 62q58 61 69 79q38 65 68 86l65 35q24 21 33 51l21 72q16 30 41 45l45 31q26 20 39 57l26 68l68 106q8 21 8 47q0 68 -68 115q-13 8 -26 8q-32 0 -58 -39l-84 -108l-57 -88q-21 -34 -82 -88q-26 -23 -35 -70q-10 -62 -18 -76q-17 -16 -70 -57
l-96 -68q-6 -2 -18 -2q-23 0 -39 25l-43 82l-84 72q-38 50 -58 86l-45 73l-41 94q-17 28 -71 62q-59 39 -88 63q-19 19 -37 19q-45 -15 -45 -94z" />
    <glyph glyph-name="Z" unicode="Z" 
d="M117 104q3 -15 18 -24l90 -62q2 -2 15 -2q12 0 50 9.5t50 9.5q44 0 131 -37q15 -6 33 -6q20 0 35 6l53 27h2q4 0 6 2q10 0 68 -23q15 -6 41 -6q39 0 94 14h2l2 2q9 0 42 -10t42 -10q27 0 76 22h4h4q6 0 58 -11t75 -11q46 0 88 10l82 21q33 8 57 32q4 12 4 21q0 16 -16 35
q-46 40 -115 43l-104 -21q-8 -2 -37 -2q-49 0 -123 23q-4 2 -20 2q-13 0 -62 -8.5t-65 -8.5q-15 0 -66 6.5t-67 6.5q-14 0 -63 -7.5t-62 -7.5q-15 0 -35 4q-60 28 -60 88q0 46 45 82l29 25q11 11 27 35l35 71q20 29 49 45l57 29q28 22 37 49l27 82q17 30 49 47l53 31
q27 21 45 51q43 66 70 99l88 104l59 66l31 40l35 60l39 47l51 47q21 27 30 62q0 3 2.5 13t2.5 13t-2.5 13t-2.5 14q-27 96 -159 96q-13 0 -41 -4q-76 -12 -111 -12l-67 18h-11h-12q-21 0 -27 -2q-8 0 -75 -18q-39 -11 -64 -11h-8q-28 2 -59.5 3.5t-46 2.5t-19.5 1
q-9 -3 -16 -3q-37 0 -72 7q-52 12 -94 12h-17q-96 -3 -133 -14q-43 -18 -43 -66q6 -37 33 -61q2 -2 25 -2q8 0 94 4l112 -21q36 0 46 2l73 25h2q2 2 4 2q20 0 129 -31l138 6q15 0 32 -14q1 -1 5 -2t6 -2l4 -4q1 0 10 6t10 6q4 0 4 -8v-10l13 16q8 13 24 10q24 -3 25 -2
q17 0 22.5 -9t5.5 -30q-3 -56 -55 -96q-38 -30 -53 -68q-31 -75 -74 -90q-74 -32 -88 -63l-37 -90l-51 -76l-45 -53q-22 -19 -45 -29l-59 -20q-32 -18 -46 -46l-30 -77q-58 -67 -60 -70q-12 -14 -49 -74q-18 -31 -45 -51l-59 -39q-22 -22 -45 -84q-11 -34 -72 -92
q-12 -15 -12 -25z" />
    <glyph glyph-name="bracketleft" unicode="[" 
d="M608 -340h434v115h-288v1816h293v115h-439v-2046z" />
    <glyph glyph-name="backslash" unicode="\" 
d="M90 1772q0 34 14.5 61t36.5 27q7 0 25 -7q36 -22 51 -71q8 -24 80 -96q21 -21 51 -146q9 -33 39 -57l53 -35q28 -22 37 -59q28 -123 43 -138q82 -82 86 -94l31 -102l92 -88q3 -4 57 -125l48 -74l49 -82l78 -102l81 -160l82 -111l58 -77q33 -45 57 -109q22 -58 45 -90
q57 -75 64 -92q12 -27 12 -56q0 -4 -2 -6v-6q-6 -41 -41 -65q-50 -29 -100 -29q-9 0 -13 2h-8q-53 9 -88 74q-31 79 -45 141l-27 90l-41 94l-86 133l-71 166q-71 90 -82 113l-45 88q-14 26 -31.5 57t-20.5 37q-37 95 -47 109l-71 94l-52 111l-73 90l-54 94l-49 82l-51 72
l-39 79q-50 94 -57 103q-76 85 -76 160z" />
    <glyph glyph-name="bracketright" unicode="]" 
d="M348 -219v-117h438v2044h-432v-115h293v-1812h-299z" />
    <glyph glyph-name="asciicircum" unicode="^" 
d="M-342 1595l78 -79l270 227l252 -223l88 67l-252 285h-180z" />
    <glyph glyph-name="underscore" unicode="_" 
d="M-18 -215q3 -25 43 -74q31 -31 100 -28l135 6l111 -2q46 -4 61 -4q33 0 180 6t179 6q5 0 27.5 -0.5l67.5 -1.5t93 -2t94 -2t68.5 -1.5t27.5 -0.5q42 0 78 4l111 14l78 19q56 14 59 34q3 67 -49 107q-13 8 -33 8q-26 0 -67 -35q-12 -4 -13 -4q-7 0 -10 6q-15 21 -35 31
q-12 4 -39 4q-1 0 -67 -4q-64 -3 -359 -6l-112 -6l-342 4q-43 0 -123 18q-81 19 -121 19q-146 0 -143 -115z" />
    <glyph glyph-name="grave" unicode="`" 
d="M-303 1516l387 -338l86 73l-260 314h-213v-49z" />
    <glyph glyph-name="a" unicode="a" 
d="M215 276q3 -94 25 -153q15 -33 149 -125q65 -45 154 -45q75 0 153 35q44 19 170 47q34 9 113 76q19 16 25 10h2q8 -5 18 -25q41 -78 92 -78h4h4q78 18 78 142q0 11 -4 47l8 362l-2 201l-43 127q-15 60 -65 80l-115 45q-43 16 -96 16q-29 0 -105 17q-72 16 -102 16
q-27 0 -45 -6l-137 -57q-85 -15 -111 -52l-72 -94q-14 -20 -14 -49q0 -72 82 -96h6h2q28 0 47 28l39 76q16 19 41 19l31 -4l117 71q94 4 127 4q112 0 164.5 -18t86.5 -72q35 -56 35 -116q0 -21 -6 -39q-19 -54 -96 -54q-6 0 -10 2h-13l-245 4q-36 4 -70.5 8t-54 6t-25.5 3
q-106 -12 -158 -49l-98 -103q-86 -89 -86 -200v-7zM369 295q0 21 5.5 34t30 33t74.5 44l109 53q57 30 125 30h12l129 -4q70 9 104 9h13h6q85 -22 100 -117q0 -51 -39 -84l-88 -64q-51 -33 -98 -41q-165 -34 -188 -45q-44 -24 -78 -24q-40 0 -82 31q-116 84 -131 118
q-4 16 -4 27z" />
    <glyph glyph-name="b" unicode="b" 
d="M225 154q0 -152 109 -152l115 16q74 -9 122 -18l162 -29q14 -2 47 -2q51 0 82 8l129 35q40 9 92 49l66 48q30 30 49 69l55 117q27 59 29 78l-2 38l-1.5 28.5t-0.5 11.5q0 8 -2 10q0 16 7 65t7 62q0 58 -24 92l-58 86l-37 96q-17 27 -75 68l-72 67q-28 28 -92 43l-117 31
q-46 0 -61 -6l-117 -41l-105 4l-88 -27q-38 0 -49 33q-6 18 -6 43v19q2 10 2 20l8 250l9 111q-6 67 -46 104q-13 8 -26 8q-12 0 -21 -6q-19 -15 -28 -47l-27 -195l-2 -151l4 -127l-4 -107l-14 -145l-8 -92l-3 -98v-101l-4 -147v-129q-4 -70 -4 -90zM383 535q0 164 96 274
q85 98 208 98h7q111 -3 180 -47q110 -65 136 -86l77 -166q15 -30 15 -59q0 -23 -6 -41l-47 -117l-35 -94l-31 -121q-3 -8 -51 -8l-90 -29l-86 -20q-78 -19 -101 -19q-28 2 -59 23q-5 5 -55 63l-133 168q-25 98 -25 181z" />
    <glyph glyph-name="c" unicode="c" 
d="M219 397q0 -77 33 -139l80 -106q34 -37 82 -68q130 -81 198 -94q41 -8 170 -8q105 0 136 2q51 3 108 41q1 1 11 5t31 12.5t44 18.5q19 9 34.5 19.5t27.5 25t19 24.5t19 29t17 27q39 56 39 70q0 10 -11 25q-40 49 -88 61h-4q-2 2 -4 2q-28 0 -55 -27l-41 -53l-57 -53
q-55 -50 -119 -59q-73 -9 -94 -21q-58 -34 -76 -37q-30 0 -45 12l-29 29l-67 62q-24 25 -62 116l-76 113q-10 23 -10 49q0 30 14 76q15 50 15 78q3 127 35 159q81 84 135 109q34 12 86 12q133 0 225 -51q18 -9 86 -63q56 -44 90 -47h8h9q104 0 104 65q0 19 -16 41
q-52 45 -78 61l-139 101q-139 71 -197 71q-36 0 -68 -14q-73 -33 -125 -33q-6 0 -10 2h-12q-25 7 -43 7q-40 0 -62 -25q-29 -29 -94 -70q-74 -49 -82 -67l-43 -139l-35 -91q-14 -35 -14 -90q0 -8 3 -36.5t3 -36.5q0 -12 -3 -49t-3 -48z" />
    <glyph glyph-name="d" unicode="d" 
d="M168 520q0 -58 12 -141q9 -75 43 -115l68 -84l74 -88q24 -31 63 -51q26 -15 154 -45q55 -14 139 -14q67 0 135 8l158 16q122 13 161 27t46 55q0 13 -8.5 52t-8.5 50q0 22 10 52q19 49 19 96q-9 96 -12 113q20 123 20 145q-3 26 -18 61q-33 67 -33 107v170q0 10 -2 16v21
q0 17 5 76t5 77q0 14 -4 60l-16 110l6 111q1 11 1 22q0 69 -34 103q-17 14 -39 14h-8q-2 -2 -6 -2q-43 -18 -43 -80q0 -8 4 -43t4 -47q0 -30 -12 -88q-11 -72 -11 -90q0 -12 5.5 -57.5t5.5 -59.5q0 -35 -41 -37q-46 0 -105 27q-63 29 -86 29q-4 0 -6 -2h-8q-70 -15 -113 -15
q-12 0 -46 6.5t-42 6.5q-34 0 -82 -25l-153 -80l-95 -92q-65 -65 -65 -121v-12q2 -10 2 -29q0 -41 -29 -117q-14 -25 -14 -96zM377 623v14q0 39 14 74l43 110q22 31 53 39l66 6l98 33q35 12 103 12q39 0 57 -2q104 -9 186 -114q29 -39 29 -86v-9l-10 -165l12 -107v-14v-15
q0 -59 -24 -96l-64 -74q-51 -63 -106 -63q-24 0 -54 10q-52 27 -86 27q-6 0 -18 -4q-31 -14 -55 -17q-29 0 -48 8l-61 31q-62 35 -76 60l-53 149q-2 6 -2 16q0 8 8.5 28t9.5 26z" />
    <glyph glyph-name="e" unicode="e" 
d="M240 526q0 -136 36 -245q46 -146 138 -197l61 -33q107 -58 133 -61q65 -10 135 -10q76 0 158 12l262 119q32 22 35 92q1 13 -7.5 31.5t-8.5 21.5q0 13 -5 24.5t-14 10.5q-20 -3 -28 0q-9 -6 -14.5 -10.5t-7.5 -7t-1 -3.5h-10q-40 0 -96 -26l-91 -43q-117 -54 -141 -54
q-3 0 -6 3h-4l-111 28q-59 3 -84 17q-14 6 -61 71q-68 92 -74 129q0 67 105 82h12h14q40 0 125 -16q24 -6 55 -6q27 0 86 6q52 8 87 8q16 0 66 -5t63 -5q8 0 14 2h10l55 12q107 37 107 213q0 163 -154 305q-17 17 -137 72q-61 28 -92 31l-98 4q-19 1 -35 1q-48 0 -70 -7
l-112 -35l-82 -37l-76 -49q-45 -38 -64 -86l-37 -113l-26 -125q-10 -52 -10 -121zM473 713q0 60 49 118q29 37 152 72q61 5 111 5q39 0 71 -3q43 0 82 -22q78 -54 78 -113q0 -2 2 -22.5t2 -28.5q-3 -16 -10 -23q-36 -33 -95 -57q-24 -4 -43 -4q-6 0 -71 12q-63 12 -76 15
l-207 10q-29 3 -43 20q-2 6 -2 21z" />
    <glyph glyph-name="f" unicode="f" 
d="M305 965q0 -86 86 -109q68 -17 94 -35q33 -26 33 -90l-4 -156l-2 -118l6 -119l-12 -119l14 -149q21 -111 146 -111q35 0 67 16q46 24 49 91l-4 98l8 127v13q0 60 -24 157q-10 38 -10 67q0 13 4 33l24 90v11v8q0 24 -8 51l-14 45q0 90 116 90q9 0 39.5 -3t38.5 -3
q71 0 109 41q22 31 22 63q0 40 -34 80q-29 29 -74 29q-4 0 -6 -2h-8q-53 -6 -87 -6q-24 0 -40 4q-43 12 -46 63q-4 31 -14 70q-12 46 -12 63q0 25 20 48l72 81q17 17 39 17q17 0 29 -6l100 -47q20 -5 25 -5q26 0 53 15q62 29 88 61q8 13 8 31q0 21 -16 43q-30 30 -82 51
l-92 37q-57 23 -97 23q-34 0 -78 -13l-135 -39q-166 -49 -166 -227q0 -35 -16 -104l-31 -113q-4 -8 -10.5 -14.5t-12.5 -11.5t-16.5 -9.5t-16.5 -7t-20 -6t-18.5 -4.5t-20 -4t-18.5 -4q-33 -17 -43 -54q-2 -10 -2 -28z" />
    <glyph glyph-name="g" unicode="g" 
d="M213 651l2 -217q0 -55 31 -119l41 -98q18 -48 57 -82l74 -65q41 -35 88 -47q36 -14 104 -43q67 -31 92 -31q24 0 43 8l134 43l96 25h10q2 2 8 2q38 0 63 -17t25 -47q0 -12 -6 -33l-33 -139q-9 -36 -55 -70q-17 -14 -37 -28.5t-28 -21t-11 -9.5q-35 -38 -71 -43l-97 -16
q-41 0 -81 18l-105 55q-34 24 -65 60q-44 53 -95 53q-4 0 -6 -2h-10q-34 -6 -64 -29q-20 -23 -20 -49q0 -61 102 -119l84 -59q97 -66 246 -66l172 31q71 12 111 39l63 53l103 60q36 36 36 106q0 15 -2 31v14v17l5 161q-3 9 -3 48q0 24 2 90.5t3 95.5l20 393q6 102 6 105
q0 14 -3 60t-3 58q0 14 5 56t5 53q0 16 -2 22q-15 51 -49 74q-9 6 -20 6q-33 0 -93 -32q-15 -9 -49 -9q-41 0 -121 23l-86 -8q-30 3 -139 57q-27 10 -53 10q-51 0 -127 -67q-38 -33 -72 -41q-74 -21 -92 -33q-33 -23 -41 -57l-16 -54q-2 -13 -27 -45l-26 -37
q-23 -33 -23 -94zM432 350l17 174l-3 103q2 43 17 92q16 55 61 78l129 65q20 10 43 10q18 0 45 -6l179 -22q41 -12 65 -74l53 -108q23 -48 23 -113l2 -213q-3 -21 -68 -80q-17 -17 -43 -82q-10 -16 -22 -16q-11 0 -15 2q-22 12 -41 16q-18 0 -38 -4l-52 -25h-4h-14
q-37 0 -123 7q-48 3 -156 102q-49 43 -55 94z" />
    <glyph glyph-name="h" unicode="h" 
d="M201 82q0 -65 45 -94q27 -15 57 -15h8q4 2 11 2q32 8 63 35l55 58q23 30 23 61q0 25 -19 80q-18 52 -18 78q6 55 6 94q0 35 -2 45q-10 55 -10 94q0 69 15 103.5t65 78.5q26 22 63 76q25 38 70 56l108 43q16 4 25 4q24 0 53 -13q15 -5 44.5 -15t45.5 -15q56 -20 66 -52
l24 -114q0 -2 2 -4v-11q0 -15 -16 -71q-14 -46 -14 -80q0 -26 18.5 -74.5t18.5 -58.5q0 -15 -7 -29q-28 -76 -28 -135q0 -44 8 -68q33 -97 75.5 -132.5t98.5 -35.5h12q33 6 56 35q23 45 26 90l6 92l-4 109l2 94l2 99l-10 108l-10 168q-5 25 -37 100l-39 93q-11 20 -74 55
q-21 13 -43 25.5t-33 19t-14 8.5q-42 31 -84 31l-28 -4q-188 -20 -221 -35q-123 -57 -140 -74q-55 -55 -61 -59q-12 -4 -21 -4q-4 0 -16 4q-23 20 -23 63q0 17 9.5 73t9.5 73q0 26 -6 53l-27 129q-2 6 -2 39q0 3 0.5 11.5t1.5 24t2 29.5l6 66q-3 42 -28 70q-30 27 -68 30
q-76 0 -76 -160v-16l2 -115l-4 -147q-4 -40 -4 -59q0 -34 4 -50l4 -135l-8 -131l-16 -139v-555z" />
    <glyph glyph-name="i" unicode="i" 
d="M258 117q0 -38 18 -68q32 -49 145 -49h13l291 2q144 6 156 6l12 -2q53 0 96 14h135q66 15 66 91q0 14 -2 20q-21 49 -84 49q-12 0 -54 -6t-55 -6q-52 0 -102 29q-51 34 -57 88q0 45 12 133l6 106l-4 131v111l2 137q-9 116 -76 180q-29 19 -84 19h-16q-10 -2 -21 -2
q-74 -5 -152 -11t-81 -6l-107 -24q-24 -21 -24 -55q3 -35 24 -62l265 -24q63 -20 75 -89l-6 -98l8 -119l-10 -123v-16q-2 -6 -2 -14q0 -30 4 -62q19 -97 19 -116q-9 -67 -90 -82q-27 -6 -78 -6q-53 0 -125 10q-28 4 -35 4q-63 0 -78 -49q-4 -28 -4 -41zM573 1346
q0 -49 54 -97q51 -45 102 -45q40 0 66 39q57 77 57 131q0 93 -121 117q-6 0 -8 2h-8q-38 0 -74 -25q-68 -56 -68 -122z" />
    <glyph glyph-name="j" unicode="j" 
d="M203 -242q0 -124 114 -204l89 -48l100 -43q47 -13 112 -13q13 0 27 1q130 0 225 68l74 67l49 52q30 44 39 106l-2 184v142v147v141l-8 215l-4 185l6 170q3 64 -90 94q-56 20 -215 20q-23 0 -82.5 13t-73.5 14q-35 0 -71 -20q-89 -47 -89 -101q0 -63 132 -78l102 -2
q104 -3 147 -14q28 -16 31 -102l4 -11q3 -11 13.5 -41.5t13.5 -44.5q4 -20 4 -32q0 -9 -4 -29l-17 -72v-94l-22 -102q-4 -28 -4 -84q0 -87 14 -172q8 -47 8 -113q0 -97 -22 -238q-18 -70 -113 -79q-108 -5 -112 -5q-32 0 -50 3q-50 15 -67 59l-15 65q-30 95 -165 95
q-58 -9 -76 -66q-2 -10 -2 -33zM729 1309q2 -61 41 -105t98 -45h12q58 0 107 25q64 34 64 96q0 13 -4 33q-41 123 -164 123q-62 0 -107 -31q-47 -33 -47 -89v-7z" />
    <glyph glyph-name="k" unicode="k" 
d="M297 922q0 -40 6 -78l10 -131l25 -160q0 -14 -31 -129q-2 -6 -2 -35q0 -35 10 -127l-10 -135q3 -52 31 -94q23 -27 55 -35h10h9q28 0 55 12q46 27 49 101q4 110 4 147q0 46 -4 74q-16 69 -16 80q9 30 47 30h6q6 0 8 -2q38 -9 98 -75l76 -64l62 -63q22 -24 55 -41l88 -43
l131 -138q47 -24 84 -24q68 0 121 74q8 13 8 28q0 23 -31 45l-98 66l-158 129l-37 24l-45 27q-25 13 -43 39l-26 33q-19 25 -45 41l-68 45q-14 14 -14 30q0 24 20 41q109 77 176 107l88 63l134 105q61 46 61 98q0 25 -14 47q-23 29 -66 29q-31 -6 -102 -47l-84 -37
q-66 -26 -115 -66l-125 -125l-141 -108q-9 -6 -19 -6q-18 0 -20 37l-6 143l10 176l-12 189q0 5 2 22t2 21q0 32 -6 73l4 142v5q0 98 -109 107q-43 -3 -63 -45q-15 -38 -15 -98v-19q2 -8 2 -18l-2 -104l-6 -138q2 -16 2 -49q0 -41 -8 -98t-8 -98z" />
    <glyph glyph-name="l" unicode="l" 
d="M266 94q12 -69 74 -96q37 -16 109 -16q19 -1 36 -1q63 0 101 9q57 13 108 22l148 -6l100 -4l125 -4q51 0 95 25t61 63q4 12 4 23q0 24 -15 45q-26 33 -73 45h-4h-9q-22 0 -86 -25q-61 -22 -98 -22q-60 0 -90 49q-16 40 -16 133v37l20 137q0 43 -14 117q-4 28 -4 53
q0 56 12 139l-6 119l8 133q1 8 1 20q0 34 -7 93v188l4 105q-3 57 -16 86q-19 32 -57 32h-7l-76 -4l-94 6l-76 -18q-6 0 -12 -2h-12q-9 0 -40.5 3t-39.5 3q-38 0 -61 -15.5t-23 -39.5q3 -37 59 -58q18 -6 86 -22q31 -8 58 -8q13 0 50 8t48 8q35 -3 57 -39q15 -35 15 -74
q0 -23 -4 -43l-25 -104l16 -156l-37 -112q0 -33 27 -119q6 -15 6 -39q0 -13 -5 -51t-5 -49v-17q4 -54 4 -67q0 -16 -5 -73t-5 -75q0 -6 6 -170v-14q0 -47 -18 -68q-10 -13 -72 -16l-215 -14q-23 2 -55 2q-21 0 -27 -2q-29 -16 -29 -60z" />
    <glyph glyph-name="m" unicode="m" 
d="M174 479l19 -147l-15 -150v-133q15 -78 98 -78q51 0 97 37q20 20 20 58q0 15 -10 64.5t-10 66.5q0 41 12 75q4 20 4 33q0 17 -12 68t-12 67q0 62 26 144l6 116q10 49 49 121q21 40 54 60q27 10 47 10h6h8q37 -9 43 -57l23 -127q6 -43 6 -72v-12v-13q-15 -120 -15 -180
q0 -8 3.5 -45t3.5 -49q0 -45 -11 -131q-6 -46 -6 -74q0 -40 8 -59q21 -66 119 -78q93 0 93 148q0 13 -1 28l-6 106l-2 134l21 114l6 92l-6 58v16v17q0 56 16 88l82 65q47 40 51 43q6 2 17 2q51 0 51 -92q0 -15 -4 -65q0 -42 20 -68l21 -33q8 -13 8 -33q0 -14 -2 -20l-27 -74
q0 -4 -2 -8v-8q0 -36 21 -113q4 -20 4 -37q0 -47 -25 -145q-6 -24 -6 -53q0 -81 45 -138q25 -28 68 -28q92 9 92 90l-2 24q-6 79 -6 103q0 26 4 84v110l4 123q6 27 6 60q0 30 -6 71l2 148q0 48 -55 106l-82 109q-28 36 -91 39l-98 4q-38 -3 -63 -25l-56 -47q-20 -14 -49 -14
q-32 0 -155 72q-42 26 -80 26q-18 0 -33 -6l-107 -59q-16 -4 -24 -4q-25 0 -47 16q-50 32 -70 35q-43 0 -55 -41v-4v-9q0 -23 10 -88l-18 -102l-2 -205q-23 -118 -23 -127z" />
    <glyph glyph-name="n" unicode="n" 
d="M215 389l6 -129v-178q0 -107 103 -113q72 3 149 56q12 9 16 22q-3 9 -16 12q-15 5 -35 15l33 116l-29 304q-6 27 -6 51q0 55 33 88l72 102l94 82l55 64q22 16 51 16l95 -27q6 -2 18 -2q9 0 36.5 7.5t35.5 7.5q21 0 41 -17l28 -41l58 -69q10 -23 10 -56q0 -8 -12 -82
l-15 -90l2 -67q3 -29 19 -55q26 -48 26 -72q0 -15 -2 -21q-4 -11 -28 -51q-2 -2 -2 -14q0 -20 6 -60q0 -22 -25 -108v-4v-4q0 -31 35 -52q46 -26 96 -38q45 0 62 38q29 64 35 113l-33 105l-2 213l-13 133q-8 31 -8 63q0 4 2 8v9q6 47 6 73q0 7 -2 11v8l-30 131
q-14 39 -64 61l-98 45q-74 25 -100 31l-125 37q-6 2 -27 2q-24 0 -51 -10l-78 -35q-52 -16 -72 -33q-57 -51 -86 -61q-34 0 -53 28q-46 74 -49 76q-22 16 -60 16q-43 -9 -67 -43q-11 -19 -14 -139l-7 -231v-137z" />
    <glyph glyph-name="o" unicode="o" 
d="M184 487q0 -35 9 -65l51 -139l53 -97l65 -84q33 -36 91 -61l139 -47l127 -19q20 -4 35 -4q104 0 258 60q116 47 174 190l45 144q15 59 18 108l-8 107l4 102v11q0 94 -51 136q-98 76 -100 80l-37 62q-26 34 -80 49l-125 35q-64 18 -100 18l-105 -16l-96 -23
q-137 -27 -152 -30q-19 -8 -67 -93l-88 -92q-21 -21 -33 -114q-4 -38 -8.5 -72.5t-6 -48.5t-1.5 -15q-11 -49 -11 -82zM367 489q21 195 49 259q64 147 209 147h10l92 -2l74 2q32 -2 90 -27l106 -45q38 -25 41 -88q3 -96 29 -164q10 -30 10 -61q0 -33 -8 -72
q-30 -157 -65 -184l-111 -88q-41 -21 -113 -21q-12 0 -16 2h-21l-96 -4h-10q-68 0 -115 39l-63 78q-69 72 -72 96z" />
    <glyph glyph-name="p" unicode="p" 
d="M246 -225l8 -197q3 -65 43 -86q30 -10 49 -10q27 0 51 12q37 27 37 82l-4 139q4 46 4 68q0 39 -6 76l-6 180q0 27 10 27l41 -23l154 -41q98 -39 127 -39q157 18 215 49l151 113q51 36 72 102l47 107q12 30 12 76q0 41 -16 100q-6 18 -6 37q0 16 14 69.5t14 71.5
q0 17 -4 33q-14 30 -53 96l-65 103q-22 32 -97 61q-29 12 -102 72q-8 8 -37 8q-25 0 -72 -12l-137 26h-4h-6q-23 0 -41 -12l-37 -29q-11 -7 -72 -16q-46 -9 -73 -43q-16 -19 -27 -19q-4 2 -24 21q-43 49 -64 57q-12 4 -16 4q-10 0 -19 -6q-11 -11 -18 -35l-8 -120l-23 -117
l6 -244q1 -15 1 -29t0.5 -22.5t0.5 -15.5v-9v-2q0 -67 -8 -114q-2 -8 -2 -39q0 -61 14 -138q4 -24 4 -36q0 -28 -6 -72l2 -135zM410 475q3 108 34 209q15 58 68 111l66 67q29 29 65 29q13 0 19 -2l69 -27q6 -2 19 -2t51 23.5t55 23.5q57 0 129 -63q56 -47 74 -84l67 -146
q23 -58 23 -90q0 -34 -12 -69q-82 -210 -127 -246q-109 -83 -162 -86l-176 12q-123 9 -152 27q-42 26 -80 145q-30 93 -30 157v11z" />
    <glyph glyph-name="q" unicode="q" 
d="M160 532l12 -75l12 -78q6 -35 52 -90q28 -36 57 -121q16 -42 57 -68l90 -51q52 -40 99 -49l151 -31q38 -14 74 -14q21 0 39 6l151 76q21 12 41 12q56 0 56 -76q-17 -150 -17 -176v-8v-4l6 -107q-2 -31 -2 -75q0 -33 2 -41q15 -53 70 -56q28 3 51 23q26 26 41 127
q8 52 8 108q0 38 -12 97q-10 65 -10 86q0 27 6 51l16 149l7 134l-25 172l27 120l-21 125l2 58l6 37v16v16q0 28 -4 56q-27 170 -84 170q-6 0 -22 -4l-74 -48h-4q-16 0 -72 39l-203 23q-67 24 -96 24q-10 0 -12 -2q-122 -52 -137 -55q-71 -9 -99 -31l-65 -69l-74 -68
q-51 -57 -63 -119l-23 -102q-14 -66 -14 -107zM350 424l21 151q12 92 32 127q38 64 91 101l94 53l127 64q19 8 41 8q26 0 65 -17q90 -43 144 -102q67 -76 67 -162q-8 -68 -8 -112q0 -19 2 -25q31 -105 31 -123q-8 -58 -58 -108l-79 -58l-76 -90q-14 -20 -45 -20
q-7 0 -33.5 4t-34.5 4t-14 -2h-15q-27 -6 -49 -6q-12 0 -32 4q-61 23 -119 96q-36 46 -60 70l-69 57q-23 30 -23 86z" />
    <glyph glyph-name="r" unicode="r" 
d="M285 446l10 -245l6 -88q6 -56 27 -86q49 -55 123 -64q100 0 100 178q0 59 -8 119q0 23 20 129v8q0 7 2 9q0 24 -12 73q-10 55 -10 72q0 66 78 156l67 77q50 57 96 77.5t131 21.5h11q84 0 184 -43q29 -11 45 -11q37 0 61.5 31.5t26.5 71.5q-3 42 -43 69q-19 12 -65 31
l-76 29q-94 37 -111 43h-8h-8q-32 0 -96 -23q-174 -68 -179 -71q-52 -37 -90 -37q-22 0 -37 12q-9 10 -27 31.5t-27 31.5t-24.5 23t-31 18t-33.5 5q-16 -2 -41 -13q-28 -22 -37 -71l-2 -181l2 -108z" />
    <glyph glyph-name="s" unicode="s" 
d="M258 229q0 -47 41 -82l125 -86q112 -77 229 -77q7 0 11 2h10l117 8q20 -2 55 -2q25 0 53 4q59 14 125 45q52 22 78 55l53 56q49 67 49 170q0 42 -10 84q-2 10 -86 69l-84 105q-21 15 -98 18l-144 43h-6h-6q-23 0 -53 -10l-51 -23q-6 -2 -23 -2q-27 0 -74 27l-108 65
q-21 24 -21 54q0 44 52 90q12 12 37.5 19.5t93.5 17.5q50 8 96 26q19 8 43 8q23 0 47 -12l117 -47q33 -9 96 -51q52 -37 92 -37q20 0 35 6q37 21 37 53q0 16 -10 39q-23 36 -119 123q-46 40 -154 55l-119 15q-8 0 -16 2h-18q-3 0 -11.5 -0.5t-25 -1.5t-31.5 -2l-150 -15
q-37 -10 -59 -26l-43 -33q-32 -23 -59 -33l-43 -16q-54 -31 -54 -113l7 -110q6 -80 41 -115l88 -51l63 -68q15 -12 29 -12q17 0 30 8l37 18q25 5 27 5q17 0 27 -2q88 -27 127 -27q12 0 16 2q67 25 100 25q10 0 19 -3l110 -43q56 -27 68 -84q4 -28 4 -51q0 -66 -35 -116
q-16 -22 -117 -37l-106 -45h-6h-8q-31 0 -99 24l-200 58q-19 10 -84 69q-49 43 -76 55h-4h-6q-30 0 -49 -30t-19 -60z" />
    <glyph glyph-name="t" unicode="t" 
d="M283 983q0 -26 32 -43l125 -49q45 -21 58 -66q8 -21 8 -86l-10 -106l-2 -205l12 -115l4 -94q3 -77 96 -149q33 -26 105 -54q80 -31 112 -34q42 0 66 8l51 14l53 6h76q45 6 66 41q12 27 12 53q0 18 -6 39q-12 21 -86 56q-56 14 -78 16q-14 14 -37 14q-8 0 -24 -5t-19 -5
q-8 0 -35 20.5t-35 20.5q-14 0 -20 2q-72 27 -72 116v7l2 186l-2 125q0 34 -2 54v41q0 37 2 47q12 40 78 43l193 12q119 9 137 27q26 36 26 79q0 22 -6 37q-27 80 -182 80q-11 0 -47 -4l-98 -14q-37 2 -72 14q-30 20 -33 55l-2 101q-12 46 -67 55q-7 0 -11 2h-12
q-120 0 -123 -90q-6 -101 -43 -125l-102 -20q-54 -39 -84 -91q-4 -12 -4 -16z" />
    <glyph glyph-name="u" unicode="u" 
d="M209 627l18 -148l11 -157q3 -43 20 -89l31 -81q25 -67 76 -93l88 -34l90 -27q46 -14 129 -14l108 28q108 26 162 68q31 22 53 22t37 -18l49 -55q28 -21 54 -21h6q49 0 82 33q20 20 20 57l-2 8l-10 109l2 121q-4 54 -4 80q0 48 10 110q4 12 4 33q0 3 -4 43q-1 10 -2 32
t-2 30l-14 264q-5 75 -23 106t-72 31q-30 0 -53 -10q-59 -24 -59 -123q0 -43 14 -109q16 -75 16 -108l-12 -129l-8 -84q-6 -90 -55 -142l-51 -20q-32 -46 -44 -66q-53 -95 -157 -104l-109 16q-127 18 -133 62q-3 77 -22 96q-43 52 -43 119q0 28 6 55l8 160q10 58 10 98
q0 131 -65 223q-58 82 -93 82q-4 0 -16 -4q-2 -3 -16 -35l-25 -118l-6 -117z" />
    <glyph glyph-name="v" unicode="v" 
d="M145 944q0 -75 52 -139l36 -49q26 -37 37 -80q26 -96 47 -125l74 -105l55 -94l60 -90l47 -112l57 -84q28 -43 72 -84q31 -17 61 -17q62 0 123 49q29 25 52 70l49 84l59 98l47 123l234 465q36 68 36 119q-9 52 -59 61q-54 0 -94 -30q-80 -68 -131 -195l-37 -92l-53 -99
l-45 -92l-62 -102q-29 -75 -43 -92q-29 -40 -78 -78q-12 -12 -18 -12l-2 2q-44 69 -66 112q-18 21 -37 82l-65 125l-51 96l-39 64l-17 53q-23 96 -53 129l-102 78q-60 72 -86 72q-10 0 -12 -2q-48 -25 -48 -109z" />
    <glyph glyph-name="w" unicode="w" 
d="M92 926l31 -197q0 -30 43 -172l53 -180l14 -123l31 -148q12 -52 64 -73q79 -31 118 -39q45 0 54 53q19 118 26 133l56 90l22 144q11 34 51 82l62 73q15 15 26 15h5h2q14 -11 22 -29q17 -45 25 -143q3 -52 28 -97q52 -94 52 -139q3 -179 186 -182q79 6 113 123l38 202
l58 123l14 156l31 113l29 151q16 62 16 92q0 19 -4 31q-35 68 -92 68q-32 0 -60 -19q-47 -36 -90 -92q-7 -10 -10 -84q-4 -16 -11.5 -42.5t-10.5 -40t-6 -38.5t-3 -55q0 -115 -10 -160q-10 -20 -16 -24h-5q-2 0 -2 -2q-7 0 -16 6q-28 22 -31 51q-24 170 -34 184
q-53 59 -56 88v78q-3 26 -51 68l-80 67q-21 15 -47 15q-18 0 -33 -9q-105 -52 -135 -141q-18 -43 -53 -102q-37 -65 -41 -94l6 -95q-3 -35 -29 -71l-61 -88q-11 -11 -12 -11q0 9 4 25q22 58 26 80q0 26 -18 53l-55 59q-4 12 -4 15q0 11 8 14l20 6q4 4 4 8v3v2l-12 18
q-40 49 -43 92l6 103q-12 73 -67 116q-21 15 -41 15q-17 0 -39 -11q-66 -41 -66 -114z" />
    <glyph glyph-name="x" unicode="x" 
d="M217 39q9 -50 62 -62q4 0 8 -2h8q55 0 98 52l64 94l65 88l82 67l70 86q19 19 43 19q40 0 98 -43q52 -42 74 -80q45 -73 72 -100l106 -131q44 -41 88 -41q45 0 90 39q21 21 21 47q0 17 -9 32q-82 102 -124 138l-66 88l-61 88l-117 94q-24 27 -27 53q0 25 29 41l92 31
q11 7 35 96l98 119q66 78 68 90q4 20 4 33q0 59 -62 86q-4 2 -16 2q-80 0 -178 -143q-9 -16 -88 -82q-20 -23 -49 -119q-10 -23 -31 -23q-5 0 -25 4q-39 20 -84 62l-182 207q-91 82 -137 82q-29 0 -50.5 -29.5t-21.5 -58.5q0 -49 43 -89q66 -60 78 -81q27 -41 78 -80
q45 -32 65 -60l54 -106q2 -4 2 -15q0 -23 -33 -43q-42 -26 -88 -96l-60 -65l-88 -88q-53 -53 -65 -74q-33 -59 -33 -127z" />
    <glyph glyph-name="y" unicode="y" 
d="M176 1004q0 -13 2 -21q8 -19 49 -78q27 -45 35 -71q21 -83 39 -107l64 -92l41 -92l61 -82l41 -90l82 -115l53 -164q23 -41 23 -65q0 -18 -11 -33q-65 -96 -69 -111q-3 -76 -19 -98l-55 -61q-54 -85 -57 -152q3 -38 41 -59q21 -9 41 -9q22 0 43 9q31 22 34 55q6 63 23 80
q35 21 59 37q23 23 29 49q25 97 39 116q62 74 76 105l53 119q8 24 8 63v23q0 35 25 63l75 70q16 22 19 49l4 55q4 29 72 97q26 26 53 141q11 33 29 65l43 74l55 107q29 63 29 96q0 53 -43 80q-20 10 -37 10q-54 0 -101 -78l-82 -106q-32 -37 -38 -86v-92q0 -41 -35 -76
q-49 -49 -62 -72l-22 -111q-16 -61 -72 -100q-17 -10 -33 -10q-52 0 -110 102l-41 90q-20 28 -82 90l-70 152q-44 47 -82 184q-27 101 -149 101q-22 0 -37 -6q-33 -14 -33 -45z" />
    <glyph glyph-name="z" unicode="z" 
d="M213 72q2 -2 2 -9q9 -23 39 -40l217 -25l176 -10q55 -8 109 -8q14 0 58 5t58 5q30 0 80 -6q34 0 129 12l101 -12q70 3 121 57q6 9 6 16q0 18 -35 45l-76 66q-29 16 -55 16q-4 0 -8 -2h-5l-120 -35l-78 9q-80 -17 -98 -17q-5 0 -7 2h-6q-39 19 -54 19q-5 0 -7 -2h-4
q-27 -8 -56 -8q-8 0 -39 5t-40 5h-7h-6l-88 -35h-4h-4q-9 0 -12 6q0 11 4 27q30 56 86 80q57 28 72 57q55 107 63 115l82 53l41 53l37 45l84 82q19 19 90 68q64 44 80 65l55 90q74 83 74 111q0 22 -15 43q-21 27 -57 33l-190 6q-21 8 -52 8q-15 0 -66 -12.5t-69 -12.5
q-17 0 -74 12.5t-75 12.5q-28 0 -80 -12q-64 -11 -82 -11q-71 11 -90 11q-17 0 -23 -2q-56 -20 -88 -66q-8 -8 -8 -18q0 -7 4 -11q9 -7 41 -14q139 -39 193 -39q47 6 96 6q24 0 78 -4l194 2q28 -6 37 -18q2 -2 2 -12q0 -18 -8 -31q-16 -37 -78 -92l-72 -64l-59 -67l-84 -58
l-86 -61q-57 -43 -76 -70l-37 -98q-12 -20 -38 -29q-34 -10 -46 -16l-57 -98q-7 -17 -35 -41l-41 -33q-14 -20 -14 -43v-6z" />
    <glyph glyph-name="braceleft" unicode="{" 
d="M86 479q84 0 131 -96q35 -75 35 -170v-350q0 -101 53 -178q59 -86 156 -86h137v133h-90q-65 0 -86 86q-10 52 -10 135l2 178q3 354 -181 412q80 21 132 114q44 78 47 172l2 349q0 168 94 168h90v133h-137q-144 0 -191 -154q-25 -82 -22 -268l2 -88q3 -157 -17 -230
q-34 -137 -147 -137v-123z" />
    <glyph glyph-name="bar" unicode="|" 
d="M193 -39h149v1548h-149v-1548z" />
    <glyph glyph-name="braceright" unicode="}" 
d="M86 -268v-133h137q99 0 158 86q51 71 51 178v350q0 95 37 170q47 96 129 96v123q-112 0 -147 139q-17 73 -17 228q0 32 2 59v59q0 179 -33 261q-49 131 -180 131h-137v-133h90q94 0 94 -168v-351q0 -90 49 -172q52 -94 132 -116q-115 -35 -156 -168q-30 -101 -27 -242
l2 -176q3 -87 -10 -137q-21 -84 -84 -84h-90z" />
    <glyph glyph-name="asciitilde" unicode="~" 
d="M-344 1575l2 -31l123 -2q0 127 59 148q45 0 146 -76q103 -74 170 -74q94 0 141 74q48 74 45 164l-2 37l-115 -3q-9 -74 -18 -94q-21 -53 -70 -53q-16 0 -119 74q-101 76 -165 76q-100 0 -150 -68q-53 -77 -47 -172z" />
    <glyph glyph-name="uni0081" 
d="M-16 530q0 -112 77 -198t191 -86t217 65q32 20 174 146q180 -149 221 -170q74 -39 168 -39q113 0 191 84q80 83 80 196q0 114 -84 195q-83 80 -197 80q-97 0 -207 -72q-60 -41 -172 -141q-103 97 -174 143q-107 70 -207 70q-113 0 -196 -80q-82 -79 -82 -193zM88 512
q0 79 50.5 133.5t127.5 54.5q76 0 170 -61q35 -23 146 -115q-117 -107 -140 -123q-80 -57 -170 -57q-75 0 -129.5 48.5t-54.5 119.5zM711 524q114 95 145 115q94 61 170 61q73 0 125.5 -56t52.5 -130q0 -72 -55.5 -122t-130.5 -50q-87 0 -170 59q-38 30 -137 123z" />
    <glyph glyph-name="uni00A0" unicode="&#xa0;" 
 />
    <glyph glyph-name="exclamdown" unicode="&#xa1;" 
d="M526 1268q0 39 19 75q42 72 131 84h8h8q86 0 148 -77q26 -33 26 -78q0 -24 -8 -43q-40 -125 -121 -125q-64 0 -135 47q-76 52 -76 117zM571 143q0 13 5.5 62t5.5 65t-5.5 70t-5.5 70q0 38 7 96q2 10 2 39q0 31 -7 110v9q-2 6 -2 12q0 64 27 190q21 99 88 99q58 -6 96 -56
q22 -36 25 -149l2 -275q-6 -56 -6 -94q0 -35 2 -43l14 -72q2 -8 2 -30q0 -42 -12 -80l-51 -135q-21 -41 -66 -47h-6h-6q-11 0 -31 4q-78 28 -78 155z" />
    <glyph glyph-name="currency" unicode="&#xa4;" 
d="M-129 879q0 -29 18 -56q37 -46 95 -61l71 2q13 -8 39 -8q66 0 125 24q12 4 27 4q35 0 78 -14h6h10q31 0 414 35q27 9 30 26q0 15 -20 35l-78 84q-24 27 -55 27q-7 0 -19 -4q-131 2 -221 2q-15 0 -33 2l-59 8l-102 6l-150 -4q-36 8 -57 8q-63 -20 -107 -80
q-12 -15 -12 -36zM-113 547q0 -29 13 -58q35 -74 147 -71l272 4l134 6q-1 0 19 2t65.5 6t107.5 10q39 0 66 15q56 36 102 82q10 10 10 22q0 6 -2 8q-13 13 -35 25l-120 45l-252 6l-125 4l-96 -2l-113 15l-62 -7q-46 -3 -81 -18q-39 -25 -48 -70q0 -6 -2 -12v-12zM139 698
q0 -2 6 -90l9 -155l59 -144q26 -62 51 -98l82 -80l100 -76q72 -37 168 -51l138 -12l137 12l100 19l70 16q25 11 67 47l84 80q97 91 97 231l-2 9v6q-6 43 -45 57q-16 4 -27 4q-23 0 -43 -10q-16 -8 -70 -74l-88 -88l-84 -65l-88 -52q-29 -16 -65 -16h-11h-8l-117 39h-81
q-62 19 -103 69q-23 30 -47 103l-37 102l-18 111l-17 158l19 127l28 235q21 52 132 141q83 65 135 68l73 -8l72 16q63 0 152 -59l57 -37l29 -19q29 -16 49 -55l41 -72q34 -34 71 -34q23 0 52 16q41 38 41 86q0 53 -35 100l-111 152q-52 55 -174 70l-135 16q-41 6 -66 6
q-60 0 -122 -16l-154 -29l-123 -70q-73 -27 -86 -43l-65 -114q-34 -54 -43 -105l-37 -153l-9 -140q-8 -96 -8 -131z" />
    <glyph glyph-name="section" unicode="&#xa7;" 
d="M168 0q0 -57 37 -100l82 -95q38 -38 71 -55l84 -29q82 -32 156 -32l92 -2q54 -4 72 -4q31 0 59 4l101 22q77 15 120 49l74 72q55 38 74 57q16 26 31 105q26 139 26 182q0 8 -4 16l-51 136l-64 82q-6 15 -6 28q0 18 6 33q1 2 74 100q45 54 45 125q0 92 -41 201
q-14 42 -67 57q-50 15 -115 68q-45 39 -121 39l-10 -2h-12l-181 51l-133 22q-83 25 -125 50q-23 13 -59 77l-49 93q-6 9 -6 22q0 30 30 64q17 20 56 106q16 36 57 53q83 38 92 93q0 38 -18 47h-2l-4 2q-16 0 -43 -17q-3 -1 -15 -6.5t-40 -18.5l-56 -26q-66 -28 -88 -70
l-57 -88q-30 -47 -33 -90l-2 -104q0 -8 -2 -12v-11q0 -41 18 -65l78 -74q8 -8 8 -22q0 -19 -18 -43l-64 -78q-57 -80 -57 -189q0 -153 55 -223l68 -74q31 -24 63 -37l80 -30q57 -34 88 -37l137 -2q34 -8 91 -31q75 -35 131 -35q28 4 41 4q34 0 51 -10q50 -32 78 -76
q43 -64 43 -200q0 -43 -11 -76q-34 -88 -170 -141q-37 -13 -139 -13q-88 0 -153 6q-71 3 -115 50l-64 63l-84 90q-52 43 -104 43q-6 0 -8 -2h-8q-49 -13 -66 -57q-4 -20 -4 -35zM344 856q0 78 90 156q14 14 43 14q15 0 45 -10l133 -47q46 -17 64 -17h8q2 2 8 2l51 23
q9 6 21 6q10 0 51.5 -15.5t59.5 -15.5q28 0 49 15q6 4 10 12v2q-2 -2 -2 -12q0 -13 2 -21q18 -58 88 -92q34 -15 37 -68l8 -129q3 -44 -45 -75l-88 -62q-23 -10 -45 -10q-23 0 -47 8l-94 27l-99 22l-155 27q-48 8 -91 29q-84 41 -90 116zM879 1694q0 -21 14 -35l88 -70
q22 -15 49 -84q36 -80 96 -94q5 0 9 -2h6q20 0 28 14q5 15 5 17q0 48 -72 135l-68 80q-60 54 -119 57q-27 -3 -36 -18z" />
    <glyph glyph-name="dieresis" unicode="&#xa8;" 
d="M-430 1356q0 -63 42 -103.5t105 -40.5q61 0 102.5 41t41.5 103t-41.5 103.5t-102.5 41.5q-62 0 -104.5 -42t-42.5 -103zM145 1360q0 -61 40 -101t102 -40q61 0 105 41t44 100q0 60 -43.5 101.5t-103.5 41.5q-62 0 -103 -41t-41 -102z" />
    <glyph glyph-name="guillemotleft" unicode="&#xab;" 
d="M-20 535l362 -482l113 84l-301 391q144 221 309 400l-121 84z" />
    <glyph glyph-name="uni00AD" unicode="&#xad;" 
d="M184 582q3 -62 43 -111q32 -32 101 -29l135 7l110 -3q46 -4 62 -4q31 0 90 15q62 16 90 16q13 0 60 -4t61 -4q42 0 78 4l110 14l78 19q57 15 60 71q3 76 -50 117q-13 8 -32 8q-28 0 -68 -34q-2 -1 -5 -2t-4.5 -2t-2.5 -1q-6 0 -10 7q-14 19 -35 30q-12 4 -39 4
q-2 0 -68 -4q-67 -3 -100 -6l-113 -6l-164 -14q-43 0 -122 18q-81 19 -121 19q-147 0 -144 -125z" />
    <glyph glyph-name="degree" unicode="&#xb0;" 
d="M-4 1102q0 -11 13.5 -52t13.5 -55q-3 -15 -3 -30q0 -29 11 -47l49 -62l51 -47l47 -43q21 -21 58 -27l131 2q68 3 133 80q50 58 63 88q14 32 23 111l10 74v6l2 8q0 44 -18 78l-50 71l-34 70q-22 43 -103 72q-27 10 -94 10q-87 0 -131 -23l-59 -34q-32 -13 -41 -43
l-37 -103l-21 -55l-12 -41v-4q-2 -2 -2 -4zM127 1026q0 20 6 47l10 121q10 31 72 70q65 44 96 49q26 0 60 -43l53 -72q12 -27 12 -57v-90v-13q2 -6 2 -12q0 -35 -12 -59l-39 -60q-27 -37 -65 -43h-7q-2 -2 -6 -2q-40 0 -80 29l-53 55q-49 52 -49 80z" />
    <glyph glyph-name="plusminus" unicode="&#xb1;" 
d="M184 115q3 -62 43 -111q32 -32 101 -29l135 7l110 -2q57 -5 62 -5q24 0 90 17q55 14 90 14q13 0 60 -4t61 -4q42 0 78 4l110 14l78 19q57 15 60 71q3 76 -50 117q-13 8 -32 8q-28 0 -68 -34l-12 -4q-7 0 -10 6q-14 19 -35 30q-12 4 -39 4q-2 0 -68 -4q-67 -3 -100 -6
l-113 -6l-164 -14q-43 0 -122 18q-81 19 -121 19q-147 0 -144 -125zM190 858q0 -5 3 -8q8 -31 45 -57l231 -27q139 -15 156 -41q10 -13 10 -72q0 -66 -12 -186v-16q0 -96 71 -117q24 -4 33 -4q41 0 74 26q37 27 37 142v223q6 59 57 59l119 -22l102 4q99 3 121 14
q36 14 39 60q-3 60 -49 100q-23 16 -74 22l-78 11q-25 0 -80 -19q-53 -16 -80 -16q-33 0 -59 16q-33 20 -39 140q-9 253 -43 280q-37 29 -67 29h-9q-2 -2 -8 -2q-65 -18 -59 -180l4 -113q3 -60 -12 -119q-6 -27 -50 -27h-12q-9 0 -108 -18l-109 6q-79 3 -131 -35
q-23 -23 -23 -45v-8z" />
    <glyph glyph-name="acute" unicode="&#xb4;" 
d="M-154 1255l93 -77l391 329v58h-215z" />
    <glyph glyph-name="mu" unicode="&#xb5;" 
d="M12 -303q0 -48 23 -92q27 -47 74 -47q96 0 96 141q0 37 -23 121q-43 145 -43 198v45q29 -20 92 -67q50 -29 109 -29q82 0 176 64q85 56 133 135q19 -92 51 -139q48 -60 131 -60q183 0 242 234l-39 2q-12 -31 -30 -94q-21 -46 -78 -46q-54 0 -82 60q-23 51 -23 108v762
h-172v-737q-26 -62 -91.5 -107t-131.5 -45q-186 0 -186 230v659h-172v-975q0 -47 -39 -200q-17 -76 -17 -121z" />
    <glyph glyph-name="periodcentered" unicode="&#xb7;" 
d="M518 541q0 -48 35 -86.5t82 -38.5q52 0 88.5 33t36.5 83t-37.5 85.5t-89.5 35.5q-45 0 -80 -34t-35 -78z" />
    <glyph glyph-name="cedilla" unicode="&#xb8;" 
d="M-238 -399q107 -84 224 -84q97 0 168 51q82 55 82 145q0 154 -191 181l88 139l-127 12l-117 -184l25 -60q195 0 195 -98q0 -76 -109 -76q-106 0 -186 68z" />
    <glyph glyph-name="guillemotright" unicode="&#xbb;" 
d="M-25 135l115 -80l369 475q-44 53 -183 242q-115 152 -184 240l-110 -80l188 -238q93 -116 111 -162z" />
    <glyph glyph-name="questiondown" unicode="&#xbf;" 
d="M229 354q-2 -30 9 -73q41 -142 133 -205l90 -62q45 -32 94 -41q6 0 12 -2h17q16 0 65 8.5t62 8.5q15 0 65 -10.5t66 -10.5q32 0 78 15l106 38l113 68q48 29 73 57l62 88q20 26 20 60q0 37 -29.5 69.5t-64.5 32.5q-25 0 -47 -14l-76 -55l-104 -107l-203 -43
q-30 -10 -55 -10q-21 0 -37 8l-62 23l-86 12q-56 23 -92 96q-14 25 -14 86q-1 50 2.5 74.5t13 35t29.5 13.5l49 2q26 11 39 29l31 55q8 8 20 8q6 0 20 -3.5t28.5 -7.5t17.5 -5q29 3 49 26l47 70l61 68q34 52 43 100q0 36 -36 72q-83 86 -115 86q-24 0 -45 -27
q-36 -98 -41 -113q-15 -45 -55 -71l-97 -53l-118 -84q-35 -28 -97 -142q-36 -68 -39 -100zM573 1276q0 -35 23 -68q55 -68 133 -82h10h11q58 0 110 52q56 53 74 112q2 8 2 25q0 67 -141 147q-26 13 -50 13q-33 0 -57 -21q-59 -48 -100 -125q-15 -24 -15 -53z" />
    <glyph glyph-name="Agrave" unicode="&#xc0;" 
d="M72 72q0 -16 6 -25q34 -52 78 -72q6 -2 20 -2q27 0 51 17l78 67q55 49 68 84q53 144 63 158q39 51 129 51q9 0 13 -2h10l213 8q10 0 18 -2h17q16 0 70 10.5t71 10.5q58 0 98 -43l53 -90l54 -133q42 -105 127 -144q12 -4 20 -4q9 0 21 4q11 18 16 39q0 8 2 14v17
q0 44 -8 104q-6 46 -78 133l-45 207l-66 107l-26 127l-60 100l-30 113l-64 104q-7 39 -14.5 81t-10 57.5t-3.5 17.5l-84 94q-6 20 -18 55t-15 47q-19 25 -41 25h-6q-2 -2 -6 -2q-23 -10 -50 -37l-112 -125q-38 -45 -47 -100q-15 -107 -60 -152q-72 -78 -84 -108l-41 -117
l-32 -86q-19 -53 -45 -90q-63 -84 -68 -103q-26 -120 -45 -139q-69 -72 -74 -88q-30 -128 -45 -143q-18 -24 -18 -45zM385 1788l385 -268l80 77l-254 238h-211v-47zM532 608q0 10 3 19l43 110l40 97l54 86q26 44 41 98q27 89 49 117q18 18 49 18q28 -6 43 -37l41 -229
q75 -75 78 -125l20 -100q0 -5 2 -7v-8q0 -83 -137 -104l-3 1q-3 0 -8.5 0.5t-13.5 1.5t-18 2t-20.5 2t-23 2t-23.5 1l-177 6q-39 12 -39 49z" />
    <glyph glyph-name="Aacute" unicode="&#xc1;" 
d="M72 72q0 -16 6 -25q34 -52 78 -72q6 -2 20 -2q27 0 51 17l78 67q55 49 68 84q53 144 63 158q39 51 129 51q9 0 13 -2h10l213 8q10 0 18 -2h17q16 0 70 10.5t71 10.5q58 0 98 -43l53 -90l54 -133q42 -105 127 -144q12 -4 20 -4q9 0 21 4q11 18 16 39q0 8 2 14v17
q0 44 -8 104q-6 46 -78 133l-45 207l-66 107l-26 127l-60 100l-30 113l-64 104q-7 39 -14.5 81t-10 57.5t-3.5 17.5l-84 94q-6 20 -18 55t-15 47q-19 25 -41 25h-6q-2 -2 -6 -2q-23 -10 -50 -37l-112 -125q-38 -45 -47 -100q-15 -107 -60 -152q-72 -78 -84 -108l-41 -117
l-32 -86q-19 -53 -45 -90q-63 -84 -68 -103q-26 -120 -45 -139q-69 -72 -74 -88q-30 -128 -45 -143q-18 -24 -18 -45zM532 608q0 10 3 19l43 110l40 97l54 86q26 44 41 98q27 89 49 117q18 18 49 18q28 -6 43 -37l41 -229q75 -75 78 -125l20 -100q0 -5 2 -7v-8
q0 -83 -137 -104l-3 1q-3 0 -8.5 0.5t-13.5 1.5t-18 2t-20.5 2t-23 2t-23.5 1l-177 6q-39 12 -39 49zM551 1595l80 -77l387 264v51h-211z" />
    <glyph glyph-name="Acircumflex" unicode="&#xc2;" 
d="M72 72q0 -16 6 -25q34 -52 78 -72q6 -2 20 -2q27 0 51 17l78 67q55 49 68 84q53 144 63 158q39 51 129 51q9 0 13 -2h10l213 8q10 0 18 -2h17q16 0 70 10.5t71 10.5q58 0 98 -43l53 -90l54 -133q42 -105 127 -144q12 -4 20 -4q9 0 21 4q11 18 16 39q0 8 2 14v17
q0 44 -8 104q-6 46 -78 133l-45 207l-66 107l-26 127l-60 100l-30 113l-64 104q-7 39 -14.5 81t-10 57.5t-3.5 17.5l-84 94q-6 20 -18 55t-15 47q-19 25 -41 25h-6q-2 -2 -6 -2q-23 -10 -50 -37l-112 -125q-38 -45 -47 -100q-15 -107 -60 -152q-72 -78 -84 -108l-41 -117
l-32 -86q-19 -53 -45 -90q-63 -84 -68 -103q-26 -120 -45 -139q-69 -72 -74 -88q-30 -128 -45 -143q-18 -24 -18 -45zM422 1595l78 -79l270 227l252 -223l84 67l-250 285h-178zM532 608q0 10 3 19l43 110l40 97l54 86q26 44 41 98q27 89 49 117q18 18 49 18q28 -6 43 -37
l41 -229q75 -75 78 -125l20 -100q0 -5 2 -7v-8q0 -83 -137 -104l-3 1q-3 0 -8.5 0.5t-13.5 1.5t-18 2t-20.5 2t-23 2t-23.5 1l-177 6q-39 12 -39 49z" />
    <glyph glyph-name="Atilde" unicode="&#xc3;" 
d="M72 72q0 -16 6 -25q34 -52 78 -72q6 -2 20 -2q27 0 51 17l78 67q55 49 68 84q53 144 63 158q39 51 129 51q9 0 13 -2h10l213 8q10 0 18 -2h17q16 0 70 10.5t71 10.5q58 0 98 -43l53 -90l54 -133q42 -105 127 -144q12 -4 20 -4q9 0 21 4q11 18 16 39q0 8 2 14v17
q0 44 -8 104q-6 46 -78 133l-45 207l-66 107l-26 127l-60 100l-30 113l-64 104q-7 39 -14.5 81t-10 57.5t-3.5 17.5l-84 94q-6 20 -18 55t-15 47q-19 25 -41 25h-6q-2 -2 -6 -2q-23 -10 -50 -37l-112 -125q-38 -45 -47 -100q-15 -107 -60 -152q-72 -78 -84 -108l-41 -117
l-32 -86q-19 -53 -45 -90q-63 -84 -68 -103q-26 -120 -45 -139q-69 -72 -74 -88q-30 -128 -45 -143q-18 -24 -18 -45zM430 1575l2 -31l123 -2q0 146 59 146q44 0 144 -74q103 -74 168 -74q92 0 145 74q43 64 43 164v34h-119q-12 -76 -18 -94q-18 -53 -68 -53q-18 0 -121 74
q-101 76 -165 76q-94 0 -146.5 -71t-46.5 -169zM532 608q0 10 3 19l43 110l40 97l54 86q26 44 41 98q27 89 49 117q18 18 49 18q28 -6 43 -37l41 -229q75 -75 78 -125l20 -100q0 -5 2 -7v-8q0 -83 -137 -104l-3 1q-3 0 -8.5 0.5t-13.5 1.5t-18 2t-20.5 2t-23 2t-23.5 1
l-177 6q-39 12 -39 49z" />
    <glyph glyph-name="Adieresis" unicode="&#xc4;" 
d="M78 35q0 -70 98 -70q76 0 103 82l26 129l19 88q41 115 114 115q17 0 25 -2l26 -6q5 0 9 -2h10q37 0 86 14h4q6 2 18 2q39 0 144 -6l112 6q40 1 75.5 2t52 1.5t18.5 0.5l6 2q45 0 57 -41l31 -160q7 -7 31 -10q14 -8 20 -35q26 -106 51 -135q21 -24 50 -24q28 0 57 26
q45 48 45 97t-39 88q-61 64 -61 90l-2 67q-6 22 -25 41l-43 37q-22 22 -22 62l2 51q-2 17 -21 51l-76 92q-35 53 -49 100q-49 156 -55 164q-43 60 -47 95l-4 49q-3 34 -29 84q-22 76 -33 131q-9 45 -59 57q-36 4 -60 4q-31 0 -45 -2q-45 -9 -71 -57l-60 -103l-24 -94
q-6 -28 -41 -84q-37 -59 -45 -108q-12 -82 -49 -133q-5 -5 -27 -72l-59 -119l-27 -96q-15 -52 -70 -113q-31 -36 -61 -158l-84 -180q-2 -6 -2 -18zM389 1616q0 -60 39 -105q16 -16 43 -16q20 0 47 12l84 35q35 12 35 45q0 45 -47 86t-94 41q-26 0 -50 -8q-54 -23 -57 -90z
M461 627q0 17 6 32l68 97q43 63 51 82q12 39 22 163q3 48 31 84l70 86q15 11 26 11q10 -7 23 -23l53 -80q32 -49 37 -82l24 -147q46 -79 56 -92q44 -72 47 -137q-3 -39 -37 -54l-68 -37q-31 -19 -57 -30l-78 -21h-6l-2 -2q-13 0 -18 8q-21 41 -56 41q-31 0 -71 -37l-9 -4
q-2 0 -4 2l-16 31q-15 22 -76 72q-16 16 -16 37zM860 1616q0 -60 39 -105q16 -16 43 -16q20 0 47 12l84 35q35 12 35 45q0 45 -47 86t-94 41q-25 0 -49 -8q-55 -24 -58 -90z" />
    <glyph glyph-name="Aring" unicode="&#xc5;" 
d="M72 72q0 -16 6 -25q34 -52 78 -72q6 -2 20 -2q27 0 51 17l78 67q55 49 68 84q53 144 63 158q39 51 129 51q9 0 13 -2h10l213 8q10 0 18 -2h17q16 0 70 10.5t71 10.5q58 0 98 -43l53 -90l54 -133q42 -105 127 -144q12 -4 20 -4q9 0 21 4q11 18 16 39q0 8 2 14v17
q0 44 -8 104q-6 46 -78 133l-45 207l-66 107l-26 127l-60 100l-30 113l-64 104q-7 39 -14.5 81t-10 57.5t-3.5 17.5l-84 94q-6 20 -18 55t-15 47q-19 25 -41 25h-6q-2 -2 -6 -2q-23 -10 -50 -37l-112 -125q-38 -45 -47 -100q-15 -107 -60 -152q-72 -78 -84 -108l-41 -117
l-32 -86q-19 -53 -45 -90q-63 -84 -68 -103q-26 -120 -45 -139q-69 -72 -74 -88q-30 -128 -45 -143q-18 -24 -18 -45zM532 608q0 10 3 19l43 110l40 97l54 86q26 44 41 98q27 89 49 117q18 18 49 18q28 -6 43 -37l41 -229q75 -75 78 -125l20 -100q0 -5 2 -7v-8
q0 -83 -137 -104l-3 1q-3 0 -8.5 0.5t-13.5 1.5t-18 2t-20.5 2t-23 2t-23.5 1l-177 6q-39 12 -39 49zM612 1602q0 -73 56.5 -125t130.5 -52q80 0 132 50t52 129t-51.5 133.5t-128.5 54.5q-85 0 -138 -52.5t-53 -137.5zM700 1606q0 100 111 100q32 0 60 -33t28 -69
q0 -41 -30 -69t-72 -28q-43 0 -70 28t-27 71z" />
    <glyph glyph-name="AE" unicode="&#xc6;" 
d="M8 72q0 -16 6 -25q34 -52 78 -72q6 -2 21 -2q27 0 51 17l78 67q53 47 67 84q52 141 64 158q39 51 129 51q8 0 12 -2h10l103 8q8 0 14 -2h-2q17 0 59 10.5t58 10.5q58 0 98 -43l29 -90l6 -133q42 -105 127 -144q12 -4 20 -4q9 0 21 4q7 10 10 23l121 4l115 12l77 19
q57 15 60 71q3 77 -49 117q-13 8 -33 8q-27 0 -68 -35l-12 -4q-7 0 -10 6q-15 21 -35 31q-12 4 -39 4q-8 0 -58 14.5t-83 14.5h-11q-2 6 -6 22l-20 207l-35 94l92 17q42 0 78 4l111 14l77 19q57 15 60 71q3 77 -49 117q-13 8 -33 8q-27 0 -68 -35l-12 -4q-7 0 -10 7
q-14 19 -35 30q-9 3 -105 6q-126 4 -137 4q-18 0 -28 -2l-4 97l-27 104q-9 89 -12 133l96 4l297 27l78 18q56 14 59 72q3 77 -49 117q-13 8 -33 8q-42 0 -291 -20q-29 0 -98.5 18t-97.5 18q-58 0 -92 -18h-7h-6q-2 -2 -6 -2q-21 -9 -49 -37l-113 -125q-38 -45 -47 -100
q-15 -108 -59 -152q-72 -78 -84 -108l-41 -117l-33 -86q-19 -53 -45 -90q-63 -84 -68 -103q-26 -120 -45 -139q-67 -70 -73 -88q-30 -128 -45 -143q-19 -25 -19 -45zM469 608q0 13 2 19l43 110l41 97l53 86q26 44 41 98q27 89 49 117q18 18 50 18l7 -13q7 -12 13 -24
l27 -229q12 -60 16 -125l-12 -100q0 -5 2 -7v-8q0 -83 -113 -104q2 0 -1 2t-12.5 4.5t-25.5 3.5l-141 6q-39 12 -39 49z" />
    <glyph glyph-name="Ccedilla" unicode="&#xc7;" 
d="M139 698q0 -2 6 -90l9 -155l59 -144q26 -62 51 -98l82 -80l100 -76q61 -32 158 -51v-10q0 -84 55 -105l82 -30q25 -22 25 -56q-2 -29 -27 -73l-55 -66q-37 -43 -47 -80v-12q0 -40 51 -49h14q6 -2 17 -2q100 0 178 96l55 70q82 101 82 247q0 54 -12 95l37 10q25 11 67 47
l84 80q97 91 97 231l-2 9v6q-6 43 -45 57q-16 4 -27 4q-23 0 -43 -10q-16 -8 -70 -74l-88 -88l-84 -65l-78 -46l-39 25q-27 12 -53 12q-44 0 -90 -30l-29 10h-81q-62 19 -103 69q-23 30 -47 103l-37 102l-18 111l-17 158l19 127l28 235q21 52 132 141q83 65 135 68l73 -8
l72 16q63 0 152 -59l86 -56q29 -16 49 -55l41 -72q34 -34 71 -34q23 0 52 16q41 38 41 86q0 53 -35 100l-111 152q-52 55 -174 70l-135 16q-41 6 -66 6q-60 0 -122 -16l-154 -29l-123 -70q-73 -27 -86 -43l-65 -114q-34 -54 -43 -105l-37 -153l-9 -140q-8 -96 -8 -131z" />
    <glyph glyph-name="Egrave" unicode="&#xc8;" 
d="M236 264l16 -172q9 -50 70 -72q73 -21 137 -18l104 4l256 -2l215 -22q157 9 187 24q43 34 43 94q-15 101 -121 101q-23 0 -76 -15q-53 -12 -80 -12q-28 0 -43 6q-62 21 -121 21q-37 0 -108 -15q-71 -12 -107 -12q-137 0 -164 90l-22 98q-4 20 -4 39q0 9 6 58l20 176
q3 39 43 39h78l90 -10h45h33q69 3 96 -5q64 -22 86 -22q5 0 7 2l102 27l92 6q57 21 82 65q6 9 6 23q0 23 -24 41l-103 57h-2q-4 2 -10 2q-35 0 -109 -14h-266h-20q-10 -2 -19 -2q-28 0 -86 10q-55 10 -69 10h-9h-8l-33 -6q-32 0 -38 43l2 121l-9 86v22q0 64 27 105
q13 16 31 16q10 0 14 -2l25 -10h6q20 0 35 18l39 39q16 13 45 13q4 0 24 -4l172 -25q20 -4 47 -4q12 0 48 4t44 4q26 0 54 -11t46 -21.5t19 -10.5q9 1 20.5 17t27.5 28.5t38 9.5q10 0 19 -0.5t15.5 -1t12.5 -1t10 -0.5t6.5 -0.5t3.5 -0.5h1q28 9 39 35q2 8 2 23q0 31 -20 53
t-78 47q-27 12 -82 12q-12 0 -62 -4l-108 4l-174 4q-32 0 -64 -14q-38 -15 -59 -20q-32 0 -45 8l-54 37q-12 6 -24 6q-18 0 -35 -10q-86 -47 -102 -50q-75 -6 -93 -69q-6 -24 -6 -133l-20 -131l14 -185q-12 -37 -12 -69q0 -18 14 -76t14 -76q0 -45 -16 -111q-8 -27 -8 -69
q0 -21 2 -41v-14v-17q0 -20 -9 -79.5t-9 -76.5v-12zM514 1808l385 -268l80 78l-254 237h-211v-47z" />
    <glyph glyph-name="Eacute" unicode="&#xc9;" 
d="M236 264l16 -172q9 -50 70 -72q73 -21 137 -18l104 4l256 -2l215 -22q157 9 187 24q43 34 43 94q-15 101 -121 101q-23 0 -76 -15q-53 -12 -80 -12q-28 0 -43 6q-62 21 -121 21q-37 0 -108 -15q-71 -12 -107 -12q-137 0 -164 90l-22 98q-4 20 -4 39q0 9 6 58l20 176
q3 39 43 39h78l90 -10h45h33q69 3 96 -5q64 -22 86 -22q5 0 7 2l102 27l92 6q57 21 82 65q6 9 6 23q0 23 -24 41l-103 57h-2q-4 2 -10 2q-35 0 -109 -14h-266h-20q-10 -2 -19 -2q-28 0 -86 10q-55 10 -69 10h-9h-8l-33 -6q-32 0 -38 43l2 121l-9 86v22q0 64 27 105
q13 16 31 16q10 0 14 -2l25 -10h6q20 0 35 18l39 39q16 13 45 13q4 0 24 -4l172 -25q20 -4 47 -4q12 0 48 4t44 4q26 0 54 -11t46 -21.5t19 -10.5q9 1 20.5 17t27.5 28.5t38 9.5q10 0 19 -0.5t15.5 -1t12.5 -1t10 -0.5t6.5 -0.5t3.5 -0.5h1q28 9 39 35q2 8 2 23q0 31 -20 53
t-78 47q-27 12 -82 12q-12 0 -62 -4l-108 4l-174 4q-32 0 -64 -14q-38 -15 -59 -20q-32 0 -45 8l-54 37q-12 6 -24 6q-18 0 -35 -10q-86 -47 -102 -50q-75 -6 -93 -69q-6 -24 -6 -133l-20 -131l14 -185q-12 -37 -12 -69q0 -18 14 -76t14 -76q0 -45 -16 -111q-8 -27 -8 -69
q0 -21 2 -41v-14v-17q0 -20 -9 -79.5t-9 -76.5v-12zM537 1645l79 -78l388 264v51h-211z" />
    <glyph glyph-name="Ecircumflex" unicode="&#xca;" 
d="M236 264l16 -172q9 -50 70 -72q73 -21 137 -18l104 4l256 -2l215 -22q157 9 187 24q43 34 43 94q-15 101 -121 101q-23 0 -76 -15q-53 -12 -80 -12q-28 0 -43 6q-62 21 -121 21q-37 0 -108 -15q-71 -12 -107 -12q-137 0 -164 90l-22 98q-4 20 -4 39q0 9 6 58l20 176
q3 39 43 39h78l90 -10h45h33q69 3 96 -5q64 -22 86 -22q5 0 7 2l102 27l92 6q57 21 82 65q6 9 6 23q0 23 -24 41l-103 57h-2q-4 2 -10 2q-35 0 -109 -14h-266h-20q-10 -2 -19 -2q-28 0 -86 10q-55 10 -69 10h-9h-8l-33 -6q-32 0 -38 43l2 121l-9 86v22q0 64 27 105
q13 16 31 16q10 0 14 -2l25 -10h6q20 0 35 18l39 39q16 13 45 13q4 0 24 -4l172 -25q20 -4 47 -4q12 0 48 4t44 4q26 0 54 -11t46 -21.5t19 -10.5q9 1 20.5 17t27.5 28.5t38 9.5q10 0 19 -0.5t15.5 -1t12.5 -1t10 -0.5t6.5 -0.5t3.5 -0.5h1q28 9 39 35q2 8 2 23q0 31 -20 53
t-78 47q-27 12 -82 12q-12 0 -62 -4l-108 4l-174 4q-32 0 -64 -14q-38 -15 -59 -20q-32 0 -45 8l-54 37q-12 6 -24 6q-18 0 -35 -10q-86 -47 -102 -50q-75 -6 -93 -69q-6 -24 -6 -133l-20 -131l14 -185q-12 -37 -12 -69q0 -18 14 -76t14 -76q0 -45 -16 -111q-8 -27 -8 -69
q0 -21 2 -41v-14v-17q0 -20 -9 -79.5t-9 -76.5v-12zM412 1622l77 -80l271 227l252 -223l84 68l-250 284h-178z" />
    <glyph glyph-name="Edieresis" unicode="&#xcb;" 
d="M236 264l16 -172q9 -50 70 -72q73 -21 137 -18l104 4l256 -2l215 -22q157 9 187 24q43 34 43 94q-15 101 -121 101q-23 0 -76 -15q-53 -12 -80 -12q-28 0 -43 6q-62 21 -121 21q-37 0 -108 -15q-71 -12 -107 -12q-137 0 -164 90l-22 98q-4 20 -4 39q0 9 6 58l20 176
q3 39 43 39h78l90 -10h45h33q69 3 96 -5q64 -22 86 -22q5 0 7 2l102 27l92 6q57 21 82 65q6 9 6 23q0 23 -24 41l-103 57h-2q-4 2 -10 2q-35 0 -109 -14h-266h-20q-10 -2 -19 -2q-28 0 -86 10q-55 10 -69 10h-9h-8l-33 -6q-32 0 -38 43l2 121l-9 86v22q0 64 27 105
q13 16 31 16q10 0 14 -2l25 -10h6q20 0 35 18l39 39q16 13 45 13q4 0 24 -4l172 -25q20 -4 47 -4q12 0 48 4t44 4q26 0 54 -11t46 -21.5t19 -10.5q9 1 20.5 17t27.5 28.5t38 9.5q10 0 19 -0.5t15.5 -1t12.5 -1t10 -0.5t6.5 -0.5t3.5 -0.5h1q28 9 39 35q2 8 2 23q0 31 -20 53
t-78 47q-27 12 -82 12q-12 0 -62 -4l-108 4l-174 4q-32 0 -64 -14q-38 -15 -59 -20q-32 0 -45 8l-54 37q-12 6 -24 6q-18 0 -35 -10q-86 -47 -102 -50q-75 -6 -93 -69q-6 -24 -6 -133l-20 -131l14 -185q-12 -37 -12 -69q0 -18 14 -76t14 -76q0 -45 -16 -111q-8 -27 -8 -69
q0 -21 2 -41v-14v-17q0 -20 -9 -79.5t-9 -76.5v-12zM389 1694q0 -60 39 -105q16 -16 43 -16q20 0 47 12l84 35q35 12 35 45q0 45 -47 86t-94 41q-26 0 -50 -8q-54 -23 -57 -90zM860 1694q0 -60 39 -105q16 -16 43 -16q20 0 47 12l84 35q35 12 35 45q0 45 -47 86t-94 41
q-25 0 -49 -8q-55 -24 -58 -90z" />
    <glyph glyph-name="Igrave" unicode="&#xcc;" 
d="M231 139q0 -14 2 -20q15 -49 35 -82q19 -22 74 -31l94 -12h6h9q39 0 112 12q28 4 55 4q58 0 121 -8l152 8q220 9 239 15q48 30 66 59q4 16 4 22q0 25 -18 46q-43 40 -97 49q-23 0 -108 -21q-10 -2 -35 -2q-46 0 -90 29q-16 16 -16 29q0 11 6.5 18t46.5 37q8 5 8 14
q-6 3 -21.5 7.5t-19.5 7.5t-12 10t-10 19.5t-3 31.5l-4 137l-8 109l-16 139q0 35 22 63l23 29q6 15 6 33q0 14 -2 20l-31 76q0 19 27 107l-19 149q0 64 76 70q262 21 269 26q22 31 22 62q0 14 -2 20q-12 39 -57 39l-74 -12q-26 0 -92 29q-19 8 -47 8q-36 0 -80 -21
q-42 12 -68 17l-104 -15l-88 19l-164 -15q-46 15 -76 15q-28 0 -43 -12q-49 -46 -49 -101q0 -27 12 -51q34 -49 80 -49l125 22q63 -12 135 -47q35 -15 35 -96q0 -11 -4 -57l-4 -256l-6 -119v-19v-18q0 -56 12 -117q2 -6 2 -24q0 -43 -14 -109v-6v-8q0 -43 20 -137v-7
q0 -2 2 -4q0 -32 -43 -41l-127 2q-21 0 -94 -20l-127 -31q-25 -16 -25 -41zM379 1847l385 -268l80 78l-254 237h-211v-47z" />
    <glyph glyph-name="Iacute" unicode="&#xcd;" 
d="M231 139q0 -14 2 -20q15 -49 35 -82q19 -22 74 -31l94 -12h6h9q39 0 112 12q28 4 55 4q58 0 121 -8l152 8q220 9 239 15q48 30 66 59q4 16 4 22q0 25 -18 46q-43 40 -97 49q-23 0 -108 -21q-10 -2 -35 -2q-46 0 -90 29q-16 16 -16 29q0 11 6.5 18t46.5 37q8 5 8 14
q-6 3 -21.5 7.5t-19.5 7.5t-12 10t-10 19.5t-3 31.5l-4 137l-8 109l-16 139q0 35 22 63l23 29q6 15 6 33q0 14 -2 20l-31 76q0 19 27 107l-19 149q0 64 76 70q262 21 269 26q22 31 22 62q0 14 -2 20q-12 39 -57 39l-74 -12q-26 0 -92 29q-19 8 -47 8q-36 0 -80 -21
q-42 12 -68 17l-104 -15l-88 19l-164 -15q-46 15 -76 15q-28 0 -43 -12q-49 -46 -49 -101q0 -27 12 -51q34 -49 80 -49l125 22q63 -12 135 -47q35 -15 35 -96q0 -11 -4 -57l-4 -256l-6 -119v-19v-18q0 -56 12 -117q2 -6 2 -24q0 -43 -14 -109v-6v-8q0 -43 20 -137v-7
q0 -2 2 -4q0 -32 -43 -41l-127 2q-21 0 -94 -20l-127 -31q-25 -16 -25 -41zM516 1665l80 -78l387 264v52h-211z" />
    <glyph glyph-name="Icircumflex" unicode="&#xce;" 
d="M231 139q0 -14 2 -20q15 -49 35 -82q19 -22 74 -31l94 -12h6h9q39 0 112 12q28 4 55 4q58 0 121 -8l152 8q220 9 239 15q48 30 66 59q4 16 4 22q0 25 -18 46q-43 40 -97 49q-23 0 -108 -21q-10 -2 -35 -2q-46 0 -90 29q-16 16 -16 29q0 11 6.5 18t46.5 37q8 5 8 14
q-6 3 -21.5 7.5t-19.5 7.5t-12 10t-10 19.5t-3 31.5l-4 137l-8 109l-16 139q0 35 22 63l23 29q6 15 6 33q0 14 -2 20l-31 76q0 19 27 107l-19 149q0 64 76 70q262 21 269 26q22 31 22 62q0 14 -2 20q-12 39 -57 39l-74 -12q-26 0 -92 29q-19 8 -47 8q-36 0 -80 -21
q-42 12 -68 17l-104 -15l-88 19l-164 -15q-46 15 -76 15q-28 0 -43 -12q-49 -46 -49 -101q0 -27 12 -51q34 -49 80 -49l125 22q63 -12 135 -47q35 -15 35 -96q0 -11 -4 -57l-4 -256l-6 -119v-19v-18q0 -56 12 -117q2 -6 2 -24q0 -43 -14 -109v-6v-8q0 -43 20 -137v-7
q0 -2 2 -4q0 -32 -43 -41l-127 2q-21 0 -94 -20l-127 -31q-25 -16 -25 -41zM358 1653l78 -80l271 227l251 -223l84 68l-249 284h-179z" />
    <glyph glyph-name="Idieresis" unicode="&#xcf;" 
d="M231 139q0 -14 2 -20q15 -49 35 -82q19 -22 74 -31l94 -12h6h9q39 0 112 12q28 4 55 4q58 0 121 -8l152 8q220 9 239 15q48 30 66 59q4 16 4 22q0 25 -18 46q-43 40 -97 49q-23 0 -108 -21q-10 -2 -35 -2q-46 0 -90 29q-16 16 -16 29q0 11 6.5 18t46.5 37q8 5 8 14
q-6 3 -21.5 7.5t-19.5 7.5t-12 10t-10 19.5t-3 31.5l-4 137l-8 109l-16 139q0 35 22 63l23 29q6 15 6 33q0 14 -2 20l-31 76q0 19 27 107l-19 149q0 64 76 70q262 21 269 26q22 31 22 62q0 14 -2 20q-12 39 -57 39l-74 -12q-26 0 -92 29q-19 8 -47 8q-36 0 -80 -21
q-42 12 -68 17l-104 -15l-88 19l-164 -15q-46 15 -76 15q-28 0 -43 -12q-49 -46 -49 -101q0 -27 12 -51q34 -49 80 -49l125 22q63 -12 135 -47q35 -15 35 -96q0 -11 -4 -57l-4 -256l-6 -119v-19v-18q0 -56 12 -117q2 -6 2 -24q0 -43 -14 -109v-6v-8q0 -43 20 -137v-7
q0 -2 2 -4q0 -32 -43 -41l-127 2q-21 0 -94 -20l-127 -31q-25 -16 -25 -41zM365 1724q0 -60 38 -104q16 -16 43 -16q21 0 48 12l84 35q34 12 34 45q0 45 -47 86t-94 41q-25 0 -49 -8q-54 -23 -57 -91zM836 1724q0 -60 38 -104q16 -16 44 -16q20 0 47 12l84 35q34 12 34 45
q0 45 -47 86t-94 41q-25 0 -49 -8q-54 -23 -57 -91z" />
    <glyph glyph-name="Ntilde" unicode="&#xd1;" horiz-adv-x="1425" 
d="M195 174q-3 -117 34 -147q50 -44 99 -56h8h4q84 0 84 230v22q-1 9 -1.5 19.5t-0.5 7.5l-35 297v12q-2 4 -2 12q0 34 10 86l19 148l-4 117q-2 10 -2 32q0 47 14 72q11 14 20 14h2q12 -12 15 -28l24 -101q7 -12 54 -53l6 -6q37 -30 55 -100q11 -29 53 -82q77 -93 82 -97
q53 -41 64 -73q13 -47 57 -113q41 -58 51 -88l19 -63q18 -32 24 -39l45 -45l56 -105q37 -43 96 -43q26 0 47 6q84 21 90 121l-33 197l21 135l-2 133v115l4 114l-6 107l4 137l-2 184v13q2 4 2 12q0 93 -47 143q-17 17 -37 17h-2h-2q-22 -9 -37 -37q-27 -53 -27 -117v-10v-10
q10 -105 10 -123q-12 -91 -12 -135v-11v-6q4 -40 4 -55q0 -33 -8 -57l-16 -72q0 -38 8 -62q22 -74 22 -135l23 -147q8 -41 8 -88q0 -77 -33 -86q-24 3 -43 20q-45 39 -45 125q0 60 -32 92l-60 47q-23 23 -43 88q-53 104 -57 111l-45 90l-76 94l-66 146l-135 143
q-24 65 -33 94q-31 84 -108 84q-39 0 -82 -24q-71 -41 -74 -111l8 -135q-20 -111 -20 -172v-18q2 -8 2 -17q0 -33 -8 -80t-8 -80q0 -32 6 -59q6 -18 6 -51q0 -56 -12 -150zM406 1575l2 -31l122 -2q0 146 60 146q43 0 143 -74q103 -74 168 -74q93 0 146 74q43 64 43 164v34
h-119q-11 -70 -19 -94q-18 -53 -67 -53q-18 0 -121 74q-101 76 -166 76q-94 0 -146 -70.5t-46 -169.5z" />
    <glyph glyph-name="Ograve" unicode="&#xd2;" 
d="M111 885q0 -35 14 -123q4 -28 4 -60q0 -16 -2 -34v-41l2 -107l16 -127q14 -115 82 -205l72 -63l72 -55q26 -16 96 -31q24 -3 127 -53q29 -13 70 -13q14 0 32 2l129 11l86 18l56 8q27 2 71 27q56 37 80 45q56 17 78 53l55 111l39 84l51 114l-12 115l35 238l-49 155
q-11 31 -53 86q-15 21 -15 41q0 13 6 31q13 29 13 59q0 19 -9 37q-6 21 -65 80l-70 82q-23 33 -75 51l-134 27l-112 25q-91 33 -123 38l-92 -38l-99 -19q-29 -10 -53 -37q-19 -24 -92 -88q-61 -58 -84 -92l-57 -78q-19 -34 -41 -110zM348 1014q0 23 14 43l50 78q38 70 49 84
q48 54 125 69q114 22 141 35q8 4 23 4q41 0 165 -31q46 -14 82 -45l90 -88q27 -24 27 -69q3 -81 33 -105q12 -9 21 -17t14.5 -14.5t9 -12.5t4.5 -10t1 -8.5t-0.5 -6l-1.5 -4.5l-1 -3v-4q-20 -84 -20 -131q0 -4 2 -8v-6q12 -65 12 -94v-13q-2 -2 -2 -6l-43 -123l-17 -108
q-6 -39 -36 -86q-64 -92 -205 -121l-127 -29q-66 0 -115 19l-96 39q-50 20 -94 61q-31 31 -47 107l-37 161l22 117v4l2 4q0 25 -16 131l2 93q-2 10 -25 71q-6 9 -6 23zM428 1808l385 -268l80 78l-254 237h-211v-47z" />
    <glyph glyph-name="Oacute" unicode="&#xd3;" 
d="M111 885q0 -35 14 -123q4 -28 4 -60q0 -16 -2 -34v-41l2 -107l16 -127q14 -115 82 -205l72 -63l72 -55q26 -16 96 -31q24 -3 127 -53q29 -13 70 -13q14 0 32 2l129 11l86 18l56 8q27 2 71 27q56 37 80 45q56 17 78 53l55 111l39 84l51 114l-12 115l35 238l-49 155
q-11 31 -53 86q-15 21 -15 41q0 13 6 31q13 29 13 59q0 19 -9 37q-6 21 -65 80l-70 82q-23 33 -75 51l-134 27l-112 25q-91 33 -123 38l-92 -38l-99 -19q-29 -10 -53 -37q-19 -24 -92 -88q-61 -58 -84 -92l-57 -78q-19 -34 -41 -110zM348 1014q0 23 14 43l50 78q38 70 49 84
q48 54 125 69q114 22 141 35q8 4 23 4q41 0 165 -31q46 -14 82 -45l90 -88q27 -24 27 -69q3 -81 33 -105q12 -9 21 -17t14.5 -14.5t9 -12.5t4.5 -10t1 -8.5t-0.5 -6l-1.5 -4.5l-1 -3v-4q-20 -84 -20 -131q0 -4 2 -8v-6q12 -65 12 -94v-13q-2 -2 -2 -6l-43 -123l-17 -108
q-6 -39 -36 -86q-64 -92 -205 -121l-127 -29q-66 0 -115 19l-96 39q-50 20 -94 61q-31 31 -47 107l-37 161l22 117v4l2 4q0 25 -16 131l2 93q-2 10 -25 71q-6 9 -6 23zM541 1640l80 -77l387 264v51h-211z" />
    <glyph glyph-name="Ocircumflex" unicode="&#xd4;" 
d="M111 885q0 -35 14 -123q4 -28 4 -60q0 -16 -2 -34v-41l2 -107l16 -127q14 -115 82 -205l72 -63l72 -55q26 -16 96 -31q24 -3 127 -53q29 -13 70 -13q14 0 32 2l129 11l86 18l56 8q27 2 71 27q56 37 80 45q56 17 78 53l55 111l39 84l51 114l-12 115l35 238l-49 155
q-11 31 -53 86q-15 21 -15 41q0 13 6 31q13 29 13 59q0 19 -9 37q-6 21 -65 80l-70 82q-23 33 -75 51l-134 27l-112 25q-91 33 -123 38l-92 -38l-99 -19q-29 -10 -53 -37q-19 -24 -92 -88q-61 -58 -84 -92l-57 -78q-19 -34 -41 -110zM348 1014q0 23 14 43l50 78q38 70 49 84
q48 54 125 69q114 22 141 35q8 4 23 4q41 0 165 -31q46 -14 82 -45l90 -88q27 -24 27 -69q3 -81 33 -105q12 -9 21 -17t14.5 -14.5t9 -12.5t4.5 -10t1 -8.5t-0.5 -6l-1.5 -4.5l-1 -3v-4q-20 -84 -20 -131q0 -4 2 -8v-6q12 -65 12 -94v-13q-2 -2 -2 -6l-43 -123l-17 -108
q-6 -39 -36 -86q-64 -92 -205 -121l-127 -29q-66 0 -115 19l-96 39q-50 20 -94 61q-31 31 -47 107l-37 161l22 117v4l2 4q0 25 -16 131l2 93q-2 10 -25 71q-6 9 -6 23zM352 1620l78 -80l270 227l252 -223l84 68l-250 284h-178z" />
    <glyph glyph-name="Otilde" unicode="&#xd5;" 
d="M111 885q0 -35 14 -123q4 -28 4 -60q0 -16 -2 -34v-41l2 -107l16 -127q14 -115 82 -205l72 -63l72 -55q26 -16 96 -31q24 -3 127 -53q29 -13 70 -13q14 0 32 2l129 11l86 18l56 8q27 2 71 27q56 37 80 45q56 17 78 53l55 111l39 84l51 114l-12 115l35 238l-49 155
q-11 31 -53 86q-15 21 -15 41q0 13 6 31q13 29 13 59q0 19 -9 37q-6 21 -65 80l-70 82q-23 33 -75 51l-134 27l-112 25q-91 33 -123 38l-92 -38l-99 -19q-29 -10 -53 -37q-19 -24 -92 -88q-61 -58 -84 -92l-57 -78q-19 -34 -41 -110zM348 1014q0 23 14 43l50 78q38 70 49 84
q48 54 125 69q114 22 141 35q8 4 23 4q41 0 165 -31q46 -14 82 -45l90 -88q27 -24 27 -69q3 -81 33 -105q12 -9 21 -17t14.5 -14.5t9 -12.5t4.5 -10t1 -8.5t-0.5 -6l-1.5 -4.5l-1 -3v-4q-20 -84 -20 -131q0 -4 2 -8v-6q12 -65 12 -94v-13q-2 -2 -2 -6l-43 -123l-17 -108
q-6 -39 -36 -86q-64 -92 -205 -121l-127 -29q-66 0 -115 19l-96 39q-50 20 -94 61q-31 31 -47 107l-37 161l22 117v4l2 4q0 25 -16 131l2 93q-2 10 -25 71q-6 9 -6 23zM358 1595l2 -30l123 -2q0 145 60 145q43 0 143 -74q101 -73 168 -73q93 0 145 73q43 64 43 164v35h-118
q-11 -70 -19 -94q-18 -53 -67 -53q-20 0 -121 73q-101 76 -166 76q-94 0 -146.5 -71t-46.5 -169z" />
    <glyph glyph-name="Odieresis" unicode="&#xd6;" 
d="M111 885q0 -35 14 -123q4 -28 4 -60q0 -16 -2 -34v-41l2 -107l16 -127q14 -115 82 -205l72 -63l72 -55q26 -16 96 -31q24 -3 127 -53q29 -13 70 -13q14 0 32 2l129 11l86 18l56 8q27 2 71 27q56 37 80 45q56 17 78 53l55 111l39 84l51 114l-12 115l35 238l-49 155
q-11 31 -53 86q-15 21 -15 41q0 13 6 31q13 29 13 59q0 19 -9 37q-6 21 -65 80l-70 82q-23 33 -75 51l-134 27l-112 25q-91 33 -123 38l-92 -38l-99 -19q-29 -10 -53 -37q-19 -24 -92 -88q-61 -58 -84 -92l-57 -78q-19 -34 -41 -110zM281 1716q0 -6 2 -8q18 -118 75 -139
q18 -6 35 -6q26 0 45 8q64 34 76 162q0 67 -111 67q-122 0 -122 -76v-8zM348 1014q0 23 14 43l50 78q38 70 49 84q48 54 125 69q114 22 141 35q8 4 23 4q41 0 165 -31q46 -14 82 -45l90 -88q27 -24 27 -69q3 -81 33 -105q12 -9 21 -17t14.5 -14.5t9 -12.5t4.5 -10t1 -8.5
t-0.5 -6l-1.5 -4.5l-1 -3v-4q-20 -84 -20 -131q0 -4 2 -8v-6q12 -65 12 -94v-13q-2 -2 -2 -6l-43 -123l-17 -108q-6 -39 -36 -86q-64 -92 -205 -121l-127 -29q-66 0 -115 19l-96 39q-50 20 -94 61q-31 31 -47 107l-37 161l22 117v4l2 4q0 25 -16 131l2 93q-2 10 -25 71
q-6 9 -6 23zM936 1653q15 -90 98 -90h10q6 2 15 2q67 18 67 80q0 12 -4 32l-32 103q-10 23 -23 28q-18 0 -35 -14q-21 -28 -42.5 -59.5t-36 -54.5t-17.5 -27z" />
    <glyph glyph-name="Oslash" unicode="&#xd8;" 
d="M90 -111q0 -4 2 -6v-6q6 -41 41 -65q50 -29 100 -29q9 0 13 2h8q53 9 88 74q31 79 45 141l16 55q12 -4 64 -16q24 -3 127 -53q29 -13 70 -13q14 0 32 2l129 11l86 18l56 8q27 2 71 27q56 37 80 45q56 17 78 53l55 111l39 84l51 114l-12 115l35 238l-49 155q-11 31 -53 86
q-15 21 -15 41q0 13 6 31q13 29 13 59q0 19 -9 37q-6 21 -65 80l-57 66l2 4l51 72l39 79q50 94 57 103q76 85 76 160q0 34 -14.5 61t-36.5 27q-7 0 -25 -7q-36 -22 -51 -71q-8 -24 -80 -96q-21 -21 -51 -146q-9 -33 -39 -57l-53 -35q-2 -2 -8.5 -7.5t-8.5 -8.5l-80 16
l-112 25q-91 33 -123 38l-92 -38l-99 -19q-29 -10 -53 -37q-19 -24 -92 -88q-61 -58 -84 -92l-57 -78q-19 -34 -41 -110l-49 -164q0 -35 14 -123q4 -28 4 -60q0 -16 -2 -34v-41l2 -107l16 -127q14 -115 82 -205l6 -6q-3 -7 -6.5 -16t-8 -20.5t-7.5 -18.5q-22 -58 -45 -90
q-57 -75 -64 -92q-12 -27 -12 -56zM348 1014q0 23 14 43l50 78q38 70 49 84q48 54 125 69q114 22 141 35q8 4 23 4q41 0 165 -31q13 -3 29 -12q-10 -29 -14 -33q-82 -82 -86 -94l-31 -102l-92 -88q-3 -4 -57 -125l-48 -74l-49 -82l-78 -102l-81 -160l-5 -6l-34 153l22 117v4
l2 4q0 25 -16 131l2 93q-2 10 -25 71q-6 9 -6 23zM504 262l37 55l71 166q71 90 82 113l45 88q14 26 31.5 57t20.5 37q37 95 47 109l71 94l52 111l73 90l13 20l40 -39q27 -24 27 -69q3 -81 33 -105q12 -9 21 -17t14.5 -14.5t9 -12.5t4.5 -10t1 -8.5t-0.5 -6l-1.5 -4.5l-1 -3
v-4q-20 -84 -20 -131q0 -4 2 -8v-6q12 -65 12 -94v-13q-2 -2 -2 -6l-43 -123l-17 -108q-6 -39 -36 -86q-64 -92 -205 -121l-127 -29q-66 0 -115 19l-96 39q-32 14 -43 20z" />
    <glyph glyph-name="Ugrave" unicode="&#xd9;" 
d="M156 995l14 -159l-6 -131l-4 -267q-3 -64 18 -147l35 -96l29 -86q22 -43 59 -62l70 -41l104 -33l125 -47q20 -4 49 -4q19 0 90 6q217 21 234 31l155 51q18 10 54 96q16 30 47 48q53 33 65 45q17 24 17 45q0 4 -2 6v6l-21 70v6q-2 2 -2 6q0 16 10 33l21 35q2 6 2 16
q0 16 -8 29l-39 45q-6 12 -6 28q0 22 8 41q20 64 20 109q0 20 -2 26q-35 128 -35 129q17 122 17 127q-3 23 -14 50l-27 53q-8 21 -8 51v6v8l28 80q4 20 4 27q0 37 -30 74q-43 45 -72 45h-6q-35 0 -43 -39q0 -31 27 -101q4 -12 4 -22q0 -12 -13.5 -67t-13.5 -77v-12v-10
q0 -12 -9 -54t-9 -55q0 -40 14 -92q0 -31 -14 -102l28 -230l-51 -129q-21 -162 -45 -176q-78 -41 -127 -47l-199 -28q-24 -9 -45 -9q-13 0 -28 6l-41 25l-68 25q-74 27 -74 86v10q2 2 2 8q5 35 5 37q0 28 -15 43q-49 46 -49 109q0 10 4 38l12 152v10v8q0 56 -47 121
q-8 8 -8 23q0 17 19 39q56 62 65 116v7v8q0 40 -29 80q-21 21 -67 53q-12 9 -12 16q4 4 22 15q84 38 84 94q-6 25 -27 31q-16 0 -23.5 -10.5t-12.5 -32.5q0 -3 2 -3l-2 5l-11 28q-26 74 -63 111q-15 12 -33 12q-13 0 -25 -6q-35 -17 -57 -45q-5 -7 -8 -55q-1 -25 -2 -73.5
t-2 -68.5zM422 1788l385 -268l80 77l-254 238h-211v-47z" />
    <glyph glyph-name="Uacute" unicode="&#xda;" 
d="M156 995l14 -159l-6 -131l-4 -267q-3 -64 18 -147l35 -96l29 -86q22 -43 59 -62l70 -41l104 -33l125 -47q20 -4 49 -4q19 0 90 6q217 21 234 31l155 51q18 10 54 96q16 30 47 48q53 33 65 45q17 24 17 45q0 4 -2 6v6l-21 70v6q-2 2 -2 6q0 16 10 33l21 35q2 6 2 16
q0 16 -8 29l-39 45q-6 12 -6 28q0 22 8 41q20 64 20 109q0 20 -2 26q-35 128 -35 129q17 122 17 127q-3 23 -14 50l-27 53q-8 21 -8 51v6v8l28 80q4 20 4 27q0 37 -30 74q-43 45 -72 45h-6q-35 0 -43 -39q0 -31 27 -101q4 -12 4 -22q0 -12 -13.5 -67t-13.5 -77v-12v-10
q0 -12 -9 -54t-9 -55q0 -40 14 -92q0 -31 -14 -102l28 -230l-51 -129q-21 -162 -45 -176q-78 -41 -127 -47l-199 -28q-24 -9 -45 -9q-13 0 -28 6l-41 25l-68 25q-74 27 -74 86v10q2 2 2 8q5 35 5 37q0 28 -15 43q-49 46 -49 109q0 10 4 38l12 152v10v8q0 56 -47 121
q-8 8 -8 23q0 17 19 39q56 62 65 116v7v8q0 40 -29 80q-21 21 -67 53q-12 9 -12 16q4 4 22 15q84 38 84 94q-6 25 -27 31q-16 0 -23.5 -10.5t-12.5 -32.5q0 -3 2 -3l-2 5l-11 28q-26 74 -63 111q-15 12 -33 12q-13 0 -25 -6q-35 -17 -57 -45q-5 -7 -8 -55q-1 -25 -2 -73.5
t-2 -68.5zM526 1595l80 -77l387 264v51h-211z" />
    <glyph glyph-name="Ucircumflex" unicode="&#xdb;" 
d="M156 995l14 -159l-6 -131l-4 -267q-3 -64 18 -147l35 -96l29 -86q22 -43 59 -62l70 -41l104 -33l125 -47q20 -4 49 -4q19 0 90 6q217 21 234 31l155 51q18 10 54 96q16 30 47 48q53 33 65 45q17 24 17 45q0 4 -2 6v6l-21 70v6q-2 2 -2 6q0 16 10 33l21 35q2 6 2 16
q0 16 -8 29l-39 45q-6 12 -6 28q0 22 8 41q20 64 20 109q0 20 -2 26q-35 128 -35 129q17 122 17 127q-3 23 -14 50l-27 53q-8 21 -8 51v6v8l28 80q4 20 4 27q0 37 -30 74q-43 45 -72 45h-6q-35 0 -43 -39q0 -31 27 -101q4 -12 4 -22q0 -12 -13.5 -67t-13.5 -77v-12v-10
q0 -12 -9 -54t-9 -55q0 -40 14 -92q0 -31 -14 -102l28 -230l-51 -129q-21 -162 -45 -176q-78 -41 -127 -47l-199 -28q-24 -9 -45 -9q-13 0 -28 6l-41 25l-68 25q-74 27 -74 86v10q2 2 2 8q5 35 5 37q0 28 -15 43q-49 46 -49 109q0 10 4 38l12 152v10v8q0 56 -47 121
q-8 8 -8 23q0 17 19 39q56 62 65 116v7v8q0 40 -29 80q-21 21 -67 53q-12 9 -12 16q4 4 22 15q84 38 84 94q-6 25 -27 31q-16 0 -23.5 -10.5t-12.5 -32.5q0 -3 2 -3l-2 5l-11 28q-26 74 -63 111q-15 12 -33 12q-13 0 -25 -6q-35 -17 -57 -45q-5 -7 -8 -55q-1 -25 -2 -73.5
t-2 -68.5zM371 1595l78 -79l270 227l252 -223l84 67l-250 285h-178z" />
    <glyph glyph-name="Udieresis" unicode="&#xdc;" horiz-adv-x="1429" 
d="M156 995l14 -159l-6 -131l-4 -267q-3 -64 18 -147l35 -96l29 -86q22 -43 59 -62l70 -41l104 -33l125 -47q20 -4 49 -4q19 0 90 6q217 21 234 31l155 51q18 10 54 96q16 30 47 48q53 33 65 45q17 24 17 45q0 4 -2 6v6l-21 70v6q-2 2 -2 6q0 16 10 33l21 35q2 6 2 16
q0 16 -8 29l-39 45q-6 12 -6 28q0 22 8 41q20 64 20 109q0 20 -2 26q-35 128 -35 129q17 122 17 127q-3 23 -14 50l-27 53q-8 21 -8 51v6v8l28 80q4 20 4 27q0 37 -30 74q-43 45 -72 45h-6q-35 0 -43 -39q0 -31 27 -101q4 -12 4 -22q0 -12 -13.5 -67t-13.5 -77v-12v-10
q0 -12 -9 -54t-9 -55q0 -40 14 -92q0 -31 -14 -102l28 -230l-51 -129q-21 -162 -45 -176q-78 -41 -127 -47l-199 -28q-24 -9 -45 -9q-13 0 -28 6l-41 25l-68 25q-74 27 -74 86v10q2 2 2 8q5 35 5 37q0 28 -15 43q-49 46 -49 109q0 10 4 38l12 152v10v8q0 56 -47 121
q-8 8 -8 23q0 17 19 39q56 62 65 116v7v8q0 40 -29 80q-21 21 -67 53q-12 9 -12 16q4 4 22 15q84 38 84 94q-6 25 -27 31q-16 0 -23.5 -10.5t-12.5 -32.5q0 -3 2 -3l-2 5l-11 28q-26 74 -63 111q-15 12 -33 12q-13 0 -25 -6q-35 -17 -57 -45q-5 -7 -8 -55q-1 -25 -2 -73.5
t-2 -68.5zM424 1593q0 -6 2 -8q18 -118 76 -139q18 -6 35 -6q26 0 45 8q63 34 75 162q0 67 -110 67q-123 0 -123 -75v-9zM915 1593q0 -5 3 -8q18 -118 75 -139q18 -6 35 -6q26 0 45 8q64 34 76 162q0 67 -111 67q-123 0 -123 -75v-9z" />
    <glyph glyph-name="germandbls" unicode="&#xdf;" 
d="M385 662l16 -230l-6 -145v-258v-21v-16q0 -92 47 -119q19 -8 41 -8q9 0 29 4q50 21 53 90l8 158l-2 129l7 121l-13 125l4 194l-22 129q-6 41 -6 84q0 48 6 92q24 148 168 148q44 0 112 26q32 13 70 13q51 0 98 -21q134 -59 146 -145q0 -27 -17 -58l-47 -75
q-47 -71 -84 -82l-129 -15q-69 -9 -127 -61q-16 -16 -16 -31q0 -4 2 -6v-2q16 -28 76 -43q13 -3 90 -14l90 -11q50 -10 96 -41l86 -75l92 -60q59 -38 74 -121q0 -6 2 -10v-8q0 -72 -51 -158q-18 -35 -82 -75q-93 -60 -98 -62q-22 -16 -49 -16q-9 0 -25 4l-119 31
q-17 7 -74 67q-33 33 -71 33q-21 0 -45 -17q-25 -22 -25 -49q0 -19 8 -32q15 -35 74 -88q59 -56 92 -62q31 -8 97 -8q148 0 237 45l86 39q44 26 70 82l63 92q25 39 25 84v10v25q-2 8 -2 16q0 52 8 117v6q2 2 2 4q0 41 -33 80l-67 84q-38 58 -76 76q-53 28 -72 41
q-41 30 -41 67q0 25 21 60q37 57 55 120q31 98 31 154q-15 62 -60 113q-11 11 -84 57l-92 55q-59 14 -106 17l-133 8q-34 3 -125 -51l-176 -58q-43 -27 -78 -137q-21 -59 -21 -123q0 -16 6.5 -68t6.5 -67q0 -10 -7 -57z" />
    <glyph glyph-name="agrave" unicode="&#xe0;" 
d="M215 276q3 -94 25 -153q15 -33 149 -125q65 -45 154 -45q75 0 153 35q44 19 170 47q34 9 113 76q19 16 25 10h2q8 -5 18 -25q41 -78 92 -78h4h4q78 18 78 142q0 11 -4 47l8 362l-2 201l-43 127q-15 60 -65 80l-115 45q-43 16 -96 16q-29 0 -105 17q-72 16 -102 16
q-27 0 -45 -6l-137 -57q-85 -15 -111 -52l-72 -94q-14 -20 -14 -49q0 -72 82 -96h6h2q28 0 47 28l39 76q16 19 41 19l31 -4l117 71q94 4 127 4q112 0 164.5 -18t86.5 -72q35 -56 35 -116q0 -21 -6 -39q-19 -54 -96 -54q-6 0 -10 2h-13l-245 4q-36 4 -70.5 8t-54 6t-25.5 3
q-106 -12 -158 -49l-98 -103q-89 -92 -86 -207zM369 295q0 21 5.5 34t30 33t74.5 44l109 53q62 33 137 30l129 -4q70 9 104 9h13h6q85 -22 100 -117q0 -51 -39 -84l-88 -64q-51 -33 -98 -41q-165 -34 -188 -45q-44 -24 -78 -24q-40 0 -82 31q-116 84 -131 118q-4 16 -4 27z
M420 1516l385 -338l90 73l-262 314h-213v-49z" />
    <glyph glyph-name="aacute" unicode="&#xe1;" 
d="M215 276q3 -94 25 -153q15 -33 149 -125q65 -45 154 -45q75 0 153 35q44 19 170 47q34 9 113 76q19 16 25 10h2q8 -5 18 -25q41 -78 92 -78h4h4q78 18 78 142q0 11 -4 47l8 362l-2 201l-43 127q-15 60 -65 80l-115 45q-43 16 -96 16q-29 0 -105 17q-72 16 -102 16
q-27 0 -45 -6l-137 -57q-85 -15 -111 -52l-72 -94q-14 -20 -14 -49q0 -72 82 -96h6h2q28 0 47 28l39 76q16 19 41 19l31 -4l117 71q94 4 127 4q112 0 164.5 -18t86.5 -72q35 -56 35 -116q0 -21 -6 -39q-19 -54 -96 -54q-6 0 -10 2h-13l-245 4q-36 4 -70.5 8t-54 6t-25.5 3
q-106 -12 -158 -49l-98 -103q-89 -92 -86 -207zM369 295q0 21 5.5 34t30 33t74.5 44l109 53q62 33 137 30l129 -4q70 9 104 9h13h6q85 -22 100 -117q0 -51 -39 -84l-88 -64q-51 -33 -98 -41q-165 -34 -188 -45q-44 -24 -78 -24q-40 0 -82 31q-116 84 -131 118q-4 16 -4 27z
M483 1255l92 -77l394 329v58h-215z" />
    <glyph glyph-name="acircumflex" unicode="&#xe2;" 
d="M215 276q3 -94 25 -153q15 -33 149 -125q65 -45 154 -45q75 0 153 35q44 19 170 47q34 9 113 76q19 16 25 10h2q8 -5 18 -25q41 -78 92 -78h4h4q78 18 78 142q0 11 -4 47l8 362l-2 201l-43 127q-15 60 -65 80l-115 45q-43 16 -96 16q-29 0 -105 17q-72 16 -102 16
q-27 0 -45 -6l-137 -57q-85 -15 -111 -52l-72 -94q-14 -20 -14 -49q0 -72 82 -96h6h2q28 0 47 28l39 76q16 19 41 19l31 -4l117 71q94 4 127 4q112 0 164.5 -18t86.5 -72q35 -56 35 -116q0 -21 -6 -39q-19 -54 -96 -54q-6 0 -10 2h-13l-245 4q-36 4 -70.5 8t-54 6t-25.5 3
q-106 -12 -158 -49l-98 -103q-89 -92 -86 -207zM350 1249l86 -86l283 258l285 -256l86 78l-275 316h-186zM369 295q0 21 5.5 34t30 33t74.5 44l109 53q62 33 137 30l129 -4q70 9 104 9h13h6q85 -22 100 -117q0 -51 -39 -84l-88 -64q-51 -33 -98 -41q-165 -34 -188 -45
q-44 -24 -78 -24q-40 0 -82 31q-116 84 -131 118q-4 16 -4 27z" />
    <glyph glyph-name="atilde" unicode="&#xe3;" 
d="M215 276q3 -94 25 -153q15 -33 149 -125q65 -45 154 -45q75 0 153 35q44 19 170 47q34 9 113 76q19 16 25 10h2q8 -5 18 -25q41 -78 92 -78h4h4q78 18 78 142q0 11 -4 47l8 362l-2 201l-43 127q-15 60 -65 80l-115 45q-43 16 -96 16q-29 0 -105 17q-72 16 -102 16
q-27 0 -45 -6l-137 -57q-85 -15 -111 -52l-72 -94q-14 -20 -14 -49q0 -72 82 -96h6h2q28 0 47 28l39 76q16 19 41 19l31 -4l117 71q94 4 127 4q112 0 164.5 -18t86.5 -72q35 -56 35 -116q0 -21 -6 -39q-19 -54 -96 -54q-6 0 -10 2h-13l-245 4q-36 4 -70.5 8t-54 6t-25.5 3
q-106 -12 -158 -49l-98 -103q-89 -92 -86 -207zM369 295q0 21 5.5 34t30 33t74.5 44l109 53q62 33 137 30l129 -4q70 9 104 9h13h6q85 -22 100 -117q0 -51 -39 -84l-88 -64q-51 -33 -98 -41q-165 -34 -188 -45q-44 -24 -78 -24q-40 0 -82 31q-116 84 -131 118q-4 16 -4 27z
M387 1210h125l12 99q15 49 70 49q14 0 117 -74q104 -72 174 -72q90 0 142 67t44 157l-4 49l-121 -2q0 -146 -80 -146q-11 0 -157 101q-62 45 -121 45q-97 0 -154 -72q-47 -65 -47 -168v-33z" />
    <glyph glyph-name="adieresis" unicode="&#xe4;" 
d="M174 270q0 -35 23 -65l86 -105q19 -24 112 -92q47 -33 99 -33h6h8l172 48l156 2q13 3 118 61q2 2 9 2q23 0 57 -49q41 -59 104 -59q19 0 37 6q52 21 58 84l-9 92q-6 53 -6 69q0 15 5 70t5 72q0 15 -7 66t-7 67t8.5 75t8.5 76q0 19 -5 64q-2 5 -38 88l-58 113
q-21 41 -65 69l-84 60q-25 14 -60 14h-8l-125 -10l-98 8l-113 -4q-57 -12 -92 -27l-100 -37q-44 -23 -58 -63l-26 -98v-9q-2 -2 -2 -8q0 -77 90 -121q6 -2 14 -2q21 0 37 29l31 84q6 9 67 49q104 63 127 68q58 15 101 12q10 -2 28 -2q35 -3 152 -72q80 -49 82 -55
q16 -40 16 -74q0 -27 -8 -51q-18 -43 -76 -49l-135 18l-127 -30l-131 12q-41 0 -72 -8l-100 -45q-64 -28 -84 -64l-53 -88l-49 -86q-21 -34 -21 -72zM379 231l14 109q9 52 53 78l113 67q51 30 94 27q32 0 105 -25h6h10q22 0 119 17q8 2 27 2q103 0 112 -105q0 -48 -45 -77
q-86 -58 -104 -76q-39 -44 -90 -60l-95 -24q-68 -19 -106 -19l-166 15q-47 12 -47 71zM385 1399q2 -4 2 -10q15 -71 74 -109q22 -14 51 -14q40 0 70 30q36 39 36 95v10v12q-21 94 -120 94q-32 0 -56 -12q-57 -26 -57 -88v-8zM842 1354q0 -39 21 -69t59 -30l41 5q59 9 92 32
q49 37 49 105q-9 61 -68 82q-38 14 -75 14q-55 0 -87 -40t-32 -99z" />
    <glyph glyph-name="aring" unicode="&#xe5;" 
d="M215 276q3 -94 25 -153q15 -33 149 -125q65 -45 154 -45q75 0 153 35q44 19 170 47q34 9 113 76q19 16 25 10h2q8 -5 18 -25q41 -78 92 -78h4h4q78 18 78 142q0 11 -4 47l8 362l-2 201l-43 127q-15 60 -65 80l-115 45q-43 16 -96 16q-29 0 -105 17q-72 16 -102 16
q-27 0 -45 -6l-137 -57q-85 -15 -111 -52l-72 -94q-14 -20 -14 -49q0 -72 82 -96h6h2q28 0 47 28l39 76q16 19 41 19l31 -4l117 71q94 4 127 4q112 0 164.5 -18t86.5 -72q35 -56 35 -116q0 -21 -6 -39q-19 -54 -96 -54q-6 0 -10 2h-13l-245 4q-36 4 -70.5 8t-54 6t-25.5 3
q-106 -12 -158 -49l-98 -103q-89 -92 -86 -207zM369 295q0 21 5.5 34t30 33t74.5 44l109 53q62 33 137 30l129 -4q70 9 104 9h13h6q85 -22 100 -117q0 -51 -39 -84l-88 -64q-51 -33 -98 -41q-165 -34 -188 -45q-44 -24 -78 -24q-40 0 -82 31q-116 84 -131 118q-4 16 -4 27z
M512 1405q0 -86 66 -152q67 -61 155 -61q93 0 156 67t63 162q0 92 -64.5 149.5t-162.5 57.5q-90 0 -151.5 -65.5t-61.5 -157.5zM618 1411q0 47 33 81t80 34t81 -34t34 -81q0 -44 -36 -77.5t-81 -33.5q-47 0 -79 32t-32 79z" />
    <glyph glyph-name="ae" unicode="&#xe6;" 
d="M43 276q3 -94 25 -153q14 -32 141 -125q62 -45 145 -45q71 0 146 35q48 21 39 47q30 9 106 76q19 16 25 10h2q7 -7 16 -25q38 -78 88 -78h8q45 9 64 64l10 -8l43 -33q70 -58 86 -61q49 -11 90 -11q45 0 105 13l172 116q21 21 24 90q0 13 -6 32t-6 22q0 7 -1 13.5t-3.5 13
t-7.5 5.5q-10 -3 -17 0q-20 -18 -18 -20h-4q-25 0 -64 -25l-61 -43q-74 -53 -94 -53l-4 2h-2l-74 29q-39 3 -55 16q-12 8 -41 70q-44 93 -50 129q0 65 70 80h18q22 0 82 -17q15 -6 39 -6q11 0 55.5 7.5t57.5 7.5q10 0 44 -5.5t40 -5.5t10 2h8l35 13q74 38 74 209
q0 162 -103 301q-11 15 -92 71q-43 28 -61 31l-64 4q-50 3 -71 -6l-74 -35l-55 -37l-49 -49q-3 -5 -10.5 -15.5t-10.5 -15.5q-15 45 -57 64l-109 45q-191 50 -207 43l-131 -57q-80 -15 -104 -52l-68 -94q-14 -20 -14 -49q0 -72 78 -96h8q26 0 45 28l37 76q16 19 39 19l28 -4
l111 71q5 0 14 1l18 2q-1 0 -5 1q81 -3 125 -18q53 -17 85.5 -71t32.5 -117q0 -21 -6 -39q-19 -54 -92 -54q-4 0 -8 2h-12l-111 4q-34 4 -67 8t-50.5 6t-23.5 3q-101 -12 -150 -49l-94 -103q-85 -94 -82 -207zM190 295q0 30 18.5 53t86.5 58l102 53q59 33 129 30v-4
q68 9 101 9h16q81 -21 96 -117q0 -50 -37 -84l-84 -64q-48 -33 -92 -41q-47 -40 -57 -45q-41 -24 -74 -24q-39 0 -78 31q-109 83 -124 118q-3 12 -3 27zM899 690q0 64 33 117q14 36 100 72q70 9 121 2q28 0 51 -23q53 -53 53 -110q0 -2 1.5 -23t1.5 -29q0 -12 -7 -22
q-27 -38 -63 -58q-12 -4 -29 -4q-1 0 -5.5 1.5t-16 5t-23.5 6.5q-11 3 -23.5 6.5t-18.5 5t-9 2.5l-137 10q-24 3 -27 21q-2 6 -2 20z" />
    <glyph glyph-name="ccedilla" unicode="&#xe7;" 
d="M219 397q0 -77 33 -139l80 -106q34 -37 82 -68q49 -34 92 -55q-2 -14 -2 -45q0 -84 55 -105l82 -31q25 -22 25 -55q-2 -30 -27 -74l-55 -65q-37 -43 -47 -80v-12q0 -40 51 -49h14q6 -2 16 -2q101 0 179 96l55 69q82 101 82 248q0 35 -6 62q40 3 98 39q1 1 11 5t31 12.5
t44 18.5q19 9 34.5 19.5t27.5 25t19 24.5t19 29t17 27q39 56 39 70q0 10 -11 25q-40 49 -88 61h-4q-2 2 -4 2q-28 0 -55 -27l-41 -53l-57 -53q-55 -50 -119 -59q-11 -2 -32.5 -6t-29.5 -5l-96 64q-27 12 -53 12q-42 0 -90 -31l-10 11q-24 25 -62 116l-76 113q-10 23 -10 49
q0 30 14 76q15 50 15 78q3 127 35 159q81 84 135 109q34 12 86 12q133 0 225 -51q18 -9 86 -63q56 -44 90 -47h17q104 0 104 65q0 19 -16 41q-52 45 -78 61l-139 101q-139 71 -197 71q-36 0 -68 -14q-73 -33 -125 -33q-6 0 -10 2h-12q-25 7 -43 7q-40 0 -62 -25
q-29 -29 -94 -70q-74 -49 -82 -67l-43 -139l-35 -91q-14 -35 -14 -90q0 -8 3 -36.5t3 -36.5q0 -12 -3 -49t-3 -48z" />
    <glyph glyph-name="egrave" unicode="&#xe8;" 
d="M240 526q0 -136 36 -245q46 -146 138 -197l61 -33q107 -58 133 -61q65 -10 135 -10q76 0 158 12l262 119q32 22 35 92q1 13 -7.5 31.5t-8.5 21.5q0 13 -5 24.5t-14 10.5q-20 -3 -28 0q-9 -6 -14.5 -10.5t-7.5 -7t-1 -3.5h-10q-40 0 -96 -26l-91 -43q-117 -54 -141 -54
q-3 0 -6 3h-4l-111 28q-59 3 -84 17q-14 6 -61 71q-68 92 -74 129q0 67 105 82h12h14q40 0 125 -16q24 -6 55 -6q27 0 86 6q52 8 87 8q16 0 66 -5t63 -5q8 0 14 2h10l55 12q107 37 107 213q0 163 -154 305q-17 17 -137 72q-61 28 -92 31l-98 4q-75 3 -105 -6l-112 -35
l-82 -37l-76 -49q-45 -38 -64 -86l-37 -113l-26 -125q-10 -52 -10 -121zM430 1516l385 -338l90 73l-262 314h-213v-49zM473 713q0 60 49 118q29 37 152 72q108 9 182 2q43 0 82 -22q78 -54 78 -113q0 -2 2 -22.5t2 -28.5q-3 -16 -10 -23q-36 -33 -95 -57q-24 -4 -43 -4
q-6 0 -71 12q-63 12 -76 15l-207 10q-29 3 -43 20q-2 6 -2 21z" />
    <glyph glyph-name="eacute" unicode="&#xe9;" 
d="M240 526q0 -136 36 -245q46 -146 138 -197l61 -33q107 -58 133 -61q65 -10 135 -10q76 0 158 12l262 119q32 22 35 92q1 13 -7.5 31.5t-8.5 21.5q0 13 -5 24.5t-14 10.5q-20 -3 -28 0q-9 -6 -14.5 -10.5t-7.5 -7t-1 -3.5h-10q-40 0 -96 -26l-91 -43q-117 -54 -141 -54
q-3 0 -6 3h-4l-111 28q-59 3 -84 17q-14 6 -61 71q-68 92 -74 129q0 67 105 82h12h14q40 0 125 -16q24 -6 55 -6q27 0 86 6q52 8 87 8q16 0 66 -5t63 -5q8 0 14 2h10l55 12q107 37 107 213q0 163 -154 305q-17 17 -137 72q-61 28 -92 31l-98 4q-75 3 -105 -6l-112 -35
l-82 -37l-76 -49q-45 -38 -64 -86l-37 -113l-26 -125q-10 -52 -10 -121zM473 713q0 60 49 118q29 37 152 72q108 9 182 2q43 0 82 -22q78 -54 78 -113q0 -2 2 -22.5t2 -28.5q-3 -16 -10 -23q-36 -33 -95 -57q-24 -4 -43 -4q-6 0 -71 12q-63 12 -76 15l-207 10q-29 3 -43 20
q-2 6 -2 21zM496 1255l92 -77l393 329v58h-215z" />
    <glyph glyph-name="ecircumflex" unicode="&#xea;" 
d="M240 526q0 -136 36 -245q46 -146 138 -197l61 -33q107 -58 133 -61q65 -10 135 -10q76 0 158 12l262 119q32 22 35 92q1 13 -7.5 31.5t-8.5 21.5q0 13 -5 24.5t-14 10.5q-20 -3 -28 0q-9 -6 -14.5 -10.5t-7.5 -7t-1 -3.5h-10q-40 0 -96 -26l-91 -43q-117 -54 -141 -54
q-3 0 -6 3h-4l-111 28q-59 3 -84 17q-14 6 -61 71q-68 92 -74 129q0 67 105 82h12h14q40 0 125 -16q24 -6 55 -6q27 0 86 6q52 8 87 8q16 0 66 -5t63 -5q8 0 14 2h10l55 12q107 37 107 213q0 163 -154 305q-17 17 -137 72q-61 28 -92 31l-98 4q-75 3 -105 -6l-112 -35
l-82 -37l-76 -49q-45 -38 -64 -86l-37 -113l-26 -125q-10 -52 -10 -121zM362 1249l87 -86l282 258l285 -256l86 78l-275 316h-186zM473 713q0 60 49 118q29 37 152 72q108 9 182 2q43 0 82 -22q78 -54 78 -113q0 -2 2 -22.5t2 -28.5q-3 -16 -10 -23q-36 -33 -95 -57
q-24 -4 -43 -4q-6 0 -71 12q-63 12 -76 15l-207 10q-29 3 -43 20q-2 6 -2 21z" />
    <glyph glyph-name="edieresis" unicode="&#xeb;" 
d="M240 526q0 -136 36 -245q46 -146 138 -197l61 -33q107 -58 133 -61q65 -10 135 -10q76 0 158 12l262 119q32 22 35 92q1 13 -7.5 31.5t-8.5 21.5q0 13 -5 24.5t-14 10.5q-20 -3 -28 0q-9 -6 -14.5 -10.5t-7.5 -7t-1 -3.5h-10q-40 0 -96 -26l-91 -43q-117 -54 -141 -54
q-3 0 -6 3h-4l-111 28q-59 3 -84 17q-14 6 -61 71q-68 92 -74 129q0 67 105 82h12h14q40 0 125 -16q24 -6 55 -6q27 0 86 6q52 8 87 8q16 0 66 -5t63 -5q8 0 14 2h10l55 12q107 37 107 213q0 163 -154 305q-17 17 -137 72q-61 28 -92 31l-98 4q-75 3 -105 -6l-112 -35
l-82 -37l-76 -49q-45 -38 -64 -86l-37 -113l-26 -125q-10 -52 -10 -121zM395 1341q0 -52 35 -90q26 -26 57 -26q41 0 80 39q72 72 72 127q0 34 -35 61q-48 32 -110 35q-49 3 -76 -49q-23 -48 -23 -97zM473 713q0 60 49 118q29 37 152 72q108 9 182 2q43 0 82 -22
q78 -54 78 -113q0 -2 2 -22.5t2 -28.5q-3 -16 -10 -23q-36 -33 -95 -57q-24 -4 -43 -4q-6 0 -71 12q-63 12 -76 15l-207 10q-29 3 -43 20q-2 6 -2 21zM854 1364q0 -35 20 -61q48 -66 121 -72q63 0 90 55q17 34 17 68t-15 61q-26 57 -96 60q-66 -3 -112 -52q-25 -25 -25 -59z
" />
    <glyph glyph-name="igrave" unicode="&#xec;" 
d="M258 117q0 -38 18 -68q34 -52 158 -49l291 2q144 6 156 6l12 -2q53 0 96 14h135q66 15 66 91q0 14 -2 20q-21 49 -84 49q-12 0 -54 -6t-55 -6q-52 0 -102 29q-51 34 -57 88q0 45 12 133l6 106l-4 131v111l2 137q-9 116 -76 180q-29 19 -84 19h-16q-10 -2 -21 -2
q-74 -5 -152 -11t-81 -6l-107 -24q-24 -21 -24 -55q3 -35 24 -62l265 -24q63 -20 75 -89l-6 -98l8 -119l-10 -123v-16q-2 -6 -2 -14q0 -30 4 -62q19 -97 19 -116q-9 -67 -90 -82q-27 -6 -78 -6q-53 0 -125 10q-28 4 -35 4q-63 0 -78 -49q-4 -28 -4 -41zM342 1516l385 -338
l90 73l-262 314h-213v-49z" />
    <glyph glyph-name="iacute" unicode="&#xed;" 
d="M258 117q0 -38 18 -68q34 -52 158 -49l291 2q144 6 156 6l12 -2q53 0 96 14h135q66 15 66 91q0 14 -2 20q-21 49 -84 49q-12 0 -54 -6t-55 -6q-52 0 -102 29q-51 34 -57 88q0 45 12 133l6 106l-4 131v111l2 137q-9 116 -76 180q-29 19 -84 19h-16q-10 -2 -21 -2
q-74 -5 -152 -11t-81 -6l-107 -24q-24 -21 -24 -55q3 -35 24 -62l265 -24q63 -20 75 -89l-6 -98l8 -119l-10 -123v-16q-2 -6 -2 -14q0 -30 4 -62q19 -97 19 -116q-9 -67 -90 -82q-27 -6 -78 -6q-53 0 -125 10q-28 4 -35 4q-63 0 -78 -49q-4 -28 -4 -41zM492 1255l92 -77
l393 329v58h-215z" />
    <glyph glyph-name="icircumflex" unicode="&#xee;" 
d="M258 117q0 -38 18 -68q34 -52 158 -49l291 2q144 6 156 6l12 -2q53 0 96 14h135q66 15 66 91q0 14 -2 20q-21 49 -84 49q-12 0 -54 -6t-55 -6q-52 0 -102 29q-51 34 -57 88q0 45 12 133l6 106l-4 131v111l2 137q-9 116 -76 180q-29 19 -84 19h-16q-10 -2 -21 -2
q-74 -5 -152 -11t-81 -6l-107 -24q-24 -21 -24 -55q3 -35 24 -62l265 -24q63 -20 75 -89l-6 -98l8 -119l-10 -123v-16q-2 -6 -2 -14q0 -30 4 -62q19 -97 19 -116q-9 -67 -90 -82q-27 -6 -78 -6q-53 0 -125 10q-28 4 -35 4q-63 0 -78 -49q-4 -28 -4 -41zM272 1249l86 -86
l283 258l285 -256l86 78l-275 316h-186z" />
    <glyph glyph-name="idieresis" unicode="&#xef;" 
d="M258 117q0 -38 18 -68q34 -52 158 -49l291 2q144 6 156 6l12 -2q53 0 96 14h135q66 15 66 91q0 14 -2 20q-21 49 -84 49q-12 0 -54 -6t-55 -6q-52 0 -102 29q-51 34 -57 88q0 45 12 133l6 106l-4 131v111l2 137q-9 116 -76 180q-29 19 -84 19h-16q-10 -2 -21 -2
q-74 -5 -152 -11t-81 -6l-107 -24q-24 -21 -24 -55q3 -35 24 -62l265 -24q63 -20 75 -89l-6 -98l8 -119l-10 -123v-16q-2 -6 -2 -14q0 -30 4 -62q19 -97 19 -116q-9 -67 -90 -82q-27 -6 -78 -6q-53 0 -125 10q-28 4 -35 4q-63 0 -78 -49q-4 -28 -4 -41zM342 1341
q0 -52 35 -90q26 -26 57 -26q41 0 80 39q72 72 72 127q0 34 -35 61q-48 32 -111 35q-48 3 -75 -49q-23 -48 -23 -97zM801 1364q0 -35 20 -61q48 -66 121 -72q63 0 90 55q17 34 17 68t-15 61q-26 57 -96 60q-67 -3 -113 -52q-24 -24 -24 -59z" />
    <glyph glyph-name="ntilde" unicode="&#xf1;" 
d="M215 389l6 -129v-178q0 -107 103 -113q72 3 149 56q12 9 16 22q-3 9 -16 12q-15 5 -35 15l33 116l-29 304q-6 27 -6 51q0 55 33 88l72 102l94 82l55 64q22 16 51 16l95 -27q6 -2 18 -2q9 0 36.5 7.5t35.5 7.5q21 0 41 -17l28 -41l58 -69q10 -23 10 -56q0 -8 -12 -82
l-15 -90l2 -67q3 -29 19 -55q26 -48 26 -72q0 -15 -2 -21q-4 -11 -28 -51q-2 -2 -2 -14q0 -20 6 -60q0 -22 -25 -108v-4v-4q0 -31 35 -52q46 -26 96 -38q45 0 62 38q29 64 35 113l-33 105l-2 213l-13 133q-8 31 -8 63q0 4 2 8v9q6 47 6 73q0 7 -2 11v8l-30 131
q-14 39 -64 61l-98 45q-74 25 -100 31l-125 37q-6 2 -27 2q-24 0 -51 -10l-78 -35q-52 -16 -72 -33q-57 -51 -86 -61q-34 0 -53 28q-46 74 -49 76q-22 16 -60 16q-43 -9 -67 -43q-11 -19 -14 -139l-7 -231v-137zM371 1210h125l12 99q15 49 70 49q13 0 116 -74
q104 -72 174 -72q91 0 143 67t44 157l-4 49l-121 -2q0 -146 -80 -146q-12 0 -158 101q-62 45 -121 45q-96 0 -153 -72q-47 -65 -47 -168v-33z" />
    <glyph glyph-name="ograve" unicode="&#xf2;" 
d="M184 487q0 -35 9 -65l51 -139l53 -97l65 -84q33 -36 91 -61l139 -47l127 -19q20 -4 35 -4q104 0 258 60q116 47 174 190l45 144q15 59 18 108l-8 107l4 102q3 102 -51 147q-98 76 -100 80l-37 62q-26 34 -80 49l-125 35q-64 18 -100 18l-105 -16l-96 -23
q-137 -27 -152 -30q-19 -8 -67 -93l-88 -92q-21 -21 -33 -114q-4 -38 -8.5 -72.5t-6 -48.5t-1.5 -15q-11 -49 -11 -82zM367 489q21 195 49 259q64 147 209 147h10l92 -2l74 2q32 -2 90 -27l106 -45q38 -25 41 -88q3 -96 29 -164q10 -30 10 -61q0 -33 -8 -72
q-30 -157 -65 -184l-111 -88q-41 -21 -113 -21q-12 0 -16 2h-21l-96 -4q-74 -3 -125 39l-63 78q-69 72 -72 96zM395 1516l385 -338l90 73l-262 314h-213v-49z" />
    <glyph glyph-name="oacute" unicode="&#xf3;" 
d="M184 487q0 -35 9 -65l51 -139l53 -97l65 -84q33 -36 91 -61l139 -47l127 -19q20 -4 35 -4q104 0 258 60q116 47 174 190l45 144q15 59 18 108l-8 107l4 102q3 102 -51 147q-98 76 -100 80l-37 62q-26 34 -80 49l-125 35q-64 18 -100 18l-105 -16l-96 -23
q-137 -27 -152 -30q-19 -8 -67 -93l-88 -92q-21 -21 -33 -114q-4 -38 -8.5 -72.5t-6 -48.5t-1.5 -15q-11 -49 -11 -82zM367 489q21 195 49 259q64 147 209 147h10l92 -2l74 2q32 -2 90 -27l106 -45q38 -25 41 -88q3 -96 29 -164q10 -30 10 -61q0 -33 -8 -72
q-30 -157 -65 -184l-111 -88q-41 -21 -113 -21q-12 0 -16 2h-21l-96 -4q-74 -3 -125 39l-63 78q-69 72 -72 96zM485 1255l93 -77l393 329v58h-215z" />
    <glyph glyph-name="ocircumflex" unicode="&#xf4;" 
d="M184 487q0 -35 9 -65l51 -139l53 -97l65 -84q33 -36 91 -61l139 -47l127 -19q20 -4 35 -4q104 0 258 60q116 47 174 190l45 144q15 59 18 108l-8 107l4 102q3 102 -51 147q-98 76 -100 80l-37 62q-26 34 -80 49l-125 35q-64 18 -100 18l-105 -16l-96 -23
q-137 -27 -152 -30q-19 -8 -67 -93l-88 -92q-21 -21 -33 -114q-4 -38 -8.5 -72.5t-6 -48.5t-1.5 -15q-11 -49 -11 -82zM315 1249l86 -86l283 258l285 -256l86 78l-275 316h-186zM367 489q21 195 49 259q64 147 209 147h10l92 -2l74 2q32 -2 90 -27l106 -45q38 -25 41 -88
q3 -96 29 -164q10 -30 10 -61q0 -33 -8 -72q-30 -157 -65 -184l-111 -88q-41 -21 -113 -21q-12 0 -16 2h-21l-96 -4q-74 -3 -125 39l-63 78q-69 72 -72 96z" />
    <glyph glyph-name="otilde" unicode="&#xf5;" 
d="M184 487q0 -35 9 -65l51 -139l53 -97l65 -84q33 -36 91 -61l139 -47l127 -19q20 -4 35 -4q104 0 258 60q116 47 174 190l45 144q15 59 18 108l-8 107l4 102q3 102 -51 147q-98 76 -100 80l-37 62q-26 34 -80 49l-125 35q-64 18 -100 18l-105 -16l-96 -23
q-137 -27 -152 -30q-19 -8 -67 -93l-88 -92q-21 -21 -33 -114q-4 -38 -8.5 -72.5t-6 -48.5t-1.5 -15q-11 -49 -11 -82zM367 489q21 195 49 259q64 147 209 147h10l92 -2l74 2q32 -2 90 -27l106 -45q38 -25 41 -88q3 -96 29 -164q10 -30 10 -61q0 -33 -8 -72
q-30 -157 -65 -184l-111 -88q-41 -21 -113 -21q-12 0 -16 2h-21l-96 -4q-74 -3 -125 39l-63 78q-69 72 -72 96zM377 1210h125l12 99q15 49 70 49q13 0 116 -74q104 -72 174 -72q91 0 143 67t44 157l-4 49l-121 -2q0 -146 -80 -146q-12 0 -158 101q-62 45 -120 45
q-97 0 -154 -72q-47 -65 -47 -168v-33z" />
    <glyph glyph-name="odieresis" unicode="&#xf6;" 
d="M188 553q0 -32 11 -96l6 -148q8 -36 69 -116l62 -80l78 -56l100 -55q52 -18 115 -18q5 0 23 2t22 2l127 4q78 3 188 45q127 47 154 100l41 111l37 112q37 100 41 136l-43 127v118q-3 30 -19 62l-55 84l-82 82l-53 57q-22 22 -62 37q-27 9 -125 18l-108 11l-166 -31
q-56 -10 -100 -45l-87 -68q-76 -50 -90 -69q-29 -44 -41 -119l-30 -125q-13 -44 -13 -82zM356 1378q0 -57 64 -106q17 -10 33 -10q32 0 61 26q86 68 86 127q0 40 -34 67t-77 27q-57 0 -106 -61q-27 -34 -27 -70zM358 510q0 29 13 70q2 6 2 26q0 10 -4 60q0 93 55 139l80 65
q75 63 131 60l176 -8q153 -41 201 -115q18 -27 30 -113l15 -96l4 -106q-6 -98 -35 -168q-51 -123 -184 -150l-146 -31l-161 72q-56 23 -78 66l-31 77l-53 84q-15 30 -15 68zM836 1421q0 -42 36 -75q64 -43 109 -43q36 0 51 40q6 27 6 52q0 50 -28 92q-14 14 -29 14
q-12 0 -25 -10l-32 -35q-4 -4 -9 -4q-4 0 -21 10t-22 11q-25 0 -34 -31q-2 -8 -2 -21z" />
    <glyph glyph-name="divide" unicode="&#xf7;" 
d="M154 631q3 -62 43 -111q31 -31 100 -28l135 6l111 -2q46 -4 61 -4q35 0 90 14q62 16 90 16q14 0 61 -4t60 -4q42 0 78 4l111 14l77 19q57 15 60 72q3 76 -49 116q-15 9 -33 9q-27 0 -68 -35l-12 -4q-7 0 -10 6q-14 19 -35 30q-15 5 -39 5q-6 0 -28.5 -2t-38.5 -3
q-69 -3 -101 -6l-112 -6l-164 -14q-43 0 -123 18q-81 19 -121 19q-146 0 -143 -125zM479 188q0 -34 25 -73q83 -121 170 -121q65 0 135 49q76 54 84 109v8v6q0 54 -39 102l-61 56l-64 51q-13 8 -35 8q-39 0 -88 -37q-92 -71 -110 -98q-17 -31 -17 -60zM504 1030
q18 -130 119 -170q30 -12 67 -12q69 0 123.5 52.5t54.5 119.5q0 34 -12 61q-52 122 -176 119q-74 -3 -121 -39q-55 -43 -55 -110v-11v-10z" />
    <glyph glyph-name="oslash" unicode="&#xf8;" 
d="M96 -137q0 -2 2 -4v-4q7 -31 39 -48q44 -20 96 -20q9 0 13 2h6q55 6 84 51q34 64 43 101l27 63l26 45q3 -1 10.5 -4t10.5 -4l139 -47l127 -19q20 -4 35 -4q104 0 258 60q116 47 174 190l45 144q15 59 18 108l-8 107l4 102q3 102 -51 147q-85 65 -94 74l43 43l37 58
q40 58 53 71q74 59 74 113q0 24 -15 42.5t-35 18.5q-4 0 -24 -4q-33 -14 -49 -51q-6 -19 -76 -68q-21 -18 -47 -102q-6 -18 -27 -33q-24 20 -57 29l-125 35q-64 18 -100 18l-105 -16l-96 -23q-137 -27 -152 -30q-19 -8 -67 -93l-88 -92q-21 -21 -33 -114q-4 -38 -8.5 -72.5
t-6 -48.5t-1.5 -15q-11 -49 -11 -82q0 -35 9 -65l51 -139l53 -97l20 -28l-51 -52q-31 -31 -55 -75q-25 -46 -43 -64q-53 -56 -59 -65q-13 -23 -13 -39zM367 489q21 195 49 259q64 147 209 147h10l92 -2l74 2q32 -2 90 -27l24 -12q-10 -30 -18 -35q-80 -61 -82 -65l-31 -74
l-88 -61q-2 -4 -53 -89l-45 -51l-47 -57l-74 -74l-45 -63q-42 48 -45 69zM532 174l62 107q67 64 78 79l43 62q42 57 49 65q29 62 45 78l68 66l49 78l69 63l23 29q17 -22 20 -66q3 -96 29 -164q10 -30 10 -61q0 -33 -8 -72q-30 -157 -65 -184l-111 -88q-41 -21 -113 -21
q-12 0 -16 2h-21l-96 -4q-69 -3 -115 31z" />
    <glyph glyph-name="ugrave" unicode="&#xf9;" 
d="M252 453l8 -168l10 -123q8 -40 30.5 -67t74.5 -50q154 -68 168 -68l217 13q221 78 229 86q11 8 25 8q16 0 28 -18q29 -46 48 -60q13 -8 34 -8t39 12q68 47 68 133l-19 154l13 213l2 123l-19 153l11 121q6 92 -45 137q-20 13 -37 13q-18 0 -35 -10q-55 -40 -55 -209
l2 -154v-172q8 -63 8 -104q0 -5 -2 -11v-6q-12 -65 -51 -104l-95 -62q-74 -65 -125 -65h-8q-2 2 -6 2q-18 6 -39 6q-38 0 -110 -29q-16 -8 -46 -8q-61 0 -118 57q-59 59 -56 148l2 188q-8 41 -8 80q0 16 9.5 72t9.5 72l4 120q2 12 2 35q0 78 -51 117q-21 12 -43 12
q-15 0 -27 -6q-24 -20 -35 -70l-10 -98l-2 -104l4 -162zM395 1516l385 -338l90 73l-262 314h-213v-49z" />
    <glyph glyph-name="uacute" unicode="&#xfa;" 
d="M252 453l8 -168l10 -123q8 -40 30.5 -67t74.5 -50q154 -68 168 -68l217 13q221 78 229 86q11 8 25 8q16 0 28 -18q29 -46 48 -60q13 -8 34 -8t39 12q68 47 68 133l-19 154l13 213l2 123l-19 153l11 121q6 92 -45 137q-20 13 -37 13q-18 0 -35 -10q-55 -40 -55 -209
l2 -154v-172q8 -63 8 -104q0 -5 -2 -11v-6q-12 -65 -51 -104l-95 -62q-74 -65 -125 -65h-8q-2 2 -6 2q-18 6 -39 6q-38 0 -110 -29q-16 -8 -46 -8q-61 0 -118 57q-59 59 -56 148l2 188q-8 41 -8 80q0 16 9.5 72t9.5 72l4 120q2 12 2 35q0 78 -51 117q-21 12 -43 12
q-15 0 -27 -6q-24 -20 -35 -70l-10 -98l-2 -104l4 -162zM489 1255l93 -77l393 329v58h-215z" />
    <glyph glyph-name="ucircumflex" unicode="&#xfb;" 
d="M252 453l8 -168l10 -123q8 -40 30.5 -67t74.5 -50q154 -68 168 -68l217 13q221 78 229 86q11 8 25 8q16 0 28 -18q29 -46 48 -60q13 -8 34 -8t39 12q68 47 68 133l-19 154l13 213l2 123l-19 153l11 121q6 92 -45 137q-20 13 -37 13q-18 0 -35 -10q-55 -40 -55 -209
l2 -154v-172q8 -63 8 -104q0 -5 -2 -11v-6q-12 -65 -51 -104l-95 -62q-74 -65 -125 -65h-8q-2 2 -6 2q-18 6 -39 6q-38 0 -110 -29q-16 -8 -46 -8q-61 0 -118 57q-59 59 -56 148l2 188q-8 41 -8 80q0 16 9.5 72t9.5 72l4 120q2 12 2 35q0 78 -51 117q-21 12 -43 12
q-15 0 -27 -6q-24 -20 -35 -70l-10 -98l-2 -104l4 -162zM354 1255l86 -86l283 258l285 -256l86 78l-275 316h-186z" />
    <glyph glyph-name="udieresis" unicode="&#xfc;" 
d="M252 453l8 -168l10 -123q8 -40 30.5 -67t74.5 -50q154 -68 168 -68l217 13q221 78 229 86q11 8 25 8q16 0 28 -18q29 -46 48 -60q13 -8 34 -8t39 12q68 47 68 133l-19 154l13 213l2 123l-19 153l11 121q6 92 -45 137q-20 13 -37 13q-18 0 -35 -10q-55 -40 -55 -209
l2 -154v-172q8 -63 8 -104q0 -5 -2 -11v-6q-12 -65 -51 -104l-95 -62q-74 -65 -125 -65h-8q-2 2 -6 2q-18 6 -39 6q-38 0 -110 -29q-16 -8 -46 -8q-61 0 -118 57q-59 59 -56 148l2 188q-8 41 -8 80q0 16 9.5 72t9.5 72l4 120q2 12 2 35q0 78 -51 117q-21 12 -43 12
q-15 0 -27 -6q-24 -20 -35 -70l-10 -98l-2 -104l4 -162zM395 1341q0 -52 35 -90q26 -26 57 -26q41 0 80 39q72 72 72 127q0 34 -35 61q-48 32 -110 35q-49 3 -76 -49q-23 -48 -23 -97zM854 1364q0 -35 20 -61q48 -66 121 -72q63 0 90 55q17 34 17 68t-15 61q-26 57 -96 60
q-66 -3 -112 -52q-25 -25 -25 -59z" />
    <glyph glyph-name="ydieresis" unicode="&#xff;" 
d="M176 1004q0 -13 2 -21q8 -19 49 -78q27 -45 35 -71q21 -83 39 -107l64 -92l41 -92l61 -82l41 -90l82 -115l53 -164q23 -41 23 -65q0 -18 -11 -33q-65 -96 -69 -111q-3 -76 -19 -98l-55 -61q-54 -85 -57 -152q3 -38 41 -59q21 -9 41 -9q22 0 43 9q31 22 34 55q6 63 23 80
q35 21 59 37q23 23 29 49q25 97 39 116q62 74 76 105l53 119q8 24 8 63v23q0 35 25 63l75 70q16 22 19 49l4 55q4 29 72 97q26 26 53 141q11 33 29 65l43 74l55 107q29 63 29 96q0 53 -43 80q-20 10 -37 10q-54 0 -101 -78l-82 -106q-32 -37 -38 -86v-92q0 -41 -35 -76
q-49 -49 -62 -72l-22 -111q-16 -61 -72 -100q-17 -10 -33 -10q-52 0 -110 102l-41 90q-20 28 -82 90l-70 152q-44 47 -82 184q-27 101 -149 101q-22 0 -37 -6q-33 -14 -33 -45zM356 1378q0 -57 64 -106q17 -10 33 -10q32 0 61 26q86 68 86 127q0 40 -34 67t-77 27
q-57 0 -106 -61q-27 -34 -27 -70zM836 1421q0 -42 36 -75q64 -43 109 -43q36 0 51 40q6 27 6 52q0 50 -28 92q-14 14 -29 14q-12 0 -25 -10l-32 -35q-4 -4 -9 -4q-4 0 -21 10t-22 11q-25 0 -34 -31q-2 -8 -2 -21z" />
    <glyph glyph-name="OE" unicode="&#x152;" 
d="M92 698q0 -2 6 -90l8 -155l60 -144q26 -62 51 -98l82 -80l100 -76q71 -36 232 -51l137 -12l10 22q62 -15 117 -12l104 4l144 -10q156 9 186 24q43 34 43 95q-15 100 -121 100q-26 0 -75 -14q-57 -13 -80 -13q-14 -14 -52 -14q-136 0 -163 90l-23 98q-4 20 -4 39q0 9 6 58
l21 176q3 39 43 39h77l15 -10l117 2l92 6q57 21 82 65q6 9 6 23q0 22 -25 41l-102 57h-2q-4 2 -10 2q-35 0 -109 -14q-114 18 -133 18h-17l-32 -6q-33 0 -39 43l2 121l-8 86v22q0 66 26 105q13 16 31 16q10 0 14 -2l25 -10h6q20 0 35 18l53 23q20 -4 47 -4q12 0 20.5 4
t16.5 4q26 0 54 -11t46 -21.5t19 -10.5q9 1 20.5 17t27.5 28.5t38 9.5q10 0 19 -0.5t15.5 -1t12 -1t9.5 -0.5t6.5 -0.5t3.5 -0.5h1q28 9 39 35q2 8 2 23q0 31 -20 53t-78 47q-27 12 -82 12q-11 0 -61 -4l-54 4l-167 15q-12 6 -25 6q-18 0 -35 -10q-54 -32 -86 -46
q-7 23 -14 23q-61 0 -123 -16l-217 -13l-123 -69q-73 -27 -86 -43l-66 -115q-34 -55 -43 -104l-36 -170l-9 -91q-8 -96 -8 -131zM309 750l19 77l28 252q22 55 131 142q138 48 199 51l16 -2v-49l-20 -131l14 -185q-12 -37 -12 -69q0 -18 14.5 -76t14.5 -76q0 -41 -17 -111
q-8 -27 -8 -69q0 -21 2 -41v-31q0 -20 -9 -79.5t-9 -76.5v-12l4 -57h-146q-60 19 -102 69q-23 30 -47 103l-37 102l-18 111z" />
    <glyph glyph-name="oe" unicode="&#x153;" 
d="M82 397q0 -75 24 -139l66 -106q30 -38 68 -68q111 -81 168 -94q33 -8 139 -8q85 0 112 2q44 3 93 41q-3 6 -9 20q81 -51 103 -55q55 -10 112 -10q64 0 134 12l217 119q23 23 26 92q1 13 -6.5 31.5t-7.5 21.5q0 8 -1.5 16t-4 14t-6.5 5q-18 -3 -27 0q-21 -18 -18 -21h-9
q-30 0 -81 -26l-72 -43q-97 -54 -119 -54q-1 0 -4 3h-4l-90 28q-49 3 -70 17q-13 5 -51 71q-23 119 -25 129q0 67 49 82h23q33 0 102 -16q21 -6 48 -6q15 0 70.5 7t72.5 7q13 0 53 -5t51 -5q9 0 15 2h8l47 12q86 38 86 213q0 165 -125 305q-18 18 -115 72q-56 29 -77 31
l-80 4q-61 3 -88 -6l-95 -35l-63 -35q-109 65 -154 65q-30 0 -55 -14q-62 -33 -102 -33q-7 0 -11 2h-10q-21 7 -35 7q-32 0 -51 -25q-17 -24 -78 -70t-67 -67l-35 -139l-31 -91q-10 -42 -10 -90q0 -8 2 -36.5t2 -36.5q0 -12 -2 -49t-2 -48zM256 475q0 17 11.5 75.5
t11.5 78.5q3 124 30 159q69 85 113 109q27 12 72 12q54 0 110 -16q0 -6 -2 -8l-4 -113v-125q-10 -52 -10 -121q6 -83 10 -245q-6 -81 27 -131q-56 -9 -66 -19q-49 -34 -63 -37q-25 0 -37 12l-27 29l-55 62q-15 19 -51 116l-62 113q-8 19 -8 49zM756 713q-21 62 18 118
q27 37 129 72q87 9 150 2q39 0 67 -22q64 -52 64 -113q0 -2 2 -22.5t2 -28.5q-3 -16 -10 -23q-34 -37 -76 -57q-20 -4 -37 -4q-7 0 -59 12q-54 12 -62 15l-151 10q-27 3 -35 20q-2 6 -2 21z" />
    <glyph glyph-name="Ydieresis" unicode="&#x178;" 
d="M156 1350q0 -40 24 -74q63 -78 66 -88l24 -47q12 -18 29 -35l49 -37q20 -14 35 -41q3 -3 33 -67q18 -39 39 -64l80 -94l69 -84q15 -15 21 -53q9 -52 6 -91l-17 -225l7 -127l-19 -92q0 -63 40 -106.5t103 -44.5q58 6 76 65q8 19 8 84v27q-2 14 -2 30l-6 113l-2 53l6 101
l-18 149q3 36 29 62q58 61 69 79q38 65 68 86l65 35q24 21 33 51l21 72q16 30 41 45l45 31q26 20 39 57l26 68l68 106q8 21 8 47q0 68 -68 115q-13 8 -26 8q-32 0 -58 -39l-84 -108l-57 -88q-21 -34 -82 -88q-26 -23 -35 -70q-10 -62 -18 -76q-17 -16 -70 -57l-96 -68
q-6 -2 -18 -2q-23 0 -39 25l-43 82l-84 72q-38 50 -58 86l-45 73l-41 94q-17 28 -71 62q-59 39 -88 63q-19 19 -37 19q-45 -15 -45 -94zM356 1645q0 -60 39 -105q16 -16 43 -16q20 0 47 12l84 35q35 12 35 45q0 45 -47 86t-94 41q-25 0 -49 -8q-55 -24 -58 -90zM827 1645
q0 -60 39 -105q16 -16 43 -16q20 0 47 12l84 35q35 12 35 45q0 45 -47 86t-94 41q-25 0 -49 -8q-55 -24 -58 -90z" />
    <glyph glyph-name="circumflex" unicode="&#x2c6;" 
d="M-362 1249l83 -86l285 258l287 -256l84 78l-277 316h-184z" />
    <glyph glyph-name="tilde" unicode="&#x2dc;" 
d="M-334 1210h125q0 67 10 97q17 51 74 51q18 0 121 -74q104 -72 172 -72q92 0 141 76q43 64 43 160v35h-123q0 -64 -10 -94q-18 -52 -69 -52q-19 0 -123 72q-103 74 -158 74q-100 0 -154 -72q-49 -64 -49 -168v-33z" />
    <glyph glyph-name="uni2000" unicode="&#x2000;" horiz-adv-x="975" 
 />
    <glyph glyph-name="uni2001" unicode="&#x2001;" horiz-adv-x="1950" 
 />
    <glyph glyph-name="uni2002" unicode="&#x2002;" horiz-adv-x="975" 
 />
    <glyph glyph-name="uni2003" unicode="&#x2003;" horiz-adv-x="1950" 
 />
    <glyph glyph-name="uni2004" unicode="&#x2004;" horiz-adv-x="650" 
 />
    <glyph glyph-name="uni2005" unicode="&#x2005;" horiz-adv-x="487" 
 />
    <glyph glyph-name="uni2006" unicode="&#x2006;" horiz-adv-x="325" 
 />
    <glyph glyph-name="uni2007" unicode="&#x2007;" horiz-adv-x="325" 
 />
    <glyph glyph-name="uni2008" unicode="&#x2008;" horiz-adv-x="243" 
 />
    <glyph glyph-name="uni2009" unicode="&#x2009;" horiz-adv-x="390" 
 />
    <glyph glyph-name="uni200A" unicode="&#x200a;" horiz-adv-x="108" 
 />
    <glyph glyph-name="uni2010" unicode="&#x2010;" 
d="M184 582q3 -62 43 -111q32 -32 101 -29l135 7l110 -3q46 -4 62 -4q31 0 90 15q62 16 90 16q13 0 60 -4t61 -4q42 0 78 4l110 14l78 19q57 15 60 71q3 76 -50 117q-13 8 -32 8q-28 0 -68 -34q-2 -1 -5 -2t-4.5 -2t-2.5 -1q-6 0 -10 7q-14 19 -35 30q-12 4 -39 4
q-2 0 -68 -4q-67 -3 -100 -6l-113 -6l-164 -14q-43 0 -122 18q-81 19 -121 19q-147 0 -144 -125z" />
    <glyph glyph-name="uni2011" unicode="&#x2011;" 
d="M184 582q3 -62 43 -111q32 -32 101 -29l135 7l110 -3q46 -4 62 -4q31 0 90 15q62 16 90 16q13 0 60 -4t61 -4q42 0 78 4l110 14l78 19q57 15 60 71q3 76 -50 117q-13 8 -32 8q-28 0 -68 -34q-2 -1 -5 -2t-4.5 -2t-2.5 -1q-6 0 -10 7q-14 19 -35 30q-12 4 -39 4
q-2 0 -68 -4q-67 -3 -100 -6l-113 -6l-164 -14q-43 0 -122 18q-81 19 -121 19q-147 0 -144 -125z" />
    <glyph glyph-name="figuredash" unicode="&#x2012;" 
d="M184 582q3 -62 43 -111q32 -32 101 -29l135 7l110 -3q46 -4 62 -4q31 0 90 15q62 16 90 16q13 0 60 -4t61 -4q42 0 78 4l110 14l78 19q57 15 60 71q3 76 -50 117q-13 8 -32 8q-28 0 -68 -34q-2 -1 -5 -2t-4.5 -2t-2.5 -1q-6 0 -10 7q-14 19 -35 30q-12 4 -39 4
q-2 0 -68 -4q-67 -3 -100 -6l-113 -6l-164 -14q-43 0 -122 18q-81 19 -121 19q-147 0 -144 -125z" />
    <glyph glyph-name="endash" unicode="&#x2013;" 
d="M102 467h1121v137h-1121v-137z" />
    <glyph glyph-name="emdash" unicode="&#x2014;" 
d="M104 453h1113v155h-1113v-155z" />
    <glyph glyph-name="quoteleft" unicode="&#x2018;" 
d="M481 1026q0 -148 99 -213l104 -68q27 -12 53 -12q59 0 119 51q38 38 47 103q8 36 8 80q0 83 -55 104l-82 31q-24 21 -24 55q3 32 26 74l55 65q39 44 48 80v6v7q0 40 -52 49h-14q-6 2 -16 2q-100 0 -179 -97l-55 -69q-82 -101 -82 -248z" />
    <glyph glyph-name="quoteright" unicode="&#x2019;" 
d="M524 1255q0 -83 56 -104l82 -31q24 -21 24 -55q-2 -30 -27 -74l-55 -65q-37 -43 -47 -80v-6v-6q0 -41 51 -50h15q6 -2 16 -2q99 0 178 97l55 69q82 101 82 248q0 149 -98 213l-104 68q-27 12 -54 12q-58 0 -118 -51q-39 -39 -48 -103q-8 -36 -8 -80z" />
    <glyph glyph-name="quotesinglbase" unicode="&#x201a;" horiz-adv-x="1437" 
d="M446 145q0 -83 56 -104l82 -31q24 -21 24 -55q-3 -32 -26 -74l-56 -65q-37 -43 -47 -80v-6v-6q0 -41 51 -50h15q6 -2 16 -2q99 0 178 97l56 69q82 101 82 248q0 148 -99 213l-104 68q-27 12 -53 12q-59 0 -119 -51q-38 -38 -47 -103q-9 -41 -9 -80z" />
    <glyph glyph-name="quotedblleft" unicode="&#x201c;" 
d="M203 1026q0 -149 98 -213l105 -68q27 -12 53 -12q59 0 119 51q38 38 47 103q8 36 8 80q0 83 -55 104l-82 31q-25 22 -25 55q2 30 27 74l55 65q37 43 47 80v6v7q0 40 -51 49h-14q-6 2 -17 2q-99 0 -178 -97l-55 -69q-82 -101 -82 -248zM754 1020q0 -149 98 -213l104 -68
q27 -12 54 -12q58 0 118 51q39 39 48 103q8 36 8 80q0 83 -56 104l-81 31q-25 22 -25 55q2 30 27 74l55 65q37 43 47 80v6v6q0 41 -51 50h-15q-6 2 -16 2q-99 0 -178 -97l-55 -69q-82 -101 -82 -248z" />
    <glyph glyph-name="quotedblright" unicode="&#x201d;" 
d="M199 1262q0 -84 55 -105l82 -31q24 -21 24 -55q-3 -32 -26 -74l-55 -65q-39 -44 -48 -80v-6v-6q0 -40 52 -49h14q9 -3 16 -3q100 0 179 97l55 69q82 101 82 248q0 148 -99 213l-104 68q-27 12 -53 12q-59 0 -119 -51q-38 -38 -47 -103q-8 -36 -8 -79zM750 1255
q0 -83 55 -104l82 -31q24 -21 24 -55q-3 -32 -26 -74l-56 -65q-37 -43 -47 -80v-6v-6q0 -41 52 -50h14q6 -2 16 -2q99 0 178 97l56 69q82 101 82 248q0 149 -99 213l-104 68q-27 12 -53 12q-59 0 -119 -51q-38 -38 -47 -103q-8 -36 -8 -80z" />
    <glyph glyph-name="quotedblbase" unicode="&#x201e;" 
d="M223 96q0 -83 56 -104l81 -31q25 -22 25 -55q-2 -30 -27 -74l-55 -65q-37 -43 -47 -80v-6v-7q0 -40 51 -49h15q6 -2 16 -2q100 0 178 96l55 70q82 101 82 248q0 149 -98 213l-104 67q-29 13 -54 13q-58 0 -118 -51q-39 -39 -48 -103q-8 -36 -8 -80zM774 90q0 -83 55 -104
l82 -31q25 -22 25 -55q-2 -30 -27 -74l-55 -66q-38 -43 -47 -79v-7v-6q0 -40 51 -49h14q6 -2 17 -2q100 0 178 96l55 70q82 101 82 248q0 149 -98 213l-105 67q-29 13 -53 13q-58 0 -119 -52q-38 -38 -47 -102q-8 -36 -8 -80z" />
    <glyph glyph-name="bullet" unicode="&#x2022;" 
d="M74 723q0 -111 80 -188q84 -78 192 -78q112 0 187 76.5t75 189.5q0 112 -76 188q-78 78 -186 78t-192 -78q-80 -77 -80 -188z" />
    <glyph glyph-name="uni202F" unicode="&#x202f;" horiz-adv-x="390" 
 />
    <glyph glyph-name="guilsinglleft" unicode="&#x2039;" 
d="M180 473l322 -252v180l-215 166l215 166v180l-322 -251v-189z" />
    <glyph glyph-name="guilsinglright" unicode="&#x203a;" 
d="M180 221l322 252v189l-322 251v-180l215 -166l-215 -166v-180z" />
    <glyph glyph-name="uni205F" unicode="&#x205f;" horiz-adv-x="487" 
 />
    <glyph glyph-name="Euro" unicode="&#x20ac;" 
d="M-129 879q0 -29 18 -56q37 -46 95 -61l71 2q13 -8 39 -8q66 0 125 24q12 4 27 4q35 0 78 -14h6h10q31 0 414 35q27 9 30 26q0 15 -20 35l-78 84q-24 27 -55 27q-7 0 -19 -4q-131 2 -221 2q-15 0 -33 2l-59 8l-102 6l-150 -4q-36 8 -57 8q-63 -20 -107 -80
q-12 -15 -12 -36zM-113 547q0 -29 13 -58q35 -74 147 -71l272 4l134 6q-1 0 19 2t65.5 6t107.5 10q39 0 66 15q56 36 102 82q10 10 10 22q0 6 -2 8q-13 13 -35 25l-120 45l-252 6l-125 4l-96 -2l-113 15l-62 -7q-46 -3 -81 -18q-39 -25 -48 -70q0 -6 -2 -12v-12zM139 698
q0 -2 6 -90l9 -155l59 -144q26 -62 51 -98l82 -80l100 -76q72 -37 168 -51l138 -12l137 12l100 19l70 16q25 11 67 47l84 80q97 91 97 231l-2 9v6q-6 43 -45 57q-16 4 -27 4q-23 0 -43 -10q-16 -8 -70 -74l-88 -88l-84 -65l-88 -52q-29 -16 -65 -16h-11h-8l-117 39h-81
q-62 19 -103 69q-23 30 -47 103l-37 102l-18 111l-17 158l19 127l28 235q21 52 132 141q83 65 135 68l73 -8l72 16q63 0 152 -59l57 -37l29 -19q29 -16 49 -55l41 -72q34 -34 71 -34q23 0 52 16q41 38 41 86q0 53 -35 100l-111 152q-52 55 -174 70l-135 16q-41 6 -66 6
q-60 0 -122 -16l-154 -29l-123 -70q-73 -27 -86 -43l-65 -114q-34 -54 -43 -105l-37 -153l-9 -140q-8 -96 -8 -131z" />
    <glyph glyph-name="uni25FC" unicode="&#x25fc;" horiz-adv-x="1065" 
d="M0 0v1065h1065v-1065h-1065z" />
  </font>
</defs>
</svg>
